SplineFontDB: 3.0
FontName: Vaigai-Regular
FullName: Vaigai
FamilyName: Vaigai
Weight: Book
Copyright: Copyright (c) 1995-2015, NLCI (http://www.nlci.in/fonts/) Derived from SAU Vaigai Normal by ttfbuilder v0.33
Version: 1.0 Thu Aug 08 15:05:52 1996
ItalicAngle: 0
UnderlinePosition: -532.48
UnderlineWidth: 40.96
Ascent: 1638
Descent: 410
InvalidEm: 0
sfntRevision: 0x00010000
LayerCount: 2
Layer: 0 1 "Back" 1
Layer: 1 1 "Fore" 0
XUID: [1021 803 1752918527 2782485]
StyleMap: 0x0040
FSType: 0
OS2Version: 1
OS2_WeightWidthSlopeOnly: 0
OS2_UseTypoMetrics: 0
CreationTime: 1522121140
ModificationTime: 1522121179
PfmFamily: 17
TTFWeight: 400
TTFWidth: 5
LineGap: 0
VLineGap: 0
Panose: 2 0 0 3 0 0 0 0 0 0
OS2TypoAscent: 2187
OS2TypoAOffset: 0
OS2TypoDescent: -735
OS2TypoDOffset: 0
OS2TypoLinegap: 0
OS2WinAscent: 2187
OS2WinAOffset: 0
OS2WinDescent: 735
OS2WinDOffset: 0
HheadAscent: 2187
HheadAOffset: 0
HheadDescent: -735
HheadDOffset: 0
OS2SubXSize: 1434
OS2SubYSize: 1331
OS2SubXOff: 0
OS2SubYOff: 293
OS2SupXSize: 1434
OS2SupYSize: 1331
OS2SupXOff: 0
OS2SupYOff: 928
OS2StrikeYSize: 102
OS2StrikeYPos: 530
OS2Vendor: 'Alts'
OS2CodePages: 00000001.00000000
OS2UnicodeRanges: 80108003.02002000.00000000.00000000
Lookup: 260 0 0 "_holdAnchorsbase" { "_someAnchorsbase"  } []
DEI: 91125
ShortTable: maxp 16
  1
  0
  339
  171
  12
  279
  16
  1
  0
  0
  0
  0
  3
  0
  3
  2
EndShort

StartChar: .notdef
Encoding: 0 -1 0
Width: 1024
Flags: W
LayerCount: 2
Fore
SplineSet
63 0 m 1,0,-1
 63 1536 l 1,1,-1
 961 1536 l 1,2,-1
 961 0 l 1,3,-1
 63 0 l 1,0,-1
897 63 m 1,4,-1
 897 1473 l 1,5,-1
 127 1473 l 1,6,-1
 127 63 l 1,7,-1
 897 63 l 1,4,-1
EndSplineSet
EndChar

StartChar: exclam
Encoding: 4 33 4
Width: 582
Flags: W
LayerCount: 2
Fore
SplineSet
343 397 m 0,0,1
 324 383 324 383 304 374.5 c 0,2,3
 284 366 284 366 259 358 c 0,4,-1
 230 379 l 0,5,-1
 173 1388 l 0,6,7
 193 1400 193 1400 217.5 1413.5 c 0,8,9
 242 1427 242 1427 267 1439.5 c 0,10,11
 292 1452 292 1452 315.5 1462.5 c 0,12,13
 339 1473 339 1473 357 1480 c 0,14,-1
 402 1453 l 0,15,-1
 343 397 l 0,0,1
419 126 m 0,16,17
 419 90 419 90 407 59.5 c 0,18,19
 395 29 395 29 374.5 7 c 0,20,21
 354 -15 354 -15 326 -27.5 c 0,22,23
 298 -40 298 -40 266 -40 c 0,24,25
 210 -40 210 -40 180.5 -10 c 0,26,27
 151 20 151 20 151 80 c 0,28,29
 151 116 151 116 163.5 146 c 0,30,31
 176 176 176 176 197 198.5 c 0,32,33
 218 221 218 221 246 233.5 c 0,34,35
 274 246 274 246 305 246 c 0,36,37
 356 246 356 246 387.5 216 c 0,38,39
 419 186 419 186 419 126 c 0,16,17
EndSplineSet
EndChar

StartChar: quotedbl
Encoding: 5 34 5
Width: 900
Flags: W
LayerCount: 2
Fore
SplineSet
695 834 m 0,0,1
 687 830 687 830 674 826 c 0,2,3
 661 822 661 822 646 819 c 0,4,5
 631 816 631 816 616 814.5 c 0,6,7
 601 813 601 813 589 813 c 0,8,-1
 526 1416 l 0,9,10
 537 1422 537 1422 562 1432 c 0,11,12
 587 1442 587 1442 614.5 1452 c 0,13,14
 642 1462 642 1462 667 1470 c 0,15,16
 692 1478 692 1478 703 1480 c 0,17,-1
 748 1457 l 0,18,-1
 695 834 l 0,0,1
322 834 m 0,19,20
 314 830 314 830 301 826 c 0,21,22
 288 822 288 822 273 819 c 0,23,24
 258 816 258 816 243 814.5 c 0,25,26
 228 813 228 813 216 813 c 0,27,-1
 153 1416 l 0,28,29
 164 1422 164 1422 189 1432 c 0,30,31
 214 1442 214 1442 241.5 1452 c 0,32,33
 269 1462 269 1462 293.5 1470 c 0,34,35
 318 1478 318 1478 329 1480 c 0,36,-1
 375 1457 l 0,37,-1
 322 834 l 0,19,20
EndSplineSet
EndChar

StartChar: numbersign
Encoding: 6 35 6
Width: 986
Flags: W
LayerCount: 2
Fore
SplineSet
414 595 m 0,0,-1
 597 595 l 0,1,-1
 668 841 l 0,2,-1
 484 841 l 0,3,-1
 414 595 l 0,0,-1
825 966 m 0,4,-1
 977 966 l 0,5,-1
 1002 941 l 0,6,7
 1000 930 1000 930 995.5 916 c 0,8,9
 991 902 991 902 985.5 888 c 0,10,11
 980 874 980 874 975 861.5 c 0,12,13
 970 849 970 849 966 841 c 0,14,-1
 789 841 l 0,15,-1
 719 595 l 0,16,-1
 871 595 l 0,17,-1
 893 568 l 0,18,19
 891 558 891 558 887 545 c 0,20,21
 883 532 883 532 878 518 c 0,22,23
 873 504 873 504 868.5 491.5 c 0,24,25
 864 479 864 479 860 470 c 0,26,-1
 683 470 l 0,27,-1
 598 170 l 0,28,29
 580 156 580 156 551 146 c 0,30,31
 522 136 522 136 496 127 c 0,32,-1
 470 147 l 0,33,-1
 562 470 l 0,34,-1
 378 470 l 0,35,-1
 292 170 l 0,36,37
 274 156 274 156 246 146 c 0,38,39
 218 136 218 136 192 127 c 0,40,-1
 166 147 l 0,41,-1
 258 470 l 0,42,-1
 104 470 l 0,43,-1
 82 495 l 0,44,45
 84 505 84 505 88 518 c 0,46,47
 92 531 92 531 97 544 c 0,48,-1
 107 571 l 0,49,50
 112 585 112 585 117 595 c 0,51,-1
 293 595 l 0,52,-1
 364 841 l 0,53,-1
 213 841 l 0,54,-1
 188 865 l 0,55,56
 193 887 193 887 204.5 916.5 c 0,57,58
 216 946 216 946 224 966 c 0,59,-1
 399 966 l 0,60,-1
 481 1251 l 0,61,62
 503 1267 503 1267 530 1275 c 0,63,64
 557 1283 557 1283 579 1292 c 0,65,-1
 608 1270 l 0,66,-1
 520 966 l 0,67,-1
 703 966 l 0,68,-1
 785 1251 l 0,69,70
 807 1267 807 1267 834.5 1275 c 0,71,72
 862 1283 862 1283 885 1292 c 0,73,-1
 912 1270 l 0,74,-1
 825 966 l 0,4,-1
EndSplineSet
EndChar

StartChar: dollar
Encoding: 7 36 7
Width: 986
Flags: W
LayerCount: 2
Fore
SplineSet
540 -138 m 0,0,1
 522 -154 522 -154 508 -161 c 0,2,3
 494 -168 494 -168 469 -174 c 0,4,-1
 440 -150 l 0,5,-1
 440 -10 l 0,6,7
 348 -8 348 -8 266.5 18.5 c 0,8,9
 185 45 185 45 97 101 c 0,10,11
 90 106 90 106 87 137 c 0,12,13
 84 168 84 168 84.5 209 c 0,14,15
 85 250 85 250 88.5 292.5 c 0,16,17
 92 335 92 335 100 363 c 0,18,-1
 153 359 l 0,19,20
 201 256 201 256 273.5 197 c 0,21,22
 346 138 346 138 440 124 c 0,23,-1
 440 585 l 0,24,25
 377 608 377 608 314.5 633.5 c 0,26,27
 252 659 252 659 203 695 c 0,28,29
 154 731 154 731 123.5 782.5 c 0,30,31
 93 834 93 834 93 909 c 0,32,33
 93 952 93 952 110 1000.5 c 0,34,35
 127 1049 127 1049 167.5 1092 c 0,36,37
 208 1135 208 1135 274.5 1167.5 c 0,38,39
 341 1200 341 1200 440 1210 c 0,40,-1
 440 1351 l 0,41,42
 454 1359 454 1359 461.5 1364 c 0,43,44
 469 1369 469 1369 475 1372 c 0,45,46
 481 1375 481 1375 488.5 1377.5 c 0,47,48
 496 1380 496 1380 511 1384 c 0,49,-1
 540 1360 l 0,50,-1
 540 1214 l 0,51,52
 588 1212 588 1212 634.5 1204.5 c 0,53,54
 681 1197 681 1197 721 1184 c 0,55,56
 761 1171 761 1171 793 1154.5 c 0,57,58
 825 1138 825 1138 844 1119 c 0,59,60
 850 1112 850 1112 842.5 1089.5 c 0,61,62
 835 1067 835 1067 821 1040.5 c 0,63,64
 807 1014 807 1014 790 989.5 c 0,65,66
 773 965 773 965 760 953 c 0,67,-1
 711 961 l 0,68,69
 635 1068 635 1068 540 1097 c 0,70,-1
 540 731 l 0,71,72
 604 707 604 707 667 679 c 0,73,74
 730 651 730 651 780 610 c 0,75,76
 830 569 830 569 861 512.5 c 0,77,78
 892 456 892 456 892 375 c 0,79,80
 892 315 892 315 870.5 253.5 c 0,81,82
 849 192 849 192 805.5 139.5 c 0,83,84
 762 87 762 87 696 48.5 c 0,85,86
 630 10 630 10 540 -3 c 0,87,-1
 540 -138 l 0,0,1
732 322 m 0,88,89
 732 366 732 366 717 400 c 0,90,91
 702 434 702 434 676 461 c 0,92,93
 650 488 650 488 615 508.5 c 0,94,95
 580 529 580 529 540 546 c 0,96,-1
 540 122 l 0,97,98
 577 128 577 128 612 144 c 0,99,100
 647 160 647 160 673.5 185.5 c 0,101,102
 700 211 700 211 716 245.5 c 0,103,104
 732 280 732 280 732 322 c 0,88,89
245 956 m 0,105,106
 245 920 245 920 260 892.5 c 0,107,108
 275 865 275 865 301.5 843 c 0,109,110
 328 821 328 821 363.5 803 c 0,111,112
 399 785 399 785 440 769 c 0,113,-1
 440 1108 l 0,114,115
 387 1105 387 1105 350 1091 c 0,116,117
 313 1077 313 1077 290 1056 c 0,118,119
 267 1035 267 1035 256 1009 c 0,120,121
 245 983 245 983 245 956 c 0,105,106
EndSplineSet
EndChar

StartChar: percent
Encoding: 8 37 8
Width: 1439
Flags: W
LayerCount: 2
Fore
SplineSet
656 897 m 0,0,1
 656 828 656 828 632 766.5 c 0,2,3
 608 705 608 705 566.5 658.5 c 0,4,5
 525 612 525 612 469 585 c 0,6,7
 413 558 413 558 350 558 c 0,8,9
 287 558 287 558 235 585 c 0,10,11
 183 612 183 612 146.5 658.5 c 0,12,13
 110 705 110 705 89.5 766.5 c 0,14,15
 69 828 69 828 69 897 c 0,16,17
 69 966 69 966 92.5 1027.5 c 0,18,19
 116 1089 116 1089 157.5 1135 c 0,20,21
 199 1181 199 1181 254.5 1208 c 0,22,23
 310 1235 310 1235 373 1235 c 0,24,25
 437 1235 437 1235 489.5 1208.5 c 0,26,27
 542 1182 542 1182 579 1136 c 0,28,29
 616 1090 616 1090 636 1028.5 c 0,30,31
 656 967 656 967 656 897 c 0,0,1
491 877 m 0,32,33
 491 949 491 949 479.5 1001.5 c 0,34,35
 468 1054 468 1054 448.5 1088.5 c 0,36,37
 429 1123 429 1123 403.5 1139.5 c 0,38,39
 378 1156 378 1156 350 1156 c 0,40,41
 327 1156 327 1156 306 1142 c 0,42,43
 285 1128 285 1128 269 1099 c 0,44,45
 253 1070 253 1070 243.5 1025.5 c 0,46,47
 234 981 234 981 234 920 c 0,48,49
 234 774 234 774 272 705.5 c 0,50,51
 310 637 310 637 373 637 c 0,52,53
 424 637 424 637 457.5 696 c 0,54,55
 491 755 491 755 491 877 c 0,32,33
363 14 m 0,56,57
 354 7 354 7 335.5 0.5 c 0,58,59
 317 -6 317 -6 296.5 -12.5 c 0,60,61
 276 -19 276 -19 256.5 -24 c 0,62,63
 237 -29 237 -29 224 -33 c 0,64,-1
 200 1 l 0,65,-1
 1075 1192 l 0,66,67
 1088 1199 1088 1199 1105.5 1205.5 c 0,68,69
 1123 1212 1123 1212 1142 1218 c 0,70,71
 1161 1224 1161 1224 1179.5 1229 c 0,72,73
 1198 1234 1198 1234 1212 1237 c 0,74,-1
 1240 1205 l 0,75,-1
 363 14 l 0,56,57
1371 309 m 0,76,77
 1371 240 1371 240 1347 178.5 c 0,78,79
 1323 117 1323 117 1281.5 70.5 c 0,80,81
 1240 24 1240 24 1184.5 -3 c 0,82,83
 1129 -30 1129 -30 1066 -30 c 0,84,85
 1003 -30 1003 -30 951.5 -3 c 0,86,87
 900 24 900 24 863 70.5 c 0,88,89
 826 117 826 117 805.5 178.5 c 0,90,91
 785 240 785 240 785 309 c 0,92,93
 785 379 785 379 809 440.5 c 0,94,95
 833 502 833 502 874 548 c 0,96,97
 915 594 915 594 971 621 c 0,98,99
 1027 648 1027 648 1090 648 c 0,100,101
 1154 648 1154 648 1206 621.5 c 0,102,103
 1258 595 1258 595 1295 549 c 0,104,105
 1332 503 1332 503 1351.5 441 c 0,106,107
 1371 379 1371 379 1371 309 c 0,76,77
1207 289 m 0,108,109
 1207 361 1207 361 1195.5 413.5 c 0,110,111
 1184 466 1184 466 1165 500.5 c 0,112,113
 1146 535 1146 535 1120 552 c 0,114,115
 1094 569 1094 569 1066 569 c 0,116,117
 1043 569 1043 569 1022 555 c 0,118,119
 1001 541 1001 541 985.5 511.5 c 0,120,121
 970 482 970 482 960.5 437.5 c 0,122,123
 951 393 951 393 951 332 c 0,124,125
 951 186 951 186 989 117.5 c 0,126,127
 1027 49 1027 49 1090 49 c 0,128,129
 1141 49 1141 49 1174 108 c 0,130,131
 1207 167 1207 167 1207 289 c 0,108,109
EndSplineSet
EndChar

StartChar: ampersand
Encoding: 9 38 9
Width: 1384
Flags: W
LayerCount: 2
Fore
SplineSet
1369 748 m 0,0,1
 1344 717 1344 717 1317 690.5 c 0,2,3
 1290 664 1290 664 1265 647 c 0,4,5
 1247 656 1247 656 1224.5 663.5 c 0,6,7
 1202 671 1202 671 1179.5 676.5 c 0,8,9
 1157 682 1157 682 1136 685.5 c 0,10,11
 1115 689 1115 689 1098 690 c 0,12,13
 1108 673 1108 673 1114.5 658 c 0,14,15
 1121 643 1121 643 1125 626 c 0,16,17
 1129 609 1129 609 1130 589 c 0,18,19
 1131 569 1131 569 1131 543 c 0,20,21
 1131 474 1131 474 1100 396 c 0,22,23
 1069 318 1069 318 1013 244 c 0,24,25
 1042 216 1042 216 1070 191.5 c 0,26,27
 1098 167 1098 167 1124 147 c 0,28,29
 1167 111 1167 111 1214.5 100.5 c 0,30,31
 1262 90 1262 90 1318 103 c 0,32,-1
 1329 50 l 0,33,34
 1286 31 1286 31 1245.5 16 c 0,35,36
 1205 1 1205 1 1171.5 -9 c 0,37,38
 1138 -19 1138 -19 1114 -24.5 c 0,39,40
 1090 -30 1090 -30 1079 -30 c 0,41,42
 1056 -30 1056 -30 1002.5 6.5 c 0,43,44
 949 43 949 43 879 107 c 0,45,46
 800 45 800 45 704.5 7.5 c 0,47,48
 609 -30 609 -30 503 -30 c 0,49,50
 406 -30 406 -30 327 -5.5 c 0,51,52
 248 19 248 19 192 67 c 0,53,54
 136 115 136 115 105.5 186.5 c 0,55,56
 75 258 75 258 75 352 c 0,57,58
 75 462 75 462 149 574 c 0,59,60
 223 686 223 686 368 791 c 0,61,62
 337 864 337 864 319.5 934.5 c 0,63,64
 302 1005 302 1005 302 1073 c 0,65,66
 302 1154 302 1154 330.5 1223 c 0,67,68
 359 1292 359 1292 406.5 1342.5 c 0,69,70
 454 1393 454 1393 517 1421.5 c 0,71,72
 580 1450 580 1450 649 1450 c 0,73,74
 716 1450 716 1450 763.5 1429.5 c 0,75,76
 811 1409 811 1409 840 1375 c 0,77,78
 869 1341 869 1341 882.5 1296.5 c 0,79,80
 896 1252 896 1252 896 1204 c 0,81,82
 896 1152 896 1152 876 1101 c 0,83,84
 856 1050 856 1050 820 1002.5 c 0,85,86
 784 955 784 955 734.5 912 c 0,87,88
 685 869 685 869 626 832 c 0,89,-1
 569 795 l 0,90,91
 604 732 604 732 646.5 669.5 c 0,92,93
 689 607 689 607 736.5 547 c 0,94,95
 784 487 784 487 833.5 430 c 0,96,97
 883 373 883 373 933 322 c 0,98,99
 961 367 961 367 975.5 413.5 c 0,100,101
 990 460 990 460 990 502 c 0,102,103
 990 544 990 544 976.5 580 c 0,104,105
 963 616 963 616 940.5 642 c 0,106,107
 918 668 918 668 889.5 683 c 0,108,109
 861 698 861 698 832 698 c 0,110,-1
 808 728 l 0,111,112
 813 734 813 734 822.5 743 c 0,113,114
 832 752 832 752 843 760.5 c 0,115,116
 854 769 854 769 865.5 776 c 0,117,118
 877 783 877 783 887 787 c 0,119,-1
 1343 787 l 0,120,-1
 1369 748 l 0,0,1
543 94 m 0,121,122
 618 94 618 94 683.5 117.5 c 0,123,124
 749 141 749 141 803 180 c 0,125,126
 753 230 753 230 701.5 288 c 0,127,128
 650 346 650 346 600.5 410 c 0,129,130
 551 474 551 474 505.5 542.5 c 0,131,132
 460 611 460 611 422 681 c 0,133,134
 379 641 379 641 350 603 c 0,135,136
 321 565 321 565 303 527.5 c 0,137,138
 285 490 285 490 277.5 451.5 c 0,139,140
 270 413 270 413 270 373 c 0,141,142
 270 303 270 303 293.5 250.5 c 0,143,144
 317 198 317 198 355 163.5 c 0,145,146
 393 129 393 129 442.5 111.5 c 0,147,148
 492 94 492 94 543 94 c 0,121,122
462 1130 m 0,149,150
 462 1073 462 1073 478 1012.5 c 0,151,152
 494 952 494 952 523 888 c 0,153,154
 584 923 584 923 623 959.5 c 0,155,156
 662 996 662 996 684.5 1032 c 0,157,158
 707 1068 707 1068 715.5 1103 c 0,159,160
 724 1138 724 1138 724 1171 c 0,161,162
 724 1206 724 1206 715 1236 c 0,163,164
 706 1266 706 1266 689.5 1288.5 c 0,165,166
 673 1311 673 1311 648.5 1323.5 c 0,167,168
 624 1336 624 1336 593 1336 c 0,169,170
 560 1336 560 1336 535.5 1318.5 c 0,171,172
 511 1301 511 1301 494.5 1272.5 c 0,173,174
 478 1244 478 1244 470 1206.5 c 0,175,176
 462 1169 462 1169 462 1130 c 0,149,150
EndSplineSet
EndChar

StartChar: quotesingle
Encoding: 10 39 10
Width: 527
Flags: W
LayerCount: 2
Fore
SplineSet
322 834 m 0,0,1
 314 830 314 830 301 826 c 0,2,3
 288 822 288 822 273 819 c 0,4,5
 258 816 258 816 243 814.5 c 0,6,7
 228 813 228 813 216 813 c 0,8,-1
 153 1416 l 0,9,10
 164 1422 164 1422 189 1432 c 0,11,12
 214 1442 214 1442 241.5 1452 c 0,13,14
 269 1462 269 1462 293.5 1470 c 0,15,16
 318 1478 318 1478 329 1480 c 0,17,-1
 375 1457 l 0,18,-1
 322 834 l 0,0,1
EndSplineSet
EndChar

StartChar: parenleft
Encoding: 11 40 11
Width: 659
Flags: W
LayerCount: 2
Fore
SplineSet
586 -315 m 0,0,1
 469 -258 469 -258 381 -164 c 0,2,3
 293 -70 293 -70 234 52 c 0,4,5
 175 174 175 174 145.5 319 c 0,6,7
 116 464 116 464 116 623 c 0,8,9
 116 787 116 787 149.5 938.5 c 0,10,11
 183 1090 183 1090 244.5 1217.5 c 0,12,13
 306 1345 306 1345 392.5 1443.5 c 0,14,15
 479 1542 479 1542 586 1600 c 0,16,-1
 625 1545 l 0,17,18
 562 1489 562 1489 505.5 1402.5 c 0,19,20
 449 1316 449 1316 407 1202.5 c 0,21,22
 365 1089 365 1089 340.5 950 c 0,23,24
 316 811 316 811 316 651 c 0,25,26
 316 505 316 505 336.5 369 c 0,27,28
 357 233 357 233 396 114.5 c 0,29,30
 435 -4 435 -4 492.5 -99.5 c 0,31,32
 550 -195 550 -195 625 -260 c 0,33,-1
 586 -315 l 0,0,1
EndSplineSet
EndChar

StartChar: parenright
Encoding: 12 41 12
Width: 659
Flags: W
LayerCount: 2
Fore
SplineSet
545 663 m 0,0,1
 545 499 545 499 511.5 347.5 c 0,2,3
 478 196 478 196 416.5 68 c 0,4,5
 355 -60 355 -60 268 -158.5 c 0,6,7
 181 -257 181 -257 75 -315 c 0,8,-1
 36 -260 l 0,9,10
 99 -204 99 -204 155 -117 c 0,11,12
 211 -30 211 -30 253.5 83.5 c 0,13,14
 296 197 296 197 320.5 335.5 c 0,15,16
 345 474 345 474 345 635 c 0,17,18
 345 780 345 780 325 916.5 c 0,19,20
 305 1053 305 1053 265.5 1171 c 0,21,22
 226 1289 226 1289 168.5 1385 c 0,23,24
 111 1481 111 1481 36 1545 c 0,25,-1
 75 1600 l 0,26,27
 192 1544 192 1544 280 1450 c 0,28,29
 368 1356 368 1356 427 1234 c 0,30,31
 486 1112 486 1112 515.5 967 c 0,32,33
 545 822 545 822 545 663 c 0,0,1
EndSplineSet
EndChar

StartChar: asterisk
Encoding: 13 42 13
Width: 912
Flags: W
LayerCount: 2
Fore
SplineSet
493 1199 m 0,0,-1
 739 1391 l 0,1,2
 749 1384 749 1384 764.5 1374 c 0,3,4
 780 1364 780 1364 795.5 1352.5 c 0,5,6
 811 1341 811 1341 825 1330 c 0,7,8
 839 1319 839 1319 847 1311 c 0,9,-1
 845 1265 l 0,10,-1
 531 1135 l 0,11,-1
 821 1017 l 0,12,13
 820 1005 820 1005 819 987 c 0,14,15
 818 969 818 969 815.5 949.5 c 0,16,17
 813 930 813 930 810.5 912.5 c 0,18,19
 808 895 808 895 804 884 c 0,20,-1
 762 862 l 0,21,-1
 495 1069 l 0,22,-1
 537 761 l 0,23,24
 526 755 526 755 510 746.5 c 0,25,26
 494 738 494 738 476.5 730.5 c 0,27,28
 459 723 459 723 442.5 717 c 0,29,30
 426 711 426 711 415 709 c 0,31,-1
 374 732 l 0,32,-1
 420 1069 l 0,33,-1
 174 877 l 0,34,35
 163 884 163 884 147.5 894.5 c 0,36,37
 132 905 132 905 116.5 916 c 0,38,39
 101 927 101 927 87.5 938 c 0,40,41
 74 949 74 949 67 957 c 0,42,-1
 68 1004 l 0,43,-1
 383 1133 l 0,44,-1
 92 1251 l 0,45,46
 93 1263 93 1263 94 1281.5 c 0,47,48
 95 1300 95 1300 97 1319 c 0,49,50
 99 1338 99 1338 102 1355.5 c 0,51,52
 105 1373 105 1373 108 1383 c 0,53,-1
 149 1405 l 0,54,-1
 418 1198 l 0,55,-1
 375 1508 l 0,56,57
 386 1514 386 1514 402.5 1522 c 0,58,59
 419 1530 419 1530 437 1537.5 c 0,60,61
 455 1545 455 1545 472 1551.5 c 0,62,63
 489 1558 489 1558 500 1561 c 0,64,-1
 538 1535 l 0,65,-1
 493 1199 l 0,0,-1
EndSplineSet
EndChar

StartChar: plus
Encoding: 14 43 14
Width: 848
Flags: W
LayerCount: 2
Fore
SplineSet
487 232 m 0,0,1
 467 222 467 222 439 213 c 0,2,3
 411 204 411 204 389 199 c 0,4,-1
 362 223 l 0,5,-1
 362 502 l 0,6,-1
 86 502 l 0,7,-1
 58 528 l 0,8,9
 63 549 63 549 74 576 c 0,10,11
 85 603 85 603 94 623 c 0,12,-1
 362 623 l 0,13,-1
 362 895 l 0,14,15
 381 901 381 901 409.5 911 c 0,16,17
 438 921 438 921 460 926 c 0,18,-1
 487 901 l 0,19,-1
 487 623 l 0,20,-1
 762 623 l 0,21,-1
 789 596 l 0,22,23
 786 586 786 586 781.5 573 c 0,24,25
 777 560 777 560 772 547 c 0,26,27
 767 534 767 534 762 522 c 0,28,29
 757 510 757 510 753 502 c 0,30,-1
 487 502 l 0,31,-1
 487 232 l 0,0,1
EndSplineSet
EndChar

StartChar: comma
Encoding: 15 44 15
Width: 497
Flags: W
LayerCount: 2
Fore
SplineSet
420 70 m 0,0,1
 420 26 420 26 402 -27.5 c 0,2,3
 384 -81 384 -81 351.5 -135 c 0,4,5
 319 -189 319 -189 274 -240 c 0,6,7
 229 -291 229 -291 174 -330 c 0,8,-1
 121 -290 l 0,9,10
 149 -258 149 -258 169.5 -226.5 c 0,11,12
 190 -195 190 -195 203.5 -162 c 0,13,14
 217 -129 217 -129 224 -92.5 c 0,15,16
 231 -56 231 -56 231 -13 c 0,17,18
 231 32 231 32 199.5 61.5 c 0,19,20
 168 91 168 91 104 87 c 0,21,-1
 88 144 l 0,22,23
 97 156 97 156 128.5 172.5 c 0,24,25
 160 189 160 189 199 204 c 0,26,27
 238 219 238 219 276 229.5 c 0,28,29
 314 240 314 240 334 239 c 0,30,31
 382 216 382 216 401 175 c 0,32,33
 420 134 420 134 420 70 c 0,0,1
EndSplineSet
EndChar

StartChar: hyphen
Encoding: 16 45 16
Width: 703
Flags: W
LayerCount: 2
Fore
SplineSet
88 416 m 1,0,-1
 88 567 l 1,1,-1
 561 567 l 1,2,-1
 561 416 l 1,3,-1
 88 416 l 1,0,-1
EndSplineSet
Refer: 356 727 N 1 0 0 1 0 0 2
EndChar

StartChar: period
Encoding: 17 46 17
Width: 497
Flags: W
LayerCount: 2
Fore
SplineSet
399 126 m 0,0,1
 399 90 399 90 387 59.5 c 0,2,3
 375 29 375 29 354.5 7 c 0,4,5
 334 -15 334 -15 306 -27.5 c 0,6,7
 278 -40 278 -40 246 -40 c 0,8,9
 191 -40 191 -40 161 -10 c 0,10,11
 131 20 131 20 131 80 c 0,12,13
 131 116 131 116 143.5 146 c 0,14,15
 156 176 156 176 177 198.5 c 0,16,17
 198 221 198 221 226 233.5 c 0,18,19
 254 246 254 246 285 246 c 0,20,21
 337 246 337 246 368 216 c 0,22,23
 399 186 399 186 399 126 c 0,0,1
EndSplineSet
EndChar

StartChar: slash
Encoding: 18 47 18
Width: 966
Flags: W
LayerCount: 2
Fore
SplineSet
221 -282 m 0,0,1
 211 -289 211 -289 193 -296.5 c 0,2,3
 175 -304 175 -304 155 -311.5 c 0,4,5
 135 -319 135 -319 115.5 -325 c 0,6,7
 96 -331 96 -331 84 -335 c 0,8,-1
 44 -308 l 0,9,-1
 745 1549 l 0,10,11
 758 1558 758 1558 775.5 1565.5 c 0,12,13
 793 1573 793 1573 811.5 1579.5 c 0,14,15
 830 1586 830 1586 848 1591 c 0,16,17
 866 1596 866 1596 880 1600 c 0,18,-1
 919 1576 l 0,19,-1
 221 -282 l 0,0,1
EndSplineSet
EndChar

StartChar: zero
Encoding: 19 48 19
Width: 986
Flags: W
LayerCount: 2
Fore
SplineSet
915 602 m 0,0,1
 915 473 915 473 883 358 c 0,2,3
 851 243 851 243 793.5 157 c 0,4,5
 736 71 736 71 655 20.5 c 0,6,7
 574 -30 574 -30 476 -30 c 0,8,9
 378 -30 378 -30 302.5 20.5 c 0,10,11
 227 71 227 71 175.5 157 c 0,12,13
 124 243 124 243 97.5 358 c 0,14,15
 71 473 71 473 71 602 c 0,16,17
 71 731 71 731 102.5 846 c 0,18,19
 134 961 134 961 191.5 1047.5 c 0,20,21
 249 1134 249 1134 330 1184.5 c 0,22,23
 411 1235 411 1235 510 1235 c 0,24,25
 609 1235 609 1235 684.5 1185 c 0,26,27
 760 1135 760 1135 811.5 1049 c 0,28,29
 863 963 863 963 889 847.5 c 0,30,31
 915 732 915 732 915 602 c 0,0,1
719 565 m 0,32,33
 719 702 719 702 699.5 805 c 0,34,35
 680 908 680 908 646.5 977 c 0,36,37
 613 1046 613 1046 569 1080.5 c 0,38,39
 525 1115 525 1115 476 1115 c 0,40,41
 426 1115 426 1115 387.5 1088.5 c 0,42,43
 349 1062 349 1062 322.5 1005 c 0,44,45
 296 948 296 948 282 859 c 0,46,47
 268 770 268 770 268 645 c 0,48,49
 268 508 268 508 285.5 404 c 0,50,51
 303 300 303 300 335 230 c 0,52,53
 367 160 367 160 411.5 125 c 0,54,55
 456 90 456 90 510 90 c 0,56,57
 560 90 560 90 599 116.5 c 0,58,59
 638 143 638 143 664.5 200.5 c 0,60,61
 691 258 691 258 705 348 c 0,62,63
 719 438 719 438 719 565 c 0,32,33
EndSplineSet
EndChar

StartChar: one
Encoding: 20 49 20
Width: 986
Flags: W
LayerCount: 2
Fore
SplineSet
165 0 m 0,0,-1
 165 63 l 0,1,2
 243 72 243 72 295 83.5 c 0,3,4
 347 95 347 95 378 107 c 0,5,6
 409 119 409 119 422 130.5 c 0,7,8
 435 142 435 142 435 153 c 0,9,-1
 435 930 l 0,10,11
 435 970 435 970 432 992 c 0,12,13
 429 1014 429 1014 417 1028 c 0,14,15
 411 1034 411 1034 394.5 1038 c 0,16,17
 378 1042 378 1042 347.5 1041 c 0,18,19
 317 1040 317 1040 270.5 1034 c 0,20,21
 224 1028 224 1028 158 1014 c 0,22,-1
 134 1075 l 0,23,24
 176 1086 176 1086 237.5 1107 c 0,25,26
 299 1128 299 1128 363 1153 c 0,27,28
 427 1178 427 1178 484.5 1202.5 c 0,29,30
 542 1227 542 1227 576 1245 c 0,31,-1
 615 1208 l 0,32,-1
 615 153 l 0,33,34
 615 143 615 143 626 131.5 c 0,35,36
 637 120 637 120 665 108 c 0,37,38
 693 96 693 96 741.5 84 c 0,39,40
 790 72 790 72 865 63 c 0,41,-1
 865 0 l 0,42,-1
 165 0 l 0,0,-1
EndSplineSet
EndChar

StartChar: two
Encoding: 21 50 21
Width: 986
Flags: W
LayerCount: 2
Fore
SplineSet
851 0 m 0,0,-1
 122 0 l 0,1,-1
 93 74 l 0,2,3
 211 211 211 211 299.5 317.5 c 0,4,5
 388 424 388 424 451.5 506 c 0,6,7
 515 588 515 588 556.5 649.5 c 0,8,9
 598 711 598 711 622.5 759.5 c 0,10,11
 647 808 647 808 656.5 847.5 c 0,12,13
 666 887 666 887 666 924 c 0,14,15
 666 969 666 969 655.5 1008 c 0,16,17
 645 1047 645 1047 622.5 1076 c 0,18,19
 600 1105 600 1105 565 1121.5 c 0,20,21
 530 1138 530 1138 480 1138 c 0,22,23
 439 1138 439 1138 406 1119 c 0,24,25
 373 1100 373 1100 350.5 1069.5 c 0,26,27
 328 1039 328 1039 317 1002 c 0,28,29
 306 965 306 965 308 929 c 0,30,31
 274 910 274 910 235 895 c 0,32,33
 196 880 196 880 150 875 c 0,34,-1
 120 918 l 0,35,36
 120 970 120 970 156 1026 c 0,37,38
 192 1082 192 1082 251.5 1128.5 c 0,39,40
 311 1175 311 1175 388 1205 c 0,41,42
 465 1235 465 1235 548 1235 c 0,43,44
 614 1235 614 1235 670 1218.5 c 0,45,46
 726 1202 726 1202 766.5 1168 c 0,47,48
 807 1134 807 1134 830 1083 c 0,49,50
 853 1032 853 1032 853 962 c 0,51,52
 853 917 853 917 840.5 872 c 0,53,54
 828 827 828 827 800 775.5 c 0,55,56
 772 724 772 724 728.5 663 c 0,57,58
 685 602 685 602 622.5 525.5 c 0,59,60
 560 449 560 449 478 353.5 c 0,61,62
 396 258 396 258 292 139 c 0,63,-1
 704 139 l 0,64,65
 721 139 721 139 734.5 147 c 0,66,67
 748 155 748 155 758.5 168 c 0,68,69
 769 181 769 181 776.5 197.5 c 0,70,71
 784 214 784 214 789 231 c 0,72,73
 801 271 801 271 806 324 c 0,74,-1
 866 310 l 0,75,-1
 851 0 l 0,0,-1
EndSplineSet
EndChar

StartChar: three
Encoding: 22 51 22
Width: 986
Flags: W
LayerCount: 2
Fore
SplineSet
855 381 m 0,0,1
 855 297 855 297 826 222 c 0,2,3
 797 147 797 147 742 91 c 0,4,5
 687 35 687 35 607 2.5 c 0,6,7
 527 -30 527 -30 424 -30 c 0,8,9
 385 -30 385 -30 341.5 -22 c 0,10,11
 298 -14 298 -14 253 4 c 0,12,13
 208 22 208 22 162 51.5 c 0,14,15
 116 81 116 81 71 124 c 0,16,-1
 107 201 l 0,17,18
 152 167 152 167 190.5 144.5 c 0,19,20
 229 122 229 122 264.5 108.5 c 0,21,22
 300 95 300 95 334 89 c 0,23,24
 368 83 368 83 406 83 c 0,25,26
 462 83 462 83 509.5 101 c 0,27,28
 557 119 557 119 591 153.5 c 0,29,30
 625 188 625 188 644 237.5 c 0,31,32
 663 287 663 287 663 351 c 0,33,34
 663 424 663 424 640 474.5 c 0,35,36
 617 525 617 525 582 556.5 c 0,37,38
 547 588 547 588 503.5 602 c 0,39,40
 460 616 460 616 420 616 c 0,41,-1
 398 616 l 0,42,43
 391 616 391 616 385 615 c 0,44,45
 379 614 379 614 370.5 613 c 0,46,47
 362 612 362 612 347 609 c 0,48,-1
 332 679 l 0,49,50
 422 703 422 703 476 735.5 c 0,51,52
 530 768 530 768 559 803 c 0,53,54
 588 838 588 838 597 873.5 c 0,55,56
 606 909 606 909 606 940 c 0,57,58
 606 974 606 974 596.5 1009.5 c 0,59,60
 587 1045 587 1045 566.5 1073.5 c 0,61,62
 546 1102 546 1102 514.5 1120 c 0,63,64
 483 1138 483 1138 439 1138 c 0,65,66
 403 1138 403 1138 374.5 1124 c 0,67,68
 346 1110 346 1110 327 1087 c 0,69,70
 308 1064 308 1064 300.5 1033 c 0,71,72
 293 1002 293 1002 300 968 c 0,73,74
 264 948 264 948 222.5 935.5 c 0,75,76
 181 923 181 923 134 919 c 0,77,-1
 104 960 l 0,78,79
 104 1002 104 1002 134.5 1050 c 0,80,81
 165 1098 165 1098 218.5 1139.5 c 0,82,83
 272 1181 272 1181 343.5 1208 c 0,84,85
 415 1235 415 1235 496 1235 c 0,86,87
 576 1235 576 1235 633.5 1211 c 0,88,89
 691 1187 691 1187 727.5 1147.5 c 0,90,91
 764 1108 764 1108 781 1058.5 c 0,92,93
 798 1009 798 1009 798 958 c 0,94,95
 798 920 798 920 783 882.5 c 0,96,97
 768 845 768 845 740 810.5 c 0,98,99
 712 776 712 776 673 747 c 0,100,101
 634 718 634 718 585 698 c 0,102,103
 643 691 643 691 692.5 663.5 c 0,104,105
 742 636 742 636 778 593.5 c 0,106,107
 814 551 814 551 834.5 496.5 c 0,108,109
 855 442 855 442 855 381 c 0,0,1
EndSplineSet
EndChar

StartChar: four
Encoding: 23 52 23
Width: 986
Flags: W
LayerCount: 2
Fore
SplineSet
902 435 m 0,0,1
 881 403 881 403 859.5 382.5 c 0,2,3
 838 362 838 362 815 345 c 0,4,-1
 750 345 l 0,5,-1
 750 114 l 0,6,7
 750 106 750 106 756 99.5 c 0,8,9
 762 93 762 93 778 85.5 c 0,10,11
 794 78 794 78 821 70 c 0,12,13
 848 62 848 62 889 53 c 0,14,-1
 889 0 l 0,15,-1
 370 0 l 0,16,-1
 370 53 l 0,17,18
 435 64 435 64 476 73.5 c 0,19,20
 517 83 517 83 540 91.5 c 0,21,22
 563 100 563 100 571.5 108 c 0,23,24
 580 116 580 116 580 125 c 0,25,-1
 580 345 l 0,26,-1
 91 345 l 0,27,-1
 55 381 l 0,28,-1
 546 1172 l 0,29,30
 590 1189 590 1189 633 1209 c 0,31,32
 676 1229 676 1229 711 1245 c 0,33,-1
 750 1208 l 0,34,-1
 750 465 l 0,35,-1
 876 465 l 0,36,-1
 902 435 l 0,0,1
580 1020 m 0,37,-1
 226 465 l 0,38,-1
 580 465 l 0,39,-1
 580 1020 l 0,37,-1
EndSplineSet
EndChar

StartChar: five
Encoding: 24 53 24
Width: 986
Flags: W
LayerCount: 2
Fore
SplineSet
864 410 m 0,0,1
 864 323 864 323 837.5 243.5 c 0,2,3
 811 164 811 164 758.5 103 c 0,4,5
 706 42 706 42 629 6 c 0,6,7
 552 -30 552 -30 450 -30 c 0,8,9
 357 -30 357 -30 261 6 c 0,10,11
 165 42 165 42 78 123 c 0,12,-1
 118 197 l 0,13,14
 171 160 171 160 215.5 137 c 0,15,16
 260 114 260 114 297.5 101.5 c 0,17,18
 335 89 335 89 367 84.5 c 0,19,20
 399 80 399 80 428 80 c 0,21,22
 488 80 488 80 534.5 103.5 c 0,23,24
 581 127 581 127 612.5 166.5 c 0,25,26
 644 206 644 206 660 258 c 0,27,28
 676 310 676 310 676 367 c 0,29,30
 676 435 676 435 659 490 c 0,31,32
 642 545 642 545 609 583.5 c 0,33,34
 576 622 576 622 527 642.5 c 0,35,36
 478 663 478 663 413 663 c 0,37,38
 358 663 358 663 297.5 641.5 c 0,39,40
 237 620 237 620 184 580 c 0,41,-1
 137 613 l 0,42,43
 143 649 143 649 151 697.5 c 0,44,45
 159 746 159 746 167.5 800 c 0,46,47
 176 854 176 854 184.5 910.5 c 0,48,49
 193 967 193 967 200 1021 c 0,50,51
 207 1075 207 1075 212 1122.5 c 0,52,53
 217 1170 217 1170 219 1205 c 0,54,-1
 685 1205 l 0,55,56
 714 1205 714 1205 736 1207.5 c 0,57,58
 758 1210 758 1210 774 1214 c 0,59,60
 792 1218 792 1218 806 1223 c 0,61,-1
 838 1192 l 0,62,63
 827 1176 827 1176 811.5 1156 c 0,64,65
 796 1136 796 1136 779 1117.5 c 0,66,67
 762 1099 762 1099 746 1083 c 0,68,69
 730 1067 730 1067 718 1058 c 0,70,-1
 316 1058 l 0,71,72
 314 1029 314 1029 309.5 986 c 0,73,74
 305 943 305 943 298.5 899 c 0,75,76
 292 855 292 855 285.5 815.5 c 0,77,78
 279 776 279 776 275 754 c 0,79,80
 317 768 317 768 371 776.5 c 0,81,82
 425 785 425 785 481 785 c 0,83,84
 575 785 575 785 646.5 754 c 0,85,86
 718 723 718 723 766.5 671 c 0,87,88
 815 619 815 619 839.5 551 c 0,89,90
 864 483 864 483 864 410 c 0,0,1
EndSplineSet
EndChar

StartChar: six
Encoding: 25 54 25
Width: 986
Flags: W
LayerCount: 2
Fore
SplineSet
911 412 m 0,0,1
 911 365 911 365 900 314 c 0,2,3
 889 263 889 263 867 214 c 0,4,5
 845 165 845 165 812 121 c 0,6,7
 779 77 779 77 736 43.5 c 0,8,9
 693 10 693 10 639 -10 c 0,10,11
 585 -30 585 -30 521 -30 c 0,12,13
 435 -30 435 -30 359 6.5 c 0,14,15
 283 43 283 43 226.5 109 c 0,16,17
 170 175 170 175 137.5 267.5 c 0,18,19
 105 360 105 360 105 473 c 0,20,21
 105 614 105 614 148 743.5 c 0,22,23
 191 873 191 873 278.5 977 c 0,24,25
 366 1081 366 1081 498 1152 c 0,26,27
 630 1223 630 1223 808 1249 c 0,28,-1
 830 1180 l 0,29,30
 711 1153 711 1153 620.5 1101 c 0,31,32
 530 1049 530 1049 466 980.5 c 0,33,34
 402 912 402 912 363 830 c 0,35,36
 324 748 324 748 309 661 c 0,37,38
 343 692 343 692 378 713.5 c 0,39,40
 413 735 413 735 446 748.5 c 0,41,42
 479 762 479 762 509.5 768.5 c 0,43,44
 540 775 540 775 564 775 c 0,45,46
 646 775 646 775 710.5 749 c 0,47,48
 775 723 775 723 819.5 675.5 c 0,49,50
 864 628 864 628 887.5 561 c 0,51,52
 911 494 911 494 911 412 c 0,0,1
515 655 m 0,53,54
 467 655 467 655 409.5 626 c 0,55,56
 352 597 352 597 298 536 c 0,57,58
 298 418 298 418 316.5 332.5 c 0,59,60
 335 247 335 247 369 191.5 c 0,61,62
 403 136 403 136 450.5 109.5 c 0,63,64
 498 83 498 83 555 83 c 0,65,66
 605 83 605 83 638.5 107 c 0,67,68
 672 131 672 131 692 169.5 c 0,69,70
 712 208 712 208 720.5 255 c 0,71,72
 729 302 729 302 729 348 c 0,73,74
 729 442 729 442 709 501.5 c 0,75,76
 689 561 689 561 657.5 595 c 0,77,78
 626 629 626 629 588 642 c 0,79,80
 550 655 550 655 515 655 c 0,53,54
EndSplineSet
EndChar

StartChar: seven
Encoding: 26 55 26
Width: 986
Flags: W
LayerCount: 2
Fore
SplineSet
910 1167 m 0,0,1
 864 1059 864 1059 818 949.5 c 0,2,3
 772 840 772 840 728 733 c 0,4,5
 684 626 684 626 644 525.5 c 0,6,7
 604 425 604 425 570 336.5 c 0,8,9
 536 248 536 248 509 174 c 0,10,11
 482 100 482 100 465 47 c 0,12,13
 430 22 430 22 381.5 2.5 c 0,14,15
 333 -17 333 -17 283 -30 c 0,16,-1
 239 6 l 0,17,18
 326 159 326 159 394.5 294.5 c 0,19,20
 463 430 463 430 521.5 557.5 c 0,21,22
 580 685 580 685 633 807.5 c 0,23,24
 686 930 686 930 741 1058 c 0,25,-1
 289 1058 l 0,26,27
 274 1058 274 1058 259.5 1056.5 c 0,28,29
 245 1055 245 1055 229 1041.5 c 0,30,31
 213 1028 213 1028 194.5 997 c 0,32,33
 176 966 176 966 155 908 c 0,34,-1
 102 928 l 0,35,36
 105 951 105 951 110.5 989 c 0,37,38
 116 1027 116 1027 122 1067.5 c 0,39,40
 128 1108 128 1108 134.5 1145.5 c 0,41,42
 141 1183 141 1183 147 1205 c 0,43,-1
 877 1205 l 0,44,-1
 910 1167 l 0,0,1
EndSplineSet
EndChar

StartChar: eight
Encoding: 27 56 27
Width: 986
Flags: W
LayerCount: 2
Fore
SplineSet
897 352 m 0,0,1
 897 274 897 274 863 205 c 0,2,3
 829 136 829 136 770.5 83.5 c 0,4,5
 712 31 712 31 633.5 0.5 c 0,6,7
 555 -30 555 -30 466 -30 c 0,8,9
 375 -30 375 -30 304.5 -4 c 0,10,11
 234 22 234 22 186 66 c 0,12,13
 138 110 138 110 113.5 166.5 c 0,14,15
 89 223 89 223 89 285 c 0,16,17
 89 339 89 339 108.5 388.5 c 0,18,19
 128 438 128 438 163 483 c 0,20,21
 198 528 198 528 247.5 567.5 c 0,22,23
 297 607 297 607 357 640 c 0,24,25
 313 661 313 661 274 685 c 0,26,27
 235 709 235 709 205 741 c 0,28,29
 175 773 175 773 157.5 815.5 c 0,30,31
 140 858 140 858 140 915 c 0,32,33
 140 984 140 984 169 1043 c 0,34,35
 198 1102 198 1102 248 1144.5 c 0,36,37
 298 1187 298 1187 366 1211 c 0,38,39
 434 1235 434 1235 512 1235 c 0,40,41
 594 1235 594 1235 656.5 1215 c 0,42,43
 719 1195 719 1195 761.5 1160 c 0,44,45
 804 1125 804 1125 825.5 1076 c 0,46,47
 847 1027 847 1027 847 969 c 0,48,49
 847 928 847 928 831 891 c 0,50,51
 815 854 815 854 787.5 820.5 c 0,52,53
 760 787 760 787 722 755 c 0,54,55
 684 723 684 723 639 693 c 0,56,57
 689 669 689 669 735.5 639 c 0,58,59
 782 609 782 609 818 568.5 c 0,60,61
 854 528 854 528 875.5 475 c 0,62,63
 897 422 897 422 897 352 c 0,0,1
705 309 m 0,64,65
 705 373 705 373 683 418.5 c 0,66,67
 661 464 661 464 624.5 497 c 0,68,69
 588 530 588 530 541 554.5 c 0,70,71
 494 579 494 579 444 601 c 0,72,73
 402 568 402 568 371.5 535.5 c 0,74,75
 341 503 341 503 321 468.5 c 0,76,77
 301 434 301 434 291.5 396.5 c 0,78,79
 282 359 282 359 282 315 c 0,80,81
 282 263 282 263 299 219.5 c 0,82,83
 316 176 316 176 346 144.5 c 0,84,85
 376 113 376 113 418 95.5 c 0,86,87
 460 78 460 78 510 78 c 0,88,89
 561 78 561 78 597.5 98 c 0,90,91
 634 118 634 118 658 150 c 0,92,93
 682 182 682 182 693.5 223.5 c 0,94,95
 705 265 705 265 705 309 c 0,64,65
303 950 m 0,96,97
 303 908 303 908 323 876.5 c 0,98,99
 343 845 343 845 377 820.5 c 0,100,101
 411 796 411 796 455.5 775 c 0,102,103
 500 754 500 754 548 733 c 0,104,105
 611 784 611 784 638 835.5 c 0,106,107
 665 887 665 887 665 938 c 0,108,109
 665 990 665 990 650 1027 c 0,110,111
 635 1064 635 1064 608.5 1088 c 0,112,113
 582 1112 582 1112 545.5 1123 c 0,114,115
 509 1134 509 1134 466 1134 c 0,116,117
 425 1134 425 1134 394.5 1118 c 0,118,119
 364 1102 364 1102 343.5 1076 c 0,120,121
 323 1050 323 1050 313 1017 c 0,122,123
 303 984 303 984 303 950 c 0,96,97
EndSplineSet
EndChar

StartChar: nine
Encoding: 28 57 28
Width: 986
Flags: W
LayerCount: 2
Fore
SplineSet
900 731 m 0,0,1
 900 579 900 579 857 448.5 c 0,2,3
 814 318 814 318 726.5 216.5 c 0,4,5
 639 115 639 115 506.5 48 c 0,6,7
 374 -19 374 -19 195 -43 c 0,8,-1
 175 26 l 0,9,10
 310 60 310 60 406 112 c 0,11,12
 502 164 502 164 564.5 232.5 c 0,13,14
 627 301 627 301 660 384 c 0,15,16
 693 467 693 467 703 562 c 0,17,18
 649 505 649 505 580 471.5 c 0,19,20
 511 438 511 438 441 438 c 0,21,22
 358 438 358 438 293.5 466 c 0,23,24
 229 494 229 494 185 542 c 0,25,26
 141 590 141 590 118 655 c 0,27,28
 95 720 95 720 95 795 c 0,29,30
 95 871 95 871 126 949 c 0,31,32
 157 1027 157 1027 213 1090.5 c 0,33,34
 269 1154 269 1154 346.5 1194.5 c 0,35,36
 424 1235 424 1235 516 1235 c 0,37,38
 593 1235 593 1235 663 1206 c 0,39,40
 733 1177 733 1177 785.5 1115.5 c 0,41,42
 838 1054 838 1054 869 959 c 0,43,44
 900 864 900 864 900 731 c 0,0,1
491 560 m 0,45,46
 556 560 556 560 611 595.5 c 0,47,48
 666 631 666 631 708 686 c 0,49,50
 706 815 706 815 684.5 899.5 c 0,51,52
 663 984 663 984 630 1033.5 c 0,53,54
 597 1083 597 1083 557.5 1103 c 0,55,56
 518 1123 518 1123 480 1123 c 0,57,58
 432 1123 432 1123 394.5 1103.5 c 0,59,60
 357 1084 357 1084 331 1048.5 c 0,61,62
 305 1013 305 1013 291.5 964 c 0,63,64
 278 915 278 915 278 856 c 0,65,66
 278 766 278 766 299 708.5 c 0,67,68
 320 651 320 651 351.5 618 c 0,69,70
 383 585 383 585 420.5 572.5 c 0,71,72
 458 560 458 560 491 560 c 0,45,46
EndSplineSet
EndChar

StartChar: colon
Encoding: 29 58 29
Width: 497
Flags: W
LayerCount: 2
Fore
SplineSet
399 126 m 0,0,1
 399 90 399 90 387 59.5 c 0,2,3
 375 29 375 29 354.5 7 c 0,4,5
 334 -15 334 -15 306 -27.5 c 0,6,7
 278 -40 278 -40 246 -40 c 0,8,9
 191 -40 191 -40 161 -10 c 0,10,11
 131 20 131 20 131 80 c 0,12,13
 131 116 131 116 143.5 146 c 0,14,15
 156 176 156 176 177 198.5 c 0,16,17
 198 221 198 221 226 233.5 c 0,18,19
 254 246 254 246 285 246 c 0,20,21
 337 246 337 246 368 216 c 0,22,23
 399 186 399 186 399 126 c 0,0,1
399 840 m 0,24,25
 399 804 399 804 387 773.5 c 0,26,27
 375 743 375 743 354.5 721 c 0,28,29
 334 699 334 699 306 686.5 c 0,30,31
 278 674 278 674 246 674 c 0,32,33
 191 674 191 674 161 704 c 0,34,35
 131 734 131 734 131 794 c 0,36,37
 131 830 131 830 143.5 860 c 0,38,39
 156 890 156 890 177 912.5 c 0,40,41
 198 935 198 935 226 947.5 c 0,42,43
 254 960 254 960 285 960 c 0,44,45
 337 960 337 960 368 930 c 0,46,47
 399 900 399 900 399 840 c 0,24,25
EndSplineSet
EndChar

StartChar: semicolon
Encoding: 30 59 30
Width: 497
Flags: W
LayerCount: 2
Fore
SplineSet
422 18 m 0,0,1
 422 -58 422 -58 393.5 -121 c 128,-1,2
 365 -184 365 -184 315.5 -232.5 c 128,-1,3
 266 -281 266 -281 202.5 -309.5 c 128,-1,4
 139 -338 139 -338 70 -342 c 1,5,-1
 70 -268 l 1,6,7
 123 -258 123 -258 165 -237.5 c 128,-1,8
 207 -217 207 -217 234.5 -184.5 c 128,-1,9
 262 -152 262 -152 276.5 -103.5 c 128,-1,10
 291 -55 291 -55 291 14 c 1,11,-1
 164 14 l 1,12,13
 159 21.5 l 128,-1,14
 154 29 154 29 147.5 40 c 128,-1,15
 141 51 141 51 137 67.5 c 128,-1,16
 133 84 133 84 133 104 c 0,17,18
 133 131 133 131 142.5 155.5 c 128,-1,19
 152 180 152 180 168 199.5 c 128,-1,20
 184 219 184 219 206.5 230.5 c 128,-1,21
 229 242 229 242 256 242 c 0,22,23
 299 242 299 242 330.5 224.5 c 128,-1,24
 362 207 362 207 382.5 177 c 128,-1,25
 403 147 403 147 412.5 105 c 128,-1,26
 422 63 422 63 422 18 c 0,0,1
399 868 m 256,27,28
 399 841 399 841 389 817 c 128,-1,29
 379 793 379 793 360.5 774.5 c 128,-1,30
 342 756 342 756 317.5 745.5 c 128,-1,31
 293 735 293 735 266 735 c 0,32,33
 237 735 237 735 213.5 745.5 c 128,-1,34
 190 756 190 756 172 774.5 c 128,-1,35
 154 793 154 793 143.5 817.5 c 128,-1,36
 133 842 133 842 133 868 c 256,37,38
 133 895 133 895 143.5 919.5 c 128,-1,39
 154 944 154 944 172 962.5 c 128,-1,40
 190 981 190 981 215 991 c 128,-1,41
 240 1001 240 1001 268 1001 c 0,42,43
 295 1001 295 1001 319.5 991 c 128,-1,44
 344 981 344 981 361.5 962.5 c 128,-1,45
 379 944 379 944 389 919.5 c 128,-1,46
 399 895 399 895 399 868 c 256,27,28
EndSplineSet
Refer: 17 46 N 1 0 0 1 0 714 2
Refer: 15 44 N 1 0 0 1 0 0 2
EndChar

StartChar: less
Encoding: 31 60 31
Width: 909
Flags: W
LayerCount: 2
Fore
SplineSet
851 326 m 0,0,1
 829 306 829 306 810 288 c 0,2,3
 791 270 791 270 760 251 c 0,4,-1
 86 500 l 0,5,-1
 58 529 l 0,6,-1
 61 542 l 0,7,-1
 66 558 l 0,8,9
 73 583 73 583 80 605 c 0,10,11
 82 613 82 613 85 619 c 0,12,13
 88 625 88 625 90 631 c 0,14,-1
 92 635 l 0,15,-1
 824 906 l 0,16,-1
 851 879 l 0,17,18
 848 868 848 868 844 853.5 c 0,19,20
 840 839 840 839 835.5 823 c 0,21,22
 831 807 831 807 827 792.5 c 0,23,24
 823 778 823 778 820 769 c 0,25,-1
 273 568 l 0,26,-1
 832 364 l 0,27,-1
 851 326 l 0,0,1
EndSplineSet
EndChar

StartChar: equal
Encoding: 32 61 32
Width: 909
Flags: W
LayerCount: 2
Fore
SplineSet
851 744 m 0,0,1
 848 734 848 734 843.5 721 c 0,2,3
 839 708 839 708 834 695.5 c 0,4,5
 829 683 829 683 824.5 671 c 0,6,7
 820 659 820 659 817 650 c 0,8,-1
 86 650 l 0,9,-1
 58 677 l 0,10,11
 63 698 63 698 74 725 c 0,12,13
 85 752 85 752 94 771 c 0,14,-1
 824 771 l 0,15,-1
 851 744 l 0,0,1
851 444 m 0,16,17
 846 423 846 423 834.5 395.5 c 0,18,19
 823 368 823 368 817 350 c 0,20,-1
 86 350 l 0,21,-1
 58 379 l 0,22,23
 63 399 63 399 74 425 c 0,24,25
 85 451 85 451 94 471 c 0,26,-1
 824 471 l 0,27,-1
 851 444 l 0,16,17
EndSplineSet
EndChar

StartChar: greater
Encoding: 33 62 33
Width: 909
Flags: W
LayerCount: 2
Fore
SplineSet
851 628 m 0,0,1
 848 617 848 617 844.5 603.5 c 0,2,3
 841 590 841 590 836.5 575 c 0,4,5
 832 560 832 560 827 546 c 0,6,7
 822 532 822 532 818 520 c 0,8,-1
 86 251 l 0,9,-1
 58 279 l 0,10,11
 61 289 61 289 65.5 303.5 c 0,12,13
 70 318 70 318 74.5 333.5 c 0,14,15
 79 349 79 349 83.5 363.5 c 0,16,17
 88 378 88 378 91 387 c 0,18,-1
 634 587 l 0,19,-1
 78 792 l 0,20,-1
 58 832 l 0,21,22
 81 851 81 851 105 870.5 c 0,23,24
 129 890 129 890 150 906 c 0,25,-1
 825 658 l 0,26,-1
 851 628 l 0,0,1
EndSplineSet
EndChar

StartChar: question
Encoding: 34 63 34
Width: 902
Flags: W
LayerCount: 2
Fore
SplineSet
562 126 m 0,0,1
 562 90 562 90 550 59.5 c 0,2,3
 538 29 538 29 517.5 7 c 0,4,5
 497 -15 497 -15 469 -27.5 c 0,6,7
 441 -40 441 -40 409 -40 c 0,8,9
 354 -40 354 -40 324 -10 c 0,10,11
 294 20 294 20 294 80 c 0,12,13
 294 116 294 116 306.5 146 c 0,14,15
 319 176 319 176 340 198.5 c 0,16,17
 361 221 361 221 389 233.5 c 0,18,19
 417 246 417 246 448 246 c 0,20,21
 500 246 500 246 531 216 c 0,22,23
 562 186 562 186 562 126 c 0,0,1
826 1165 m 0,24,25
 826 1090 826 1090 802 1029.5 c 0,26,27
 778 969 778 969 741 916.5 c 0,28,29
 704 864 704 864 660.5 816.5 c 0,30,31
 617 769 617 769 579 719 c 0,32,33
 541 669 541 669 514 614.5 c 0,34,35
 487 560 487 560 482 493 c 0,36,-1
 476 397 l 0,37,38
 457 383 457 383 438.5 373.5 c 0,39,40
 420 364 420 364 392 356 c 0,41,-1
 365 379 l 0,42,-1
 357 493 l 0,43,44
 354 550 354 550 373 606 c 0,45,46
 392 662 392 662 422.5 715.5 c 0,47,48
 453 769 453 769 489 821.5 c 0,49,50
 525 874 525 874 556.5 924.5 c 0,51,52
 588 975 588 975 609 1023.5 c 0,53,54
 630 1072 630 1072 630 1120 c 0,55,56
 630 1244 630 1244 579 1310.5 c 0,57,58
 528 1377 528 1377 434 1377 c 0,59,60
 402 1377 402 1377 372.5 1362 c 0,61,62
 343 1347 343 1347 320.5 1320.5 c 0,63,64
 298 1294 298 1294 285 1259.5 c 0,65,66
 272 1225 272 1225 272 1186 c 0,67,68
 272 1172 272 1172 275.5 1156 c 0,69,70
 279 1140 279 1140 284 1126 c 0,71,72
 268 1118 268 1118 246.5 1110.5 c 0,73,74
 225 1103 225 1103 201.5 1097 c 0,75,76
 178 1091 178 1091 153.5 1086.5 c 0,77,78
 129 1082 129 1082 107 1080 c 0,79,-1
 77 1113 l 0,80,81
 75 1121 75 1121 75 1132 c 0,82,-1
 75 1151 l 0,83,84
 75 1221 75 1221 110.5 1281.5 c 0,85,86
 146 1342 146 1342 206 1386 c 0,87,88
 266 1430 266 1430 345 1455 c 0,89,90
 424 1480 424 1480 510 1480 c 0,91,92
 586 1480 586 1480 645 1457 c 0,93,94
 704 1434 704 1434 744.5 1392.5 c 0,95,96
 785 1351 785 1351 805.5 1293 c 0,97,98
 826 1235 826 1235 826 1165 c 0,24,25
EndSplineSet
EndChar

StartChar: at
Encoding: 35 64 35
Width: 1701
Flags: W
LayerCount: 2
Fore
SplineSet
1626 557 m 0,0,1
 1626 471 1626 471 1606 394 c 0,2,3
 1586 317 1586 317 1552.5 252 c 0,4,5
 1519 187 1519 187 1474 134.5 c 0,6,7
 1429 82 1429 82 1379 45.5 c 0,8,9
 1329 9 1329 9 1277 -10.5 c 0,10,11
 1225 -30 1225 -30 1177 -30 c 0,12,13
 1151 -30 1151 -30 1127.5 -20.5 c 0,14,15
 1104 -11 1104 -11 1085 10.5 c 0,16,17
 1066 32 1066 32 1052 67 c 0,18,19
 1038 102 1038 102 1030 152 c 0,20,21
 989 98 989 98 958 63 c 0,22,23
 927 28 927 28 897.5 7 c 0,24,25
 868 -14 868 -14 837.5 -22 c 0,26,27
 807 -30 807 -30 767 -30 c 0,28,29
 716 -30 716 -30 663.5 1 c 0,30,31
 611 32 611 32 569 92 c 0,32,33
 527 152 527 152 500 240 c 0,34,35
 473 328 473 328 473 442 c 0,36,37
 473 501 473 501 486.5 562.5 c 0,38,39
 500 624 500 624 526 681.5 c 0,40,41
 552 739 552 739 589.5 790 c 0,42,43
 627 841 627 841 674.5 878.5 c 0,44,45
 722 916 722 916 780 938 c 0,46,47
 838 960 838 960 904 960 c 0,48,49
 927 960 927 960 946.5 956.5 c 0,50,51
 966 953 966 953 985 943 c 0,52,53
 1004 933 1004 933 1024.5 915 c 0,54,55
 1045 897 1045 897 1071 868 c 0,56,57
 1107 885 1107 885 1138.5 907 c 0,58,59
 1170 929 1170 929 1203 960 c 0,60,-1
 1234 930 l 0,61,62
 1225 900 1225 900 1219 865 c 0,63,64
 1213 835 1213 835 1208.5 796.5 c 0,65,66
 1204 758 1204 758 1204 716 c 0,67,-1
 1204 285 l 0,68,69
 1204 205 1204 205 1228.5 166 c 0,70,71
 1253 127 1253 127 1300 127 c 0,72,73
 1325 127 1325 127 1356.5 155.5 c 0,74,75
 1388 184 1388 184 1415.5 235 c 0,76,77
 1443 286 1443 286 1462 357 c 0,78,79
 1481 428 1481 428 1481 512 c 0,80,81
 1481 681 1481 681 1438.5 811 c 0,82,83
 1396 941 1396 941 1319.5 1028.5 c 0,84,85
 1243 1116 1243 1116 1136.5 1161 c 0,86,87
 1030 1206 1030 1206 903 1206 c 0,88,89
 801 1206 801 1206 713 1180.5 c 0,90,91
 625 1155 625 1155 552.5 1109.5 c 0,92,93
 480 1064 480 1064 423.5 1000.5 c 0,94,95
 367 937 367 937 328.5 861 c 0,96,97
 290 785 290 785 270 699.5 c 0,98,99
 250 614 250 614 250 524 c 0,100,101
 250 401 250 401 275 296.5 c 0,102,103
 300 192 300 192 345 106 c 0,104,105
 390 20 390 20 452.5 -46.5 c 0,106,107
 515 -113 515 -113 590.5 -158 c 0,108,109
 666 -203 666 -203 751.5 -226.5 c 0,110,111
 837 -250 837 -250 928 -250 c 0,112,113
 1016 -250 1016 -250 1098 -232.5 c 0,114,115
 1180 -215 1180 -215 1249 -189 c 0,116,117
 1318 -163 1318 -163 1370.5 -133 c 0,118,119
 1423 -103 1423 -103 1453 -77 c 0,120,-1
 1487 -143 l 0,121,122
 1451 -182 1451 -182 1393.5 -225 c 0,123,124
 1336 -268 1336 -268 1259.5 -304 c 0,125,126
 1183 -340 1183 -340 1087 -364 c 0,127,128
 991 -388 991 -388 879 -388 c 0,129,130
 702 -388 702 -388 554.5 -328.5 c 0,131,132
 407 -269 407 -269 300.5 -158.5 c 0,133,134
 194 -48 194 -48 134.5 110 c 0,135,136
 75 268 75 268 75 465 c 0,137,138
 75 581 75 581 106 691 c 0,139,140
 137 801 137 801 193.5 898.5 c 0,141,142
 250 996 250 996 329 1077.5 c 0,143,144
 408 1159 408 1159 504.5 1218 c 0,145,146
 601 1277 601 1277 711.5 1310 c 0,147,148
 822 1343 822 1343 942 1343 c 0,149,150
 1095 1343 1095 1343 1221 1293 c 0,151,152
 1347 1243 1347 1243 1437 1144.5 c 0,153,154
 1527 1046 1527 1046 1576.5 899 c 0,155,156
 1626 752 1626 752 1626 557 c 0,0,1
1024 731 m 0,157,158
 1011 757 1011 757 997.5 777.5 c 0,159,160
 984 798 984 798 966.5 812.5 c 0,161,162
 949 827 949 827 927.5 835 c 0,163,164
 906 843 906 843 878 843 c 0,165,166
 775 843 775 843 714 751.5 c 0,167,168
 653 660 653 660 653 473 c 0,169,170
 653 388 653 388 671 322 c 0,171,172
 689 256 689 256 717.5 211 c 0,173,174
 746 166 746 166 780.5 143 c 0,175,176
 815 120 815 120 848 120 c 0,177,178
 867 120 867 120 884.5 126.5 c 0,179,180
 902 133 902 133 921.5 148.5 c 0,181,182
 941 164 941 164 965.5 191 c 0,183,184
 990 218 990 218 1024 260 c 0,185,-1
 1024 731 l 0,157,158
EndSplineSet
EndChar

StartChar: A
Encoding: 36 65 36
Width: 1242
Flags: W
LayerCount: 2
Fore
SplineSet
385 440 m 0,0,-1
 279 121 l 0,1,2
 269 90 269 90 305 76 c 0,3,4
 341 62 341 62 423 53 c 0,5,-1
 423 0 l 0,6,-1
 0 0 l 0,7,-1
 0 53 l 0,8,9
 68 65 68 65 107 78 c 0,10,11
 146 91 146 91 156 121 c 0,12,-1
 520 1227 l 0,13,14
 552 1257 552 1257 594.5 1280 c 0,15,16
 637 1303 637 1303 672 1317 c 0,17,-1
 1092 121 l 0,18,19
 1097 107 1097 107 1105.5 96 c 0,20,21
 1114 85 1114 85 1129 77 c 0,22,23
 1144 69 1144 69 1166.5 63 c 0,24,25
 1189 57 1189 57 1221 53 c 0,26,-1
 1221 0 l 0,27,-1
 774 0 l 0,28,-1
 774 53 l 0,29,30
 852 58 852 58 881 73 c 0,31,32
 910 88 910 88 899 121 c 0,33,-1
 789 440 l 0,34,-1
 385 440 l 0,0,-1
754 540 m 0,35,-1
 582 1038 l 0,36,-1
 418 540 l 0,37,-1
 754 540 l 0,35,-1
EndSplineSet
EndChar

StartChar: B
Encoding: 37 66 37
Width: 1161
Flags: W
LayerCount: 2
Fore
SplineSet
1054 356 m 0,0,1
 1054 271 1054 271 1020 202.5 c 0,2,3
 986 134 986 134 923.5 86 c 0,4,5
 861 38 861 38 773 12 c 0,6,7
 685 -14 685 -14 577 -14 c 0,8,9
 555 -14 555 -14 523.5 -13.5 c 0,10,11
 492 -13 492 -13 456 -12 c 0,12,13
 420 -11 420 -11 381.5 -10 c 0,14,15
 343 -9 343 -9 306 -7 c 0,16,17
 219 -4 219 -4 123 0 c 0,18,-1
 48 0 l 0,19,-1
 48 53 l 0,20,21
 116 67 116 67 153 83.5 c 0,22,23
 190 100 190 100 190 114 c 0,24,-1
 190 1182 l 0,25,26
 152 1177 152 1177 116 1172 c 0,27,28
 80 1167 80 1167 48 1161 c 0,29,-1
 37 1230 l 0,30,31
 78 1241 78 1241 132.5 1251.5 c 0,32,33
 187 1262 187 1262 247.5 1270.5 c 0,34,35
 308 1279 308 1279 370.5 1284.5 c 0,36,37
 433 1290 433 1290 489 1290 c 0,38,39
 594 1290 594 1290 678.5 1271.5 c 0,40,41
 763 1253 763 1253 821.5 1218 c 0,42,43
 880 1183 880 1183 911.5 1133 c 0,44,45
 943 1083 943 1083 943 1020 c 0,46,47
 943 912 943 912 889.5 835 c 0,48,49
 836 758 836 758 740 723 c 0,50,51
 807 711 807 711 864.5 678 c 0,52,53
 922 645 922 645 964 596.5 c 0,54,55
 1006 548 1006 548 1030 486.5 c 0,56,57
 1054 425 1054 425 1054 356 c 0,0,1
535 646 m 0,58,59
 487 646 487 646 450.5 641.5 c 0,60,61
 414 637 414 637 380 632 c 0,62,-1
 380 112 l 0,63,64
 380 105 380 105 388 98 c 0,65,66
 404 92 404 92 424 88 c 0,67,68
 444 84 444 84 465.5 82 c 0,69,70
 487 80 487 80 508.5 79 c 0,71,72
 530 78 530 78 550 78 c 0,73,74
 622 78 622 78 679 96 c 0,75,76
 736 114 736 114 775.5 146.5 c 0,77,78
 815 179 815 179 836 225 c 0,79,80
 857 271 857 271 857 327 c 0,81,82
 857 382 857 382 839.5 439 c 0,83,84
 822 496 822 496 783 542 c 0,85,86
 744 588 744 588 683 617 c 0,87,88
 622 646 622 646 535 646 c 0,58,59
431 1199 m 0,89,90
 419 1199 419 1199 406.5 1198.5 c 0,91,92
 394 1198 394 1198 380 1198 c 0,93,-1
 380 730 l 0,94,-1
 409 730 l 0,95,96
 518 730 518 730 586 751.5 c 0,97,98
 654 773 654 773 691.5 807.5 c 0,99,100
 729 842 729 842 742 885 c 0,101,102
 755 928 755 928 755 971 c 0,103,104
 755 1021 755 1021 739 1063 c 0,105,106
 723 1105 723 1105 685.5 1135 c 0,107,108
 648 1165 648 1165 586 1182 c 0,109,110
 524 1199 524 1199 431 1199 c 0,89,90
EndSplineSet
EndChar

StartChar: C
Encoding: 38 67 38
Width: 1113
Flags: W
LayerCount: 2
Fore
SplineSet
1036 211 m 0,0,1
 972 144 972 144 912.5 98 c 0,2,3
 853 52 853 52 796 23.5 c 0,4,5
 739 -5 739 -5 684.5 -17.5 c 0,6,7
 630 -30 630 -30 576 -30 c 0,8,9
 481 -30 481 -30 389 12 c 0,10,11
 297 54 297 54 225 133 c 0,12,13
 153 212 153 212 109 326.5 c 0,14,15
 65 441 65 441 65 586 c 0,16,17
 65 746 65 746 113.5 876 c 0,18,19
 162 1006 162 1006 246 1098 c 0,20,21
 330 1190 330 1190 442 1240 c 0,22,23
 554 1290 554 1290 681 1290 c 0,24,25
 735 1290 735 1290 784.5 1282 c 0,26,27
 834 1274 834 1274 877 1260.5 c 0,28,29
 920 1247 920 1247 955.5 1229 c 0,30,31
 991 1211 991 1211 1017 1190 c 0,32,33
 1023 1185 1023 1185 1013 1165 c 0,34,35
 1003 1145 1003 1145 986.5 1120.5 c 0,36,37
 970 1096 970 1096 952 1072.5 c 0,38,39
 934 1049 934 1049 922 1037 c 0,40,-1
 877 1046 l 0,41,42
 826 1106 826 1106 757.5 1139.5 c 0,43,44
 689 1173 689 1173 602 1173 c 0,45,46
 568 1173 568 1173 528.5 1161 c 0,47,48
 489 1149 489 1149 450.5 1122.5 c 0,49,50
 412 1096 412 1096 376 1053.5 c 0,51,52
 340 1011 340 1011 313 950 c 0,53,54
 286 889 286 889 269.5 808 c 0,55,56
 253 727 253 727 253 623 c 0,57,58
 253 492 253 492 290 394.5 c 0,59,60
 327 297 327 297 385 232.5 c 0,61,62
 443 168 443 168 515 136.5 c 0,63,64
 587 105 587 105 656 105 c 0,65,66
 683 105 683 105 719 113 c 0,67,68
 755 121 755 121 798 139.5 c 0,69,70
 841 158 841 158 890.5 188.5 c 0,71,72
 940 219 940 219 994 264 c 0,73,74
 999 261 999 261 1005 253.5 c 0,75,76
 1011 246 1011 246 1017 237.5 c 0,77,78
 1023 229 1023 229 1028 221.5 c 0,79,80
 1033 214 1033 214 1036 211 c 0,0,1
EndSplineSet
EndChar

StartChar: D
Encoding: 39 68 39
Width: 1244
Flags: W
LayerCount: 2
Fore
SplineSet
1156 676 m 0,0,1
 1156 551 1156 551 1130.5 452.5 c 0,2,3
 1105 354 1105 354 1061.5 278.5 c 0,4,5
 1018 203 1018 203 960.5 150.5 c 0,6,7
 903 98 903 98 839 64.5 c 0,8,9
 775 31 775 31 708 15.5 c 0,10,11
 641 0 641 0 579 0 c 0,12,-1
 48 0 l 0,13,-1
 48 53 l 0,14,15
 116 67 116 67 153 83.5 c 0,16,17
 190 100 190 100 190 114 c 0,18,-1
 190 1178 l 0,19,20
 151 1173 151 1173 115 1168 c 0,21,22
 79 1163 79 1163 48 1158 c 0,23,-1
 37 1230 l 0,24,25
 83 1242 83 1242 144 1253 c 0,26,27
 205 1264 205 1264 272 1272.5 c 0,28,29
 339 1281 339 1281 408 1285.5 c 0,30,31
 477 1290 477 1290 538 1290 c 0,32,33
 682 1290 682 1290 796.5 1248.5 c 0,34,35
 911 1207 911 1207 991 1128 c 0,36,37
 1071 1049 1071 1049 1113.5 935 c 0,38,39
 1156 821 1156 821 1156 676 c 0,0,1
471 1199 m 0,40,41
 425 1199 425 1199 380 1196 c 0,42,-1
 380 164 l 0,43,44
 380 142 380 142 388 127 c 0,45,46
 401 109 401 109 438 100.5 c 0,47,48
 475 92 475 92 552 92 c 0,49,50
 617 92 617 92 688 124.5 c 0,51,52
 759 157 759 157 818 224 c 0,53,54
 877 291 877 291 915 393.5 c 0,55,56
 953 496 953 496 953 637 c 0,57,58
 953 770 953 770 921.5 874.5 c 0,59,60
 890 979 890 979 828.5 1051 c 0,61,62
 767 1123 767 1123 677.5 1161 c 0,63,64
 588 1199 588 1199 471 1199 c 0,40,41
EndSplineSet
EndChar

StartChar: E
Encoding: 40 69 40
Width: 1036
Flags: W
LayerCount: 2
Fore
SplineSet
979 264 m 0,0,1
 975 221 975 221 970 180 c 0,2,3
 965 139 965 139 959 103.5 c 0,4,5
 953 68 953 68 947.5 41.5 c 0,6,7
 942 15 942 15 938 0 c 0,8,-1
 48 0 l 0,9,-1
 48 53 l 0,10,11
 116 67 116 67 153 83.5 c 0,12,13
 190 100 190 100 190 114 c 0,14,-1
 190 1145 l 0,15,16
 190 1157 190 1157 155 1175 c 0,17,18
 120 1193 120 1193 48 1207 c 0,19,-1
 48 1260 l 0,20,-1
 879 1260 l 0,21,-1
 914 1233 l 0,22,23
 912 1207 912 1207 908 1173.5 c 0,24,25
 904 1140 904 1140 898 1105.5 c 0,26,27
 892 1071 892 1071 885.5 1040 c 0,28,29
 879 1009 879 1009 873 990 c 0,30,-1
 818 990 l 0,31,32
 813 1082 813 1082 793 1121 c 0,33,34
 773 1160 773 1160 736 1160 c 0,35,-1
 380 1160 l 0,36,-1
 380 735 l 0,37,-1
 783 735 l 0,38,-1
 811 705 l 0,39,40
 803 691 803 691 791.5 674 c 0,41,42
 780 657 780 657 767.5 641 c 0,43,44
 755 625 755 625 742.5 611 c 0,45,46
 730 597 730 597 719 589 c 0,47,48
 704 604 704 604 686.5 614 c 0,49,50
 669 624 669 624 646.5 631 c 0,51,52
 624 638 624 638 593.5 641 c 0,53,54
 563 644 563 644 521 644 c 0,55,-1
 380 644 l 0,56,-1
 380 164 l 0,57,58
 380 149 380 149 387 137.5 c 0,59,60
 394 126 394 126 416 117.5 c 0,61,62
 438 109 438 109 478 104.5 c 0,63,64
 518 100 518 100 584 100 c 0,65,-1
 703 100 l 0,66,67
 749 100 749 100 781.5 107 c 0,68,69
 814 114 814 114 839 134 c 0,70,71
 864 154 864 154 884.5 190 c 0,72,73
 905 226 905 226 926 285 c 0,74,-1
 979 264 l 0,0,1
EndSplineSet
EndChar

StartChar: F
Encoding: 41 70 41
Width: 999
Flags: W
LayerCount: 2
Fore
SplineSet
48 0 m 0,0,-1
 48 53 l 0,1,2
 116 67 116 67 153 83.5 c 0,3,4
 190 100 190 100 190 114 c 0,5,-1
 190 1145 l 0,6,7
 190 1157 190 1157 155 1175 c 0,8,9
 120 1193 120 1193 48 1207 c 0,10,-1
 48 1260 l 0,11,-1
 889 1260 l 0,12,-1
 922 1233 l 0,13,14
 921 1207 921 1207 917 1173.5 c 0,15,16
 913 1140 913 1140 907.5 1105.5 c 0,17,18
 902 1071 902 1071 895.5 1040 c 0,19,20
 889 1009 889 1009 883 990 c 0,21,-1
 826 990 l 0,22,23
 823 1082 823 1082 802.5 1121 c 0,24,25
 782 1160 782 1160 744 1160 c 0,26,-1
 380 1160 l 0,27,-1
 380 735 l 0,28,-1
 752 735 l 0,29,-1
 783 705 l 0,30,31
 774 690 774 690 762 673 c 0,32,33
 750 656 750 656 737 640 c 0,34,35
 724 624 724 624 711.5 610.5 c 0,36,37
 699 597 699 597 689 589 c 0,38,39
 674 604 674 604 657 614 c 0,40,41
 640 624 640 624 617.5 631 c 0,42,43
 595 638 595 638 564.5 641 c 0,44,45
 534 644 534 644 492 644 c 0,46,-1
 380 644 l 0,47,-1
 380 114 l 0,48,49
 380 108 380 108 388.5 101 c 0,50,51
 397 94 397 94 417.5 86.5 c 0,52,53
 438 79 438 79 471 70.5 c 0,54,55
 504 62 504 62 553 53 c 0,56,-1
 553 0 l 0,57,-1
 48 0 l 0,0,-1
EndSplineSet
EndChar

StartChar: G
Encoding: 42 71 42
Width: 1207
Flags: W
LayerCount: 2
Fore
SplineSet
1060 1188 m 0,0,1
 1067 1183 1067 1183 1057 1163.5 c 0,2,3
 1047 1144 1047 1144 1029.5 1121 c 0,4,5
 1012 1098 1012 1098 992 1075.5 c 0,6,7
 972 1053 972 1053 959 1041 c 0,8,-1
 916 1050 l 0,9,10
 883 1087 883 1087 848.5 1111 c 0,11,12
 814 1135 814 1135 776.5 1149.5 c 0,13,14
 739 1164 739 1164 697 1169.5 c 0,15,16
 655 1175 655 1175 608 1175 c 0,17,18
 583 1175 583 1175 547 1164 c 0,19,20
 511 1153 511 1153 471.5 1128 c 0,21,22
 432 1103 432 1103 393 1062 c 0,23,24
 354 1021 354 1021 323 961.5 c 0,25,26
 292 902 292 902 272.5 821.5 c 0,27,28
 253 741 253 741 253 637 c 0,29,30
 253 500 253 500 288 399.5 c 0,31,32
 323 299 323 299 380 233 c 0,33,34
 437 167 437 167 509 135 c 0,35,36
 581 103 581 103 655 103 c 0,37,38
 723 103 723 103 778 116 c 0,39,40
 833 129 833 129 878 153 c 0,41,-1
 878 480 l 0,42,43
 878 491 878 491 870.5 501.5 c 0,44,45
 863 512 863 512 842 522 c 0,46,47
 821 532 821 532 783.5 542 c 0,48,49
 746 552 746 552 687 562 c 0,50,-1
 687 615 l 0,51,-1
 1160 615 l 0,52,-1
 1160 562 l 0,53,54
 1103 548 1103 548 1080.5 525.5 c 0,55,56
 1058 503 1058 503 1058 480 c 0,57,-1
 1058 159 l 0,58,59
 984 98 984 98 923.5 61 c 0,60,61
 863 24 863 24 811.5 3.5 c 0,62,63
 760 -17 760 -17 714 -23.5 c 0,64,65
 668 -30 668 -30 623 -30 c 0,66,67
 520 -30 520 -30 420 7.5 c 0,68,69
 320 45 320 45 241 121.5 c 0,70,71
 162 198 162 198 113.5 312.5 c 0,72,73
 65 427 65 427 65 582 c 0,74,75
 65 748 65 748 118 879.5 c 0,76,77
 171 1011 171 1011 262.5 1102.5 c 0,78,79
 354 1194 354 1194 477.5 1242 c 0,80,81
 601 1290 601 1290 742 1290 c 0,82,83
 775 1290 775 1290 816.5 1283 c 0,84,85
 858 1276 858 1276 901.5 1263 c 0,86,87
 945 1250 945 1250 986.5 1231 c 0,88,89
 1028 1212 1028 1212 1060 1188 c 0,0,1
EndSplineSet
EndChar

StartChar: H
Encoding: 43 72 43
Width: 1359
Flags: W
LayerCount: 2
Fore
SplineSet
48 0 m 0,0,-1
 48 53 l 0,1,2
 116 67 116 67 153 83.5 c 0,3,4
 190 100 190 100 190 114 c 0,5,-1
 190 1145 l 0,6,7
 190 1157 190 1157 155 1175 c 0,8,9
 120 1193 120 1193 48 1207 c 0,10,-1
 48 1260 l 0,11,-1
 523 1260 l 0,12,-1
 523 1207 l 0,13,14
 455 1193 455 1193 417.5 1176 c 0,15,16
 380 1159 380 1159 380 1145 c 0,17,-1
 380 710 l 0,18,-1
 960 710 l 0,19,-1
 960 1145 l 0,20,21
 960 1157 960 1157 925 1175 c 0,22,23
 890 1193 890 1193 818 1207 c 0,24,-1
 818 1260 l 0,25,-1
 1293 1260 l 0,26,-1
 1293 1207 l 0,27,28
 1225 1193 1225 1193 1187.5 1176 c 0,29,30
 1150 1159 1150 1159 1150 1145 c 0,31,-1
 1150 114 l 0,32,33
 1150 102 1150 102 1185.5 84.5 c 0,34,35
 1221 67 1221 67 1293 53 c 0,36,-1
 1293 0 l 0,37,-1
 818 0 l 0,38,-1
 818 53 l 0,39,40
 886 67 886 67 923 83.5 c 0,41,42
 960 100 960 100 960 114 c 0,43,-1
 960 610 l 0,44,-1
 380 610 l 0,45,-1
 380 114 l 0,46,47
 380 102 380 102 415 84.5 c 0,48,49
 450 67 450 67 523 53 c 0,50,-1
 523 0 l 0,51,-1
 48 0 l 0,0,-1
EndSplineSet
EndChar

StartChar: I
Encoding: 44 73 44
Width: 630
Flags: W
LayerCount: 2
Fore
SplineSet
68 0 m 0,0,-1
 68 53 l 0,1,2
 136 67 136 67 173 83.5 c 0,3,4
 210 100 210 100 210 114 c 0,5,-1
 210 1145 l 0,6,7
 210 1157 210 1157 175 1175 c 0,8,9
 140 1193 140 1193 68 1207 c 0,10,-1
 68 1260 l 0,11,-1
 543 1260 l 0,12,-1
 543 1207 l 0,13,14
 475 1193 475 1193 437.5 1176 c 0,15,16
 400 1159 400 1159 400 1145 c 0,17,-1
 400 114 l 0,18,19
 400 102 400 102 435.5 84.5 c 0,20,21
 471 67 471 67 543 53 c 0,22,-1
 543 0 l 0,23,-1
 68 0 l 0,0,-1
EndSplineSet
EndChar

StartChar: J
Encoding: 45 74 45
Width: 645
Flags: W
LayerCount: 2
Fore
SplineSet
578 1207 m 0,0,1
 510 1193 510 1193 472.5 1176 c 0,2,3
 435 1159 435 1159 435 1145 c 0,4,-1
 435 198 l 0,5,6
 435 82 435 82 417 2.5 c 0,7,8
 399 -77 399 -77 369 -133 c 0,9,10
 339 -189 339 -189 301 -226.5 c 0,11,12
 263 -264 263 -264 224 -296 c 0,13,14
 197 -318 197 -318 164 -336 c 0,15,16
 131 -354 131 -354 97 -366.5 c 0,17,18
 63 -379 63 -379 31 -386 c 0,19,20
 -1 -393 -1 -393 -25 -393 c 0,21,22
 -60 -393 -60 -393 -94 -383 c 0,23,24
 -128 -373 -128 -373 -155 -359.5 c 0,25,26
 -182 -346 -182 -346 -198.5 -331.5 c 0,27,28
 -215 -317 -215 -317 -215 -308 c 0,29,30
 -215 -299 -215 -299 -199.5 -281 c 0,31,32
 -184 -263 -184 -263 -162.5 -244 c 0,33,34
 -141 -225 -141 -225 -118.5 -209 c 0,35,36
 -96 -193 -96 -193 -82 -188 c 0,37,38
 -54 -208 -54 -208 -31.5 -221 c 0,39,40
 -9 -234 -9 -234 11 -241.5 c 0,41,42
 31 -249 31 -249 49.5 -252 c 0,43,44
 68 -255 68 -255 87 -255 c 0,45,46
 113 -255 113 -255 141 -239.5 c 0,47,48
 169 -224 169 -224 192 -182 c 0,49,50
 215 -140 215 -140 230 -66 c 0,51,52
 245 8 245 8 245 126 c 0,53,-1
 245 1145 l 0,54,55
 245 1151 245 1151 237.5 1158 c 0,56,57
 230 1165 230 1165 209 1173 c 0,58,59
 188 1181 188 1181 150.5 1189.5 c 0,60,61
 113 1198 113 1198 53 1207 c 0,62,-1
 53 1260 l 0,63,-1
 578 1260 l 0,64,-1
 578 1207 l 0,0,1
EndSplineSet
EndChar

StartChar: K
Encoding: 46 75 46
Width: 1212
Flags: W
LayerCount: 2
Fore
SplineSet
48 0 m 0,0,-1
 48 53 l 0,1,2
 116 67 116 67 153 83.5 c 0,3,4
 190 100 190 100 190 114 c 0,5,-1
 190 1145 l 0,6,7
 190 1157 190 1157 155 1175 c 0,8,9
 120 1193 120 1193 48 1207 c 0,10,-1
 48 1260 l 0,11,-1
 523 1260 l 0,12,-1
 523 1207 l 0,13,14
 455 1193 455 1193 417.5 1176 c 0,15,16
 380 1159 380 1159 380 1145 c 0,17,-1
 380 651 l 0,18,-1
 777 1118 l 0,19,20
 800 1145 800 1145 807 1161 c 0,21,22
 814 1177 814 1177 805.5 1186 c 0,23,24
 797 1195 797 1195 773 1199.5 c 0,25,26
 749 1204 749 1204 710 1207 c 0,27,-1
 710 1260 l 0,28,-1
 1140 1260 l 0,29,-1
 1140 1207 l 0,30,31
 1108 1203 1108 1203 1084 1199 c 0,32,33
 1060 1195 1060 1195 1041 1188.5 c 0,34,35
 1022 1182 1022 1182 1006 1172 c 0,36,37
 990 1162 990 1162 975 1145 c 0,38,-1
 540 673 l 0,39,-1
 1023 140 l 0,40,41
 1057 102 1057 102 1101 95.5 c 0,42,43
 1145 89 1145 89 1197 95 c 0,44,-1
 1204 42 l 0,45,46
 1175 33 1175 33 1143 23 c 0,47,48
 1111 13 1111 13 1079.5 4.5 c 0,49,50
 1048 -4 1048 -4 1019 -9 c 0,51,52
 990 -14 990 -14 966 -14 c 0,53,54
 937 -14 937 -14 914.5 -5 c 0,55,56
 892 4 892 4 872 29 c 0,57,-1
 380 634 l 0,58,-1
 380 114 l 0,59,60
 380 102 380 102 415 84.5 c 0,61,62
 450 67 450 67 523 53 c 0,63,-1
 523 0 l 0,64,-1
 48 0 l 0,0,-1
EndSplineSet
EndChar

StartChar: L
Encoding: 47 76 47
Width: 998
Flags: W
LayerCount: 2
Fore
SplineSet
969 264 m 0,0,1
 965 221 965 221 959.5 180 c 0,2,3
 954 139 954 139 948.5 103.5 c 0,4,5
 943 68 943 68 937.5 41.5 c 0,6,7
 932 15 932 15 928 0 c 0,8,-1
 48 0 l 0,9,-1
 48 53 l 0,10,11
 116 67 116 67 153 83.5 c 0,12,13
 190 100 190 100 190 114 c 0,14,-1
 190 1145 l 0,15,16
 190 1157 190 1157 155 1175 c 0,17,18
 120 1193 120 1193 48 1207 c 0,19,-1
 48 1260 l 0,20,-1
 523 1260 l 0,21,-1
 523 1207 l 0,22,23
 455 1193 455 1193 417.5 1176 c 0,24,25
 380 1159 380 1159 380 1145 c 0,26,-1
 380 174 l 0,27,28
 380 156 380 156 388.5 142.5 c 0,29,30
 397 129 397 129 418 119.5 c 0,31,32
 439 110 439 110 475 105 c 0,33,34
 511 100 511 100 566 100 c 0,35,-1
 699 100 l 0,36,37
 745 100 745 100 776.5 107 c 0,38,39
 808 114 808 114 832 134 c 0,40,41
 856 154 856 154 875.5 190 c 0,42,43
 895 226 895 226 916 285 c 0,44,-1
 969 264 l 0,0,1
EndSplineSet
EndChar

StartChar: M
Encoding: 48 77 48
Width: 1679
Flags: W
LayerCount: 2
Fore
SplineSet
1578 1207 m 0,0,1
 1551 1207 1551 1207 1516 1198 c 0,2,3
 1481 1189 1481 1189 1445 1174 c 0,4,-1
 1455 114 l 0,5,6
 1455 102 1455 102 1491.5 84.5 c 0,7,8
 1528 67 1528 67 1600 53 c 0,9,-1
 1600 0 l 0,10,-1
 1123 0 l 0,11,-1
 1123 53 l 0,12,13
 1191 67 1191 67 1233 83.5 c 0,14,15
 1275 100 1275 100 1275 114 c 0,16,-1
 1266 1007 l 0,17,-1
 833 0 l 0,18,-1
 769 0 l 0,19,-1
 334 1003 l 0,20,-1
 325 114 l 0,21,22
 325 102 325 102 360.5 84.5 c 0,23,24
 396 67 396 67 468 53 c 0,25,-1
 468 0 l 0,26,-1
 58 0 l 0,27,-1
 58 53 l 0,28,29
 127 67 127 67 163.5 83.5 c 0,30,31
 200 100 200 100 200 114 c 0,32,-1
 210 1169 l 0,33,34
 173 1190 173 1190 135 1198.5 c 0,35,36
 97 1207 97 1207 68 1207 c 0,37,-1
 68 1260 l 0,38,-1
 374 1260 l 0,39,40
 384 1260 384 1260 391 1257 c 0,41,42
 398 1254 398 1254 405 1245 c 0,43,44
 412 1236 412 1236 420 1219.5 c 0,45,46
 428 1203 428 1203 440 1176 c 0,47,-1
 828 297 l 0,48,-1
 1208 1176 l 0,49,50
 1221 1206 1221 1206 1229.5 1223 c 0,51,52
 1238 1240 1238 1240 1244.5 1248 c 0,53,54
 1251 1256 1251 1256 1258 1258 c 0,55,56
 1265 1260 1265 1260 1274 1260 c 0,57,-1
 1578 1260 l 0,58,-1
 1578 1207 l 0,0,1
EndSplineSet
EndChar

StartChar: N
Encoding: 49 78 49
Width: 1339
Flags: W
LayerCount: 2
Fore
SplineSet
48 0 m 0,0,-1
 48 53 l 0,1,2
 122 62 122 62 156 81 c 0,3,4
 190 100 190 100 190 114 c 0,5,-1
 190 1138 l 0,6,7
 157 1168 157 1168 121.5 1184.5 c 0,8,9
 86 1201 86 1201 48 1207 c 0,10,-1
 48 1260 l 0,11,-1
 282 1260 l 0,12,13
 297 1260 297 1260 306.5 1257.5 c 0,14,15
 316 1255 316 1255 326 1247 c 0,16,17
 336 1239 336 1239 347.5 1223.5 c 0,18,19
 359 1208 359 1208 378 1182 c 0,20,-1
 1020 295 l 0,21,-1
 1020 1145 l 0,22,23
 1020 1151 1020 1151 1013 1159.5 c 0,24,25
 1006 1168 1006 1168 989.5 1176.5 c 0,26,27
 973 1185 973 1185 945.5 1193 c 0,28,29
 918 1201 918 1201 878 1207 c 0,30,-1
 878 1260 l 0,31,-1
 1293 1260 l 0,32,-1
 1293 1207 l 0,33,34
 1221 1197 1221 1197 1185.5 1178 c 0,35,36
 1150 1159 1150 1159 1150 1145 c 0,37,-1
 1150 -30 l 0,38,39
 1085 -23 1085 -23 1046.5 -3.5 c 0,40,41
 1008 16 1008 16 991 39 c 0,42,-1
 320 969 l 0,43,-1
 320 114 l 0,44,45
 320 108 320 108 328 99.5 c 0,46,47
 336 91 336 91 353 82.5 c 0,48,49
 370 74 370 74 397 66 c 0,50,51
 424 58 424 58 463 53 c 0,52,-1
 463 0 l 0,53,-1
 48 0 l 0,0,-1
EndSplineSet
EndChar

StartChar: O
Encoding: 50 79 50
Width: 1244
Flags: W
LayerCount: 2
Fore
SplineSet
1158 647 m 0,0,1
 1158 511 1158 511 1112 388.5 c 0,2,3
 1066 266 1066 266 987 173 c 0,4,5
 908 80 908 80 804 25 c 0,6,7
 700 -30 700 -30 583 -30 c 0,8,9
 460 -30 460 -30 364 23 c 0,10,11
 268 76 268 76 201.5 165 c 0,12,13
 135 254 135 254 100 370 c 0,14,15
 65 486 65 486 65 612 c 0,16,17
 65 748 65 748 109 871 c 0,18,19
 153 994 153 994 230.5 1087 c 0,20,21
 308 1180 308 1180 413 1235 c 0,22,23
 518 1290 518 1290 641 1290 c 0,24,25
 767 1290 767 1290 864 1235.5 c 0,26,27
 961 1181 961 1181 1026 1091 c 0,28,29
 1091 1001 1091 1001 1124.5 885 c 0,30,31
 1158 769 1158 769 1158 647 c 0,0,1
971 629 m 0,32,33
 971 698 971 698 959 765 c 0,34,35
 947 832 947 832 924.5 892 c 0,36,37
 902 952 902 952 870 1003 c 0,38,39
 838 1054 838 1054 797 1091 c 0,40,41
 756 1128 756 1128 707.5 1149 c 0,42,43
 659 1170 659 1170 604 1170 c 0,44,45
 521 1170 521 1170 455.5 1133 c 0,46,47
 390 1096 390 1096 345 1027.5 c 0,48,49
 300 959 300 959 276.5 861 c 0,50,51
 253 763 253 763 253 641 c 0,52,53
 253 529 253 529 282 429.5 c 0,54,55
 311 330 311 330 360.5 256 c 0,56,57
 410 182 410 182 476.5 138.5 c 0,58,59
 543 95 543 95 617 95 c 0,60,61
 694 95 694 95 759 129 c 0,62,63
 824 163 824 163 871 230 c 0,64,65
 918 297 918 297 944.5 397 c 0,66,67
 971 497 971 497 971 629 c 0,32,33
EndSplineSet
EndChar

StartChar: P
Encoding: 51 80 51
Width: 1101
Flags: W
LayerCount: 2
Fore
SplineSet
48 0 m 0,0,-1
 48 53 l 0,1,2
 116 67 116 67 153 83.5 c 0,3,4
 190 100 190 100 190 114 c 0,5,-1
 190 1180 l 0,6,7
 152 1175 152 1175 116.5 1169.5 c 0,8,9
 81 1164 81 1164 48 1158 c 0,10,-1
 37 1230 l 0,11,12
 87 1243 87 1243 147 1254 c 0,13,14
 207 1265 207 1265 271 1273 c 0,15,16
 335 1281 335 1281 401 1285.5 c 0,17,18
 467 1290 467 1290 530 1290 c 0,19,20
 641 1290 641 1290 730.5 1267 c 0,21,22
 820 1244 820 1244 884 1199 c 0,23,24
 948 1154 948 1154 982.5 1088 c 0,25,26
 1017 1022 1017 1022 1017 936 c 0,27,28
 1017 867 1017 867 997.5 810 c 0,29,30
 978 753 978 753 945.5 708 c 0,31,32
 913 663 913 663 871 629.5 c 0,33,34
 829 596 829 596 783 574 c 0,35,36
 737 552 737 552 690.5 541 c 0,37,38
 644 530 644 530 603 530 c 0,39,40
 557 530 557 530 515.5 537.5 c 0,41,42
 474 545 474 545 440 560 c 0,43,-1
 414 645 l 0,44,45
 456 626 456 626 492 620.5 c 0,46,47
 528 615 528 615 563 615 c 0,48,49
 608 615 608 615 655.5 632.5 c 0,50,51
 703 650 703 650 742 684.5 c 0,52,53
 781 719 781 719 805.5 771.5 c 0,54,55
 830 824 830 824 830 895 c 0,56,57
 830 973 830 973 802.5 1030.5 c 0,58,59
 775 1088 775 1088 727 1125.5 c 0,60,61
 679 1163 679 1163 613.5 1181 c 0,62,63
 548 1199 548 1199 473 1199 c 0,64,65
 426 1199 426 1199 380 1196 c 0,66,-1
 380 114 l 0,67,68
 380 108 380 108 387.5 101 c 0,69,70
 395 94 395 94 414.5 86 c 0,71,72
 434 78 434 78 467.5 70 c 0,73,74
 501 62 501 62 553 53 c 0,75,-1
 553 0 l 0,76,-1
 48 0 l 0,0,-1
EndSplineSet
EndChar

StartChar: Q
Encoding: 52 81 52
Width: 1244
Flags: W
LayerCount: 2
Fore
SplineSet
1327 -120 m 0,0,1
 1303 -164 1303 -164 1277 -199.5 c 0,2,3
 1251 -235 1251 -235 1226 -260 c 0,4,5
 1201 -285 1201 -285 1179 -299 c 0,6,7
 1157 -313 1157 -313 1142 -313 c 0,8,9
 1099 -313 1099 -313 1056.5 -298.5 c 0,10,11
 1014 -284 1014 -284 971.5 -260 c 0,12,13
 929 -236 929 -236 886.5 -205.5 c 0,14,15
 844 -175 844 -175 801.5 -143 c 0,16,17
 759 -111 759 -111 716.5 -80.5 c 0,18,19
 674 -50 674 -50 632 -27 c 0,20,21
 608 -30 608 -30 583 -30 c 0,22,23
 468 -30 468 -30 373 21.5 c 0,24,25
 278 73 278 73 209.5 160.5 c 0,26,27
 141 248 141 248 103 364.5 c 0,28,29
 65 481 65 481 65 612 c 0,30,31
 65 748 65 748 109 871 c 0,32,33
 153 994 153 994 230.5 1087 c 0,34,35
 308 1180 308 1180 413 1235 c 0,36,37
 518 1290 518 1290 641 1290 c 0,38,39
 767 1290 767 1290 864 1235.5 c 0,40,41
 961 1181 961 1181 1026 1091 c 0,42,43
 1091 1001 1091 1001 1124.5 885 c 0,44,45
 1158 769 1158 769 1158 647 c 0,46,47
 1158 542 1158 542 1130 445 c 0,48,49
 1102 348 1102 348 1052.5 265.5 c 0,50,51
 1003 183 1003 183 935.5 119 c 0,52,53
 868 55 868 55 788 17 c 0,54,55
 837 -6 837 -6 884.5 -34.5 c 0,56,57
 932 -63 932 -63 977.5 -89 c 0,58,59
 1023 -115 1023 -115 1066 -132.5 c 0,60,61
 1109 -150 1109 -150 1148 -150 c 0,62,63
 1160 -150 1160 -150 1173.5 -146.5 c 0,64,65
 1187 -143 1187 -143 1203.5 -134.5 c 0,66,67
 1220 -126 1220 -126 1241.5 -111.5 c 0,68,69
 1263 -97 1263 -97 1293 -75 c 0,70,-1
 1327 -120 l 0,0,1
971 629 m 0,71,72
 971 698 971 698 959 765 c 0,73,74
 947 832 947 832 924.5 892 c 0,75,76
 902 952 902 952 870 1003 c 0,77,78
 838 1054 838 1054 797 1091 c 0,79,80
 756 1128 756 1128 707.5 1149 c 0,81,82
 659 1170 659 1170 604 1170 c 0,83,84
 521 1170 521 1170 455.5 1133 c 0,85,86
 390 1096 390 1096 345 1027.5 c 0,87,88
 300 959 300 959 276.5 861 c 0,89,90
 253 763 253 763 253 641 c 0,91,92
 253 529 253 529 282 429.5 c 0,93,94
 311 330 311 330 360.5 256 c 0,95,96
 410 182 410 182 476.5 138.5 c 0,97,98
 543 95 543 95 617 95 c 0,99,100
 694 95 694 95 759 129 c 0,101,102
 824 163 824 163 871 230 c 0,103,104
 918 297 918 297 944.5 397 c 0,105,106
 971 497 971 497 971 629 c 0,71,72
EndSplineSet
EndChar

StartChar: R
Encoding: 53 82 53
Width: 1179
Flags: W
LayerCount: 2
Fore
SplineSet
48 0 m 0,0,-1
 48 53 l 0,1,2
 116 67 116 67 153 83.5 c 0,3,4
 190 100 190 100 190 114 c 0,5,-1
 190 1178 l 0,6,7
 154 1173 154 1173 118.5 1168 c 0,8,9
 83 1163 83 1163 48 1158 c 0,10,-1
 37 1230 l 0,11,12
 86 1242 86 1242 137 1252.5 c 0,13,14
 188 1263 188 1263 243.5 1271.5 c 0,15,16
 299 1280 299 1280 360 1285 c 0,17,18
 421 1290 421 1290 489 1290 c 0,19,20
 612 1290 612 1290 701 1267 c 0,21,22
 790 1244 790 1244 848 1203 c 0,23,24
 906 1162 906 1162 934 1106.5 c 0,25,26
 962 1051 962 1051 962 987 c 0,27,28
 962 916 962 916 941.5 858 c 0,29,30
 921 800 921 800 884 754 c 0,31,32
 847 708 847 708 795 675 c 0,33,34
 743 642 743 642 681 623 c 0,35,-1
 988 154 l 0,36,37
 1003 133 1003 133 1019.5 120 c 0,38,39
 1036 107 1036 107 1056.5 100.5 c 0,40,41
 1077 94 1077 94 1102.5 93 c 0,42,43
 1128 92 1128 92 1162 95 c 0,44,-1
 1174 42 l 0,45,46
 1141 31 1141 31 1106 21 c 0,47,48
 1071 11 1071 11 1038.5 3 c 0,49,50
 1006 -5 1006 -5 977.5 -9.5 c 0,51,52
 949 -14 949 -14 930 -14 c 0,53,54
 901 -14 901 -14 873.5 2 c 0,55,56
 846 18 846 18 832 41 c 0,57,-1
 535 597 l 0,58,59
 523 596 523 596 510.5 595.5 c 0,60,61
 498 595 498 595 486 595 c 0,62,63
 460 595 460 595 434 597.5 c 0,64,65
 408 600 408 600 380 606 c 0,66,-1
 380 114 l 0,67,68
 380 102 380 102 415 84.5 c 0,69,70
 450 67 450 67 523 53 c 0,71,-1
 523 0 l 0,72,-1
 48 0 l 0,0,-1
450 1199 m 0,73,74
 433 1199 433 1199 415.5 1198.5 c 0,75,76
 398 1198 398 1198 380 1197 c 0,77,-1
 380 696 l 0,78,79
 407 691 407 691 427 690 c 0,80,81
 447 689 447 689 469 689 c 0,82,83
 620 689 620 689 697.5 758 c 0,84,85
 775 827 775 827 775 956 c 0,86,87
 775 1008 775 1008 757.5 1052.5 c 0,88,89
 740 1097 740 1097 701 1129.5 c 0,90,91
 662 1162 662 1162 600 1180.5 c 0,92,93
 538 1199 538 1199 450 1199 c 0,73,74
EndSplineSet
EndChar

StartChar: S
Encoding: 54 83 54
Width: 1000
Flags: W
LayerCount: 2
Fore
SplineSet
913 377 m 0,0,1
 913 332 913 332 900.5 285 c 0,2,3
 888 238 888 238 862.5 192.5 c 0,4,5
 837 147 837 147 799 106.5 c 0,6,7
 761 66 761 66 709.5 36 c 0,8,9
 658 6 658 6 593.5 -12 c 0,10,11
 529 -30 529 -30 450 -30 c 0,12,13
 416 -30 416 -30 374.5 -23 c 0,14,15
 333 -16 333 -16 289.5 -3.5 c 0,16,17
 246 9 246 9 203.5 27 c 0,18,19
 161 45 161 45 126 68 c 0,20,21
 119 72 119 72 115.5 104 c 0,22,23
 112 136 112 136 112 179 c 0,24,25
 112 222 112 222 116 267.5 c 0,26,27
 120 313 120 313 129 344 c 0,28,-1
 180 339 l 0,29,30
 203 280 203 280 237 235 c 0,31,32
 271 190 271 190 312.5 159.5 c 0,33,34
 354 129 354 129 402 113.5 c 0,35,36
 450 98 450 98 501 98 c 0,37,38
 546 98 546 98 590 114.5 c 0,39,40
 634 131 634 131 669.5 160.5 c 0,41,42
 705 190 705 190 726.5 230.5 c 0,43,44
 748 271 748 271 748 319 c 0,45,46
 748 380 748 380 721 424 c 0,47,48
 694 468 694 468 650 502.5 c 0,49,50
 606 537 606 537 550 564.5 c 0,51,52
 494 592 494 592 435 619 c 0,53,54
 376 646 376 646 320 676.5 c 0,55,56
 264 707 264 707 220 746.5 c 0,57,58
 176 786 176 786 149 839 c 0,59,60
 122 892 122 892 122 965 c 0,61,62
 122 1012 122 1012 145 1068.5 c 0,63,64
 168 1125 168 1125 218 1174.5 c 0,65,66
 268 1224 268 1224 347.5 1257 c 0,67,68
 427 1290 427 1290 541 1290 c 0,69,70
 589 1290 589 1290 637 1283 c 0,71,72
 685 1276 685 1276 726 1264 c 0,73,74
 767 1252 767 1252 800 1235 c 0,75,76
 833 1218 833 1218 851 1198 c 0,77,78
 858 1192 858 1192 851 1171.5 c 0,79,80
 844 1151 844 1151 830 1126.5 c 0,81,82
 816 1102 816 1102 799 1079 c 0,83,84
 782 1056 782 1056 770 1045 c 0,85,-1
 724 1051 l 0,86,87
 698 1088 698 1088 668 1114 c 0,88,89
 638 1140 638 1140 607 1155.5 c 0,90,91
 576 1171 576 1171 544.5 1178 c 0,92,93
 513 1185 513 1185 485 1185 c 0,94,95
 431 1185 431 1185 393 1169.5 c 0,96,97
 355 1154 355 1154 330 1129.5 c 0,98,99
 305 1105 305 1105 293.5 1075 c 0,100,101
 282 1045 282 1045 282 1017 c 0,102,103
 282 970 282 970 309 933.5 c 0,104,105
 336 897 336 897 380.5 866.5 c 0,106,107
 425 836 425 836 481.5 808 c 0,108,109
 538 780 538 780 597.5 750.5 c 0,110,111
 657 721 657 721 713.5 686.5 c 0,112,113
 770 652 770 652 814.5 608 c 0,114,115
 859 564 859 564 886 507.5 c 0,116,117
 913 451 913 451 913 377 c 0,0,1
EndSplineSet
EndChar

StartChar: T
Encoding: 55 84 55
Width: 1148
Flags: W
LayerCount: 2
Fore
SplineSet
305 0 m 0,0,-1
 305 53 l 0,1,2
 351 62 351 62 382 72 c 0,3,4
 413 82 413 82 431.5 91.5 c 0,5,6
 450 101 450 101 458 109.5 c 0,7,8
 466 118 466 118 466 125 c 0,9,-1
 466 1160 l 0,10,-1
 182 1160 l 0,11,12
 167 1160 167 1160 154.5 1153 c 0,13,14
 142 1146 142 1146 128.5 1125.5 c 0,15,16
 115 1105 115 1105 99 1068.5 c 0,17,18
 83 1032 83 1032 61 974 c 0,19,-1
 8 995 l 0,20,21
 10 1024 10 1024 14 1059.5 c 0,22,23
 18 1095 18 1095 22.5 1130.5 c 0,24,25
 27 1166 27 1166 32.5 1200 c 0,26,27
 38 1234 38 1234 43 1260 c 0,28,-1
 1073 1260 l 0,29,-1
 1106 1233 l 0,30,31
 1105 1207 1105 1207 1102 1176.5 c 0,32,33
 1099 1146 1099 1146 1094.5 1112.5 c 0,34,35
 1090 1079 1090 1079 1084.5 1045 c 0,36,37
 1079 1011 1079 1011 1073 980 c 0,38,-1
 1018 980 l 0,39,40
 1008 1026 1008 1026 1001 1060 c 0,41,42
 994 1094 994 1094 985 1116.5 c 0,43,44
 976 1139 976 1139 962.5 1149.5 c 0,45,46
 949 1160 949 1160 928 1160 c 0,47,-1
 656 1160 l 0,48,-1
 656 125 l 0,49,50
 656 119 656 119 664 110.5 c 0,51,52
 672 102 672 102 691 92 c 0,53,54
 710 82 710 82 741 72 c 0,55,56
 772 62 772 62 818 53 c 0,57,-1
 818 0 l 0,58,-1
 305 0 l 0,0,-1
EndSplineSet
EndChar

StartChar: U
Encoding: 56 85 56
Width: 1349
Flags: W
LayerCount: 2
Fore
SplineSet
1288 1207 m 0,0,1
 1220 1193 1220 1193 1182.5 1176 c 0,2,3
 1145 1159 1145 1159 1145 1145 c 0,4,-1
 1145 524 l 0,5,6
 1145 393 1145 393 1111.5 290 c 0,7,8
 1078 187 1078 187 1016 116 c 0,9,10
 954 45 954 45 866.5 7.5 c 0,11,12
 779 -30 779 -30 671 -30 c 0,13,14
 568 -30 568 -30 480 -1.5 c 0,15,16
 392 27 392 27 327.5 85.5 c 0,17,18
 263 144 263 144 226.5 233 c 0,19,20
 190 322 190 322 190 444 c 0,21,-1
 190 1145 l 0,22,23
 190 1157 190 1157 155 1175 c 0,24,25
 120 1193 120 1193 48 1207 c 0,26,-1
 48 1260 l 0,27,-1
 523 1260 l 0,28,-1
 523 1207 l 0,29,30
 455 1193 455 1193 417.5 1176 c 0,31,32
 380 1159 380 1159 380 1145 c 0,33,-1
 380 499 l 0,34,35
 380 307 380 307 463.5 201 c 0,36,37
 547 95 547 95 718 95 c 0,38,39
 789 95 789 95 842 128.5 c 0,40,41
 895 162 895 162 930 217 c 0,42,43
 965 272 965 272 982.5 343 c 0,44,45
 1000 414 1000 414 1000 488 c 0,46,-1
 1000 1145 l 0,47,48
 1000 1157 1000 1157 965 1175 c 0,49,50
 930 1193 930 1193 858 1207 c 0,51,-1
 858 1260 l 0,52,-1
 1288 1260 l 0,53,-1
 1288 1207 l 0,0,1
EndSplineSet
EndChar

StartChar: V
Encoding: 57 86 57
Width: 1341
Flags: W
LayerCount: 2
Fore
SplineSet
1303 1207 m 0,0,1
 1235 1194 1235 1194 1196.5 1181.5 c 0,2,3
 1158 1169 1158 1169 1148 1141 c 0,4,-1
 767 67 l 0,5,6
 759 45 759 45 738.5 28.5 c 0,7,8
 718 12 718 12 693.5 0 c 0,9,10
 669 -12 669 -12 644 -19 c 0,11,12
 619 -26 619 -26 602 -30 c 0,13,-1
 157 1141 l 0,14,15
 147 1167 147 1167 114 1183 c 0,16,17
 81 1199 81 1199 18 1207 c 0,18,-1
 18 1260 l 0,19,-1
 478 1260 l 0,20,-1
 478 1207 l 0,21,22
 398 1201 398 1201 369.5 1186.5 c 0,23,24
 341 1172 341 1172 352 1143 c 0,25,-1
 696 231 l 0,26,-1
 1019 1141 l 0,27,28
 1030 1170 1030 1170 997 1183.5 c 0,29,30
 964 1197 964 1197 882 1207 c 0,31,-1
 882 1260 l 0,32,-1
 1303 1260 l 0,33,-1
 1303 1207 l 0,0,1
EndSplineSet
EndChar

StartChar: W
Encoding: 58 87 58
Width: 1741
Flags: W
LayerCount: 2
Fore
SplineSet
1712 1207 m 0,0,1
 1668 1198 1668 1198 1639 1190 c 0,2,3
 1610 1182 1610 1182 1593 1174.5 c 0,4,5
 1576 1167 1576 1167 1568.5 1160 c 0,6,7
 1561 1153 1561 1153 1560 1145 c 0,8,-1
 1331 59 l 0,9,10
 1326 38 1326 38 1309.5 22.5 c 0,11,12
 1293 7 1293 7 1271.5 -3.5 c 0,13,14
 1250 -14 1250 -14 1227.5 -20.5 c 0,15,16
 1205 -27 1205 -27 1190 -30 c 0,17,-1
 859 922 l 0,18,-1
 572 59 l 0,19,20
 565 38 565 38 547.5 23 c 0,21,22
 530 8 530 8 508 -2.5 c 0,23,24
 486 -13 486 -13 462 -19.5 c 0,25,26
 438 -26 438 -26 418 -30 c 0,27,-1
 158 1137 l 0,28,29
 153 1162 153 1162 122 1178 c 0,30,31
 91 1194 91 1194 20 1207 c 0,32,-1
 20 1260 l 0,33,-1
 469 1260 l 0,34,-1
 469 1207 l 0,35,36
 420 1202 420 1202 392.5 1194.5 c 0,37,38
 365 1187 365 1187 351.5 1178 c 0,39,40
 338 1169 338 1169 336 1158.5 c 0,41,42
 334 1148 334 1148 336 1137 c 0,43,-1
 525 295 l 0,44,-1
 839 1260 l 0,45,-1
 909 1260 l 0,46,-1
 1256 295 l 0,47,-1
 1435 1145 l 0,48,49
 1437 1157 1437 1157 1426 1166 c 0,50,51
 1415 1175 1415 1175 1394 1182 c 0,52,53
 1373 1189 1373 1189 1344 1195 c 0,54,55
 1315 1201 1315 1201 1281 1207 c 0,56,-1
 1281 1260 l 0,57,-1
 1712 1260 l 0,58,-1
 1712 1207 l 0,0,1
EndSplineSet
EndChar

StartChar: X
Encoding: 59 88 59
Width: 1270
Flags: W
LayerCount: 2
Fore
SplineSet
763 0 m 0,0,-1
 763 53 l 0,1,2
 807 57 807 57 834 63.5 c 0,3,4
 861 70 861 70 873 79.5 c 0,5,6
 885 89 885 89 883.5 103 c 0,7,8
 882 117 882 117 868 137 c 0,9,-1
 604 523 l 0,10,-1
 360 137 l 0,11,12
 331 93 331 93 359 76 c 0,13,14
 387 59 387 59 479 53 c 0,15,-1
 479 0 l 0,16,-1
 29 0 l 0,17,-1
 29 53 l 0,18,19
 94 58 94 58 139.5 77 c 0,20,21
 185 96 185 96 211 137 c 0,22,-1
 525 639 l 0,23,-1
 195 1123 l 0,24,25
 180 1145 180 1145 166 1159 c 0,26,27
 152 1173 152 1173 134.5 1182 c 0,28,29
 117 1191 117 1191 94.5 1196.5 c 0,30,31
 72 1202 72 1202 39 1207 c 0,32,-1
 39 1260 l 0,33,-1
 520 1260 l 0,34,-1
 520 1207 l 0,35,36
 435 1199 435 1199 409 1182.5 c 0,37,38
 383 1166 383 1166 413 1123 c 0,39,-1
 647 780 l 0,40,-1
 861 1123 l 0,41,42
 875 1146 875 1146 874.5 1160.5 c 0,43,44
 874 1175 874 1175 859 1184.5 c 0,45,46
 844 1194 844 1194 814.5 1199 c 0,47,48
 785 1204 785 1204 740 1207 c 0,49,-1
 740 1260 l 0,50,-1
 1193 1260 l 0,51,-1
 1193 1207 l 0,52,53
 1157 1203 1157 1203 1128.5 1197.5 c 0,54,55
 1100 1192 1100 1192 1078 1182.5 c 0,56,57
 1056 1173 1056 1173 1039.5 1158.5 c 0,58,59
 1023 1144 1023 1144 1010 1123 c 0,60,-1
 724 667 l 0,61,-1
 1086 137 l 0,62,63
 1101 116 1101 116 1116 101.5 c 0,64,65
 1131 87 1131 87 1149.5 77.5 c 0,66,67
 1168 68 1168 68 1190.5 62.5 c 0,68,69
 1213 57 1213 57 1242 53 c 0,70,-1
 1242 0 l 0,71,-1
 763 0 l 0,0,-1
EndSplineSet
EndChar

StartChar: Y
Encoding: 60 89 60
Width: 1230
Flags: W
LayerCount: 2
Fore
SplineSet
355 0 m 0,0,-1
 355 53 l 0,1,2
 446 72 446 72 481.5 91.5 c 0,3,4
 517 111 517 111 517 125 c 0,5,-1
 517 535 l 0,6,7
 480 616 480 616 434 702.5 c 0,8,9
 388 789 388 789 340 871 c 0,10,11
 292 953 292 953 246.5 1023 c 0,12,13
 201 1093 201 1093 166 1141 c 0,14,15
 157 1152 157 1152 146 1161.5 c 0,16,17
 135 1171 135 1171 117.5 1178.5 c 0,18,19
 100 1186 100 1186 73 1190 c 0,20,21
 46 1194 46 1194 4 1194 c 0,22,-1
 0 1247 l 0,23,24
 29 1251 29 1251 61.5 1255 c 0,25,26
 94 1259 94 1259 125.5 1262.5 c 0,27,28
 157 1266 157 1266 185 1268 c 0,29,30
 213 1270 213 1270 234 1270 c 0,31,32
 258 1270 258 1270 280.5 1259.5 c 0,33,34
 303 1249 303 1249 320 1229 c 0,35,36
 357 1180 357 1180 399 1115 c 0,37,38
 441 1050 441 1050 483.5 977.5 c 0,39,40
 526 905 526 905 566.5 828.5 c 0,41,42
 607 752 607 752 642 680 c 0,43,-1
 899 1141 l 0,44,45
 914 1167 914 1167 889.5 1182 c 0,46,47
 865 1197 865 1197 788 1207 c 0,48,-1
 788 1260 l 0,49,-1
 1191 1260 l 0,50,-1
 1191 1207 l 0,51,52
 1123 1194 1123 1194 1087.5 1180 c 0,53,54
 1052 1166 1052 1166 1038 1141 c 0,55,-1
 707 536 l 0,56,-1
 707 125 l 0,57,58
 707 119 707 119 715 110.5 c 0,59,60
 723 102 723 102 741.5 92 c 0,61,62
 760 82 760 82 791.5 72 c 0,63,64
 823 62 823 62 870 53 c 0,65,-1
 870 0 l 0,66,-1
 355 0 l 0,0,-1
EndSplineSet
EndChar

StartChar: Z
Encoding: 61 90 61
Width: 1086
Flags: W
LayerCount: 2
Fore
SplineSet
1009 313 m 0,0,1
 1007 281 1007 281 1005.5 239 c 0,2,3
 1004 197 1004 197 1002.5 153.5 c 0,4,5
 1001 110 1001 110 999.5 69.5 c 0,6,7
 998 29 998 29 997 0 c 0,8,-1
 88 0 l 0,9,-1
 57 48 l 0,10,-1
 755 1150 l 0,11,-1
 319 1150 l 0,12,13
 303 1150 303 1150 283.5 1137 c 0,14,15
 264 1124 264 1124 245.5 1097.5 c 0,16,17
 227 1071 227 1071 210.5 1032 c 0,18,19
 194 993 194 993 183 941 c 0,20,-1
 116 955 l 0,21,-1
 148 1276 l 0,22,23
 175 1270 175 1270 197.5 1266.5 c 0,24,25
 220 1263 220 1263 241.5 1261.5 c 0,26,27
 263 1260 263 1260 286 1260 c 0,28,-1
 971 1260 l 0,29,-1
 999 1215 l 0,30,-1
 306 110 l 0,31,-1
 807 110 l 0,32,33
 828 110 828 110 845 121.5 c 0,34,35
 862 133 862 133 877.5 158.5 c 0,36,37
 893 184 893 184 909 226 c 0,38,39
 925 268 925 268 944 330 c 0,40,-1
 1009 313 l 0,0,1
EndSplineSet
EndChar

StartChar: bracketleft
Encoding: 62 91 62
Width: 651
Flags: W
LayerCount: 2
Fore
SplineSet
615 -242 m 0,0,1
 613 -252 613 -252 609 -264 c 0,2,-1
 601 -289 l 0,3,4
 597 -302 597 -302 592.5 -314 c 0,5,6
 588 -326 588 -326 584 -335 c 0,7,-1
 135 -335 l 0,8,-1
 135 1600 l 0,9,-1
 578 1600 l 0,10,-1
 613 1572 l 0,11,12
 611 1560 611 1560 607 1545.5 c 0,13,14
 603 1531 603 1531 599 1517.5 c 0,15,16
 595 1504 595 1504 591 1492.5 c 0,17,18
 587 1481 587 1481 584 1475 c 0,19,-1
 305 1475 l 0,20,-1
 305 -210 l 0,21,-1
 578 -210 l 0,22,-1
 615 -242 l 0,0,1
EndSplineSet
EndChar

StartChar: backslash
Encoding: 63 92 63
Width: 961
Flags: W
LayerCount: 2
Fore
SplineSet
873 -335 m 0,0,-1
 843 -325 l 0,1,2
 825 -319 825 -319 806.5 -311.5 c 0,3,4
 788 -304 788 -304 771.5 -296.5 c 0,5,6
 755 -289 755 -289 746 -282 c 0,7,-1
 50 1576 l 0,8,-1
 90 1600 l 0,9,10
 119 1592 119 1592 153 1579 c 0,11,12
 187 1566 187 1566 215 1549 c 0,13,-1
 910 -308 l 0,14,-1
 873 -335 l 0,0,-1
EndSplineSet
EndChar

StartChar: bracketright
Encoding: 64 93 64
Width: 651
Flags: W
LayerCount: 2
Fore
SplineSet
73 -335 m 0,0,-1
 38 -304 l 0,1,2
 39 -292 39 -292 42.5 -278.5 c 0,3,4
 46 -265 46 -265 50 -252 c 0,5,6
 54 -239 54 -239 58.5 -227.5 c 0,7,8
 63 -216 63 -216 66 -210 c 0,9,-1
 345 -210 l 0,10,-1
 345 1475 l 0,11,-1
 73 1475 l 0,12,-1
 36 1504 l 0,13,14
 39 1526 39 1526 49 1554.5 c 0,15,16
 59 1583 59 1583 66 1600 c 0,17,-1
 515 1600 l 0,18,-1
 515 -335 l 0,19,-1
 73 -335 l 0,0,-1
EndSplineSet
EndChar

StartChar: asciicircum
Encoding: 65 94 65
Width: 1008
Flags: W
LayerCount: 2
Fore
SplineSet
907 635 m 0,0,1
 882 612 882 612 858.5 596.5 c 0,2,3
 835 581 835 581 801 565 c 0,4,-1
 764 592 l 0,5,-1
 481 1315 l 0,6,-1
 231 635 l 0,7,8
 220 625 220 625 206 614.5 c 0,9,10
 192 604 192 604 177 594.5 c 0,11,12
 162 585 162 585 147.5 577.5 c 0,13,14
 133 570 133 570 123 565 c 0,15,-1
 100 592 l 0,16,-1
 422 1462 l 0,17,18
 434 1474 434 1474 451.5 1486.5 c 0,19,20
 469 1499 469 1499 487 1511 c 0,21,22
 505 1523 505 1523 523 1533 c 0,23,24
 541 1543 541 1543 555 1550 c 0,25,-1
 907 635 l 0,0,1
EndSplineSet
EndChar

StartChar: underscore
Encoding: 66 95 66
Width: 971
Flags: W
LayerCount: 2
Fore
SplineSet
910 -158 m 0,0,1
 908 -169 908 -169 904 -182 c 0,2,3
 900 -195 900 -195 895 -208.5 c 0,4,5
 890 -222 890 -222 885 -234.5 c 0,6,7
 880 -247 880 -247 876 -256 c 0,8,-1
 86 -256 l 0,9,-1
 58 -227 l 0,10,11
 63 -207 63 -207 74 -179 c 0,12,13
 85 -151 85 -151 94 -131 c 0,14,-1
 884 -131 l 0,15,-1
 910 -158 l 0,0,1
EndSplineSet
EndChar

StartChar: grave
Encoding: 67 96 67
Width: 653
Flags: W
LayerCount: 2
Fore
SplineSet
443 1081 m 0,0,1
 432 1072 432 1072 413 1061 c 0,2,3
 394 1050 394 1050 377 1045 c 0,4,-1
 15 1422 l 0,5,-1
 39 1468 l 0,6,7
 49 1470 49 1470 72 1474.5 c 0,8,9
 95 1479 95 1479 121.5 1483.5 c 0,10,11
 148 1488 148 1488 173 1492 c 0,12,13
 198 1496 198 1496 210 1497 c 0,14,-1
 443 1081 l 0,0,1
EndSplineSet
EndChar

StartChar: a
Encoding: 68 97 68
Width: 968
Flags: W
LayerCount: 2
Fore
SplineSet
956 92 m 0,0,1
 871 33 871 33 804.5 1.5 c 0,2,3
 738 -30 738 -30 707 -30 c 0,4,5
 672 -30 672 -30 649.5 15 c 0,6,7
 627 60 627 60 623 139 c 0,8,9
 578 93 578 93 533 61 c 0,10,11
 488 29 488 29 445.5 8.5 c 0,12,13
 403 -12 403 -12 364 -21 c 0,14,15
 325 -30 325 -30 293 -30 c 0,16,17
 255 -30 255 -30 216.5 -17.5 c 0,18,19
 178 -5 178 -5 146.5 22 c 0,20,21
 115 49 115 49 95 91 c 0,22,23
 75 133 75 133 75 191 c 0,24,25
 75 264 75 264 101 314 c 0,26,27
 127 364 127 364 164 401 c 0,28,29
 188 425 188 425 219 447 c 0,30,31
 250 469 250 469 300.5 489 c 0,32,33
 351 509 351 509 428.5 527.5 c 0,34,35
 506 546 506 546 623 564 c 0,36,-1
 623 697 l 0,37,38
 623 730 623 730 616 758.5 c 0,39,40
 609 787 609 787 591 807.5 c 0,41,42
 573 828 573 828 543 839.5 c 0,43,44
 513 851 513 851 468 850 c 0,45,46
 438 850 438 850 410 840 c 0,47,48
 382 830 382 830 360 813 c 0,49,50
 338 796 338 796 326 771.5 c 0,51,52
 314 747 314 747 317 717 c 0,53,54
 318 711 318 711 305.5 703 c 0,55,56
 293 695 293 695 273.5 687 c 0,57,58
 254 679 254 679 230.5 672 c 0,59,60
 207 665 207 665 184.5 660 c 0,61,62
 162 655 162 655 143.5 652.5 c 0,63,64
 125 650 125 650 117 652 c 0,65,-1
 101 696 l 0,66,67
 124 749 124 749 173 797 c 0,68,69
 222 845 222 845 285 881 c 0,70,71
 348 917 348 917 420 938.5 c 0,72,73
 492 960 492 960 562 960 c 0,74,75
 681 960 681 960 742 899 c 0,76,77
 803 838 803 838 803 735 c 0,78,-1
 803 198 l 0,79,80
 803 156 803 156 814 138 c 0,81,82
 825 120 825 120 843 120 c 0,83,84
 857 120 857 120 878 125 c 0,85,86
 899 130 899 130 939 147 c 0,87,-1
 956 92 l 0,0,1
372 115 m 0,88,89
 424 115 424 115 485.5 142.5 c 0,90,91
 547 170 547 170 623 235 c 0,92,-1
 623 481 l 0,93,94
 547 469 547 469 497 457 c 0,95,96
 447 445 447 445 414 432.5 c 0,97,98
 381 420 381 420 361.5 406.5 c 0,99,100
 342 393 342 393 327 377 c 0,101,102
 301 350 301 350 285 317 c 0,103,104
 269 284 269 284 269 239 c 0,105,106
 269 201 269 201 280 177 c 0,107,108
 291 153 291 153 307 139 c 0,109,110
 323 125 323 125 341 120 c 0,111,112
 359 115 359 115 372 115 c 0,88,89
EndSplineSet
EndChar

StartChar: b
Encoding: 69 98 69
Width: 1060
Flags: W
LayerCount: 2
Fore
SplineSet
811 411 m 0,0,1
 811 511 811 511 791.5 586 c 0,2,3
 772 661 772 661 739 711.5 c 0,4,5
 706 762 706 762 663 787.5 c 0,6,7
 620 813 620 813 572 813 c 0,8,9
 554 813 554 813 527 804.5 c 0,10,11
 500 796 500 796 466 775 c 0,12,13
 432 754 432 754 393.5 719.5 c 0,14,15
 355 685 355 685 315 633 c 0,16,-1
 315 208 l 0,17,18
 355 181 355 181 394.5 163 c 0,19,20
 434 145 434 145 469 133.5 c 0,21,22
 504 122 504 122 532 117.5 c 0,23,24
 560 113 560 113 577 113 c 0,25,26
 635 113 635 113 679 138 c 0,27,28
 723 163 723 163 752 204.5 c 0,29,30
 781 246 781 246 796 299.5 c 0,31,32
 811 353 811 353 811 411 c 0,0,1
975 497 m 0,33,34
 975 439 975 439 958 377.5 c 0,35,36
 941 316 941 316 909.5 257.5 c 0,37,38
 878 199 878 199 833 146.5 c 0,39,40
 788 94 788 94 733 55 c 0,41,42
 678 16 678 16 614 -7 c 0,43,44
 550 -30 550 -30 479 -30 c 0,45,46
 457 -30 457 -30 421 -21 c 0,47,48
 385 -12 385 -12 339.5 4.5 c 0,49,50
 294 21 294 21 241.5 44 c 0,51,52
 189 67 189 67 135 96 c 0,53,-1
 135 1286 l 0,54,55
 135 1332 135 1332 130.5 1357 c 0,56,57
 126 1382 126 1382 112.5 1394.5 c 0,58,59
 99 1407 99 1407 74 1411 c 0,60,61
 49 1415 49 1415 8 1420 c 0,62,-1
 8 1470 l 0,63,64
 83 1486 83 1486 148 1502.5 c 0,65,66
 213 1519 213 1519 276 1550 c 0,67,-1
 286 1540 l 0,68,69
 292 1534 292 1534 299 1528 c 0,70,71
 306 1521 306 1521 315 1514 c 0,72,-1
 315 752 l 0,73,74
 365 806 365 806 414.5 845.5 c 0,75,76
 464 885 464 885 509 910.5 c 0,77,78
 554 936 554 936 592.5 948 c 0,79,80
 631 960 631 960 660 960 c 0,81,82
 730 960 730 960 788 928 c 0,83,84
 846 896 846 896 887.5 836 c 0,85,86
 929 776 929 776 952 690.5 c 0,87,88
 975 605 975 605 975 497 c 0,33,34
EndSplineSet
EndChar

StartChar: c
Encoding: 70 99 70
Width: 908
Flags: W
LayerCount: 2
Fore
SplineSet
858 190 m 0,0,1
 793 114 793 114 741.5 70.5 c 0,2,3
 690 27 690 27 645.5 4.5 c 0,4,5
 601 -18 601 -18 559 -24 c 0,6,7
 517 -30 517 -30 470 -30 c 0,8,9
 394 -30 394 -30 323 2.5 c 0,10,11
 252 35 252 35 197 96 c 0,12,13
 142 157 142 157 108.5 245 c 0,14,15
 75 333 75 333 75 444 c 0,16,17
 75 552 75 552 114.5 646 c 0,18,19
 154 740 154 740 223.5 809.5 c 0,20,21
 293 879 293 879 388.5 919.5 c 0,22,23
 484 960 484 960 595 960 c 0,24,25
 628 960 628 960 665 954.5 c 0,26,27
 702 949 702 949 736.5 938.5 c 0,28,29
 771 928 771 928 799.5 913.5 c 0,30,31
 828 899 828 899 845 881 c 0,32,33
 847 869 847 869 841 842 c 0,34,35
 835 815 835 815 824.5 784.5 c 0,36,37
 814 754 814 754 802 726.5 c 0,38,39
 790 699 790 699 781 685 c 0,40,-1
 734 695 l 0,41,42
 723 723 723 723 704.5 750 c 0,43,44
 686 777 686 777 658.5 798 c 0,45,46
 631 819 631 819 594.5 832 c 0,47,48
 558 845 558 845 510 845 c 0,49,50
 460 845 460 845 414 823 c 0,51,52
 368 801 368 801 333 755 c 0,53,54
 298 709 298 709 276.5 639.5 c 0,55,56
 255 570 255 570 255 475 c 0,57,58
 255 392 255 392 279 325 c 0,59,60
 303 258 303 258 343 211 c 0,61,62
 383 164 383 164 436 138.5 c 0,63,64
 489 113 489 113 547 113 c 0,65,66
 575 113 575 113 600 116 c 0,67,68
 625 119 625 119 654 131 c 0,69,70
 683 143 683 143 721 168.5 c 0,71,72
 759 194 759 194 814 239 c 0,73,-1
 858 190 l 0,0,1
EndSplineSet
EndChar

StartChar: d
Encoding: 71 100 71
Width: 1093
Flags: W
LayerCount: 2
Fore
SplineSet
745 263 m 0,0,-1
 745 722 l 0,1,2
 711 780 711 780 653.5 811.5 c 0,3,4
 596 843 596 843 525 843 c 0,5,6
 466 843 466 843 416.5 821 c 0,7,8
 367 799 367 799 331 754 c 0,9,10
 295 709 295 709 275 641.5 c 0,11,12
 255 574 255 574 255 483 c 0,13,14
 255 400 255 400 278 332.5 c 0,15,16
 301 265 301 265 337 218 c 0,17,18
 373 171 373 171 417 145.5 c 0,19,20
 461 120 461 120 502 120 c 0,21,22
 534 120 534 120 564.5 131.5 c 0,23,24
 595 143 595 143 625 162.5 c 0,25,26
 655 182 655 182 685 208 c 0,27,28
 715 234 715 234 745 263 c 0,0,-1
1081 94 m 0,29,30
 988 32 988 32 925 1 c 0,31,32
 862 -30 862 -30 834 -30 c 0,33,34
 799 -30 799 -30 777.5 15 c 0,35,36
 756 60 756 60 748 161 c 0,37,38
 707 115 707 115 670 79.5 c 0,39,40
 633 44 633 44 594 19.5 c 0,41,42
 555 -5 555 -5 513 -17.5 c 0,43,44
 471 -30 471 -30 421 -30 c 0,45,46
 362 -30 362 -30 300.5 2.5 c 0,47,48
 239 35 239 35 189 96 c 0,49,50
 139 157 139 157 107 245 c 0,51,52
 75 333 75 333 75 444 c 0,53,54
 75 505 75 505 90.5 566.5 c 0,55,56
 106 628 106 628 135.5 685.5 c 0,57,58
 165 743 165 743 207.5 793 c 0,59,60
 250 843 250 843 303 880 c 0,61,62
 356 917 356 917 418.5 938.5 c 0,63,64
 481 960 481 960 551 960 c 0,65,66
 598 960 598 960 644.5 948.5 c 0,67,68
 691 937 691 937 745 899 c 0,69,-1
 745 1264 l 0,70,71
 745 1319 745 1319 742.5 1351.5 c 0,72,73
 740 1384 740 1384 726.5 1401.5 c 0,74,75
 713 1419 713 1419 684.5 1425.5 c 0,76,77
 656 1432 656 1432 603 1436 c 0,78,-1
 603 1485 l 0,79,80
 694 1496 694 1496 767 1514.5 c 0,81,82
 840 1533 840 1533 892 1550 c 0,83,-1
 925 1518 l 0,84,-1
 925 269 l 0,85,86
 925 234 925 234 926.5 209.5 c 0,87,88
 928 185 928 185 931 168.5 c 0,89,90
 934 152 934 152 938 142 c 0,91,92
 942 132 942 132 948 126 c 0,93,94
 953 121 953 121 960.5 119.5 c 0,95,96
 968 118 968 118 981.5 120.5 c 0,97,98
 995 123 995 123 1014.5 129 c 0,99,100
 1034 135 1034 135 1063 147 c 0,101,-1
 1081 94 l 0,29,30
EndSplineSet
EndChar

StartChar: e
Encoding: 72 101 72
Width: 961
Flags: W
LayerCount: 2
Fore
SplineSet
886 555 m 0,0,1
 868 535 868 535 833 515.5 c 0,2,3
 798 496 798 496 766 483 c 0,4,-1
 258 483 l 0,5,6
 259 407 259 407 279 339.5 c 0,7,8
 299 272 299 272 335 222 c 0,9,10
 371 172 371 172 422.5 142.5 c 0,11,12
 474 113 474 113 539 113 c 0,13,14
 570 113 570 113 599.5 117 c 0,15,16
 629 121 629 121 663 134.5 c 0,17,18
 697 148 697 148 739 174 c 0,19,20
 781 200 781 200 838 244 c 0,21,22
 851 237 851 237 863 220 c 0,23,24
 875 203 875 203 880 195 c 0,25,26
 812 123 812 123 760 79 c 0,27,28
 708 35 708 35 661.5 10.5 c 0,29,30
 615 -14 615 -14 569.5 -22 c 0,31,32
 524 -30 524 -30 470 -30 c 0,33,34
 390 -30 390 -30 318.5 3.5 c 0,35,36
 247 37 247 37 193 98 c 0,37,38
 139 159 139 159 107 245 c 0,39,40
 75 331 75 331 75 437 c 0,41,42
 75 504 75 504 89.5 568 c 0,43,44
 104 632 104 632 131.5 688 c 0,45,46
 159 744 159 744 199 792 c 0,47,48
 239 840 239 840 291 876 c 0,49,50
 315 893 315 893 344 908 c 0,51,52
 373 923 373 923 404.5 934.5 c 0,53,54
 436 946 436 946 469 953 c 0,55,56
 502 960 502 960 532 960 c 0,57,58
 597 960 597 960 649 943 c 0,59,60
 701 926 701 926 740.5 896.5 c 0,61,62
 780 867 780 867 807.5 827 c 0,63,64
 835 787 835 787 852.5 742 c 0,65,66
 870 697 870 697 878 649 c 0,67,68
 886 601 886 601 886 555 c 0,0,1
501 850 m 0,69,70
 451 850 451 850 410.5 830.5 c 0,71,72
 370 811 370 811 340 775.5 c 0,73,74
 310 740 310 740 290.5 690 c 0,75,76
 271 640 271 640 263 580 c 0,77,-1
 659 580 l 0,78,79
 682 580 682 580 689.5 587.5 c 0,80,81
 697 595 697 595 697 616 c 0,82,83
 697 644 697 644 689 684 c 0,84,85
 681 724 681 724 659.5 761 c 0,86,87
 638 798 638 798 600 824 c 0,88,89
 562 850 562 850 501 850 c 0,69,70
EndSplineSet
EndChar

StartChar: f
Encoding: 73 102 73
Width: 657
Flags: W
LayerCount: 2
Fore
SplineSet
842 1454 m 0,0,1
 842 1443 842 1443 825.5 1424 c 0,2,3
 809 1405 809 1405 786.5 1385 c 0,4,5
 764 1365 764 1365 740.5 1347.5 c 0,6,7
 717 1330 717 1330 702 1323 c 0,8,9
 654 1371 654 1371 607.5 1393 c 0,10,11
 561 1415 561 1415 532 1415 c 0,12,13
 506 1415 506 1415 478.5 1398 c 0,14,15
 451 1381 451 1381 428 1336.5 c 0,16,17
 405 1292 405 1292 390 1214.5 c 0,18,19
 375 1137 375 1137 375 1016 c 0,20,-1
 375 930 l 0,21,-1
 630 930 l 0,22,-1
 662 899 l 0,23,24
 653 884 653 884 639.5 867 c 0,25,26
 626 850 626 850 612.5 835 c 0,27,28
 599 820 599 820 586 808 c 0,29,30
 573 796 573 796 564 790 c 0,31,32
 541 802 541 802 498 813.5 c 0,33,34
 455 825 455 825 375 825 c 0,35,-1
 375 112 l 0,36,37
 375 106 375 106 385.5 100 c 0,38,39
 396 94 396 94 420 87.5 c 0,40,41
 444 81 444 81 483.5 72.5 c 0,42,43
 523 64 523 64 582 53 c 0,44,-1
 582 0 l 0,45,-1
 58 0 l 0,46,-1
 58 53 l 0,47,48
 127 65 127 65 161 82.5 c 0,49,50
 195 100 195 100 195 112 c 0,51,-1
 195 825 l 0,52,-1
 66 825 l 0,53,-1
 43 856 l 0,54,-1
 121 930 l 0,55,-1
 195 930 l 0,56,-1
 195 961 l 0,57,58
 195 1067 195 1067 209.5 1143 c 0,59,60
 224 1219 224 1219 249.5 1274 c 0,61,62
 275 1329 275 1329 309.5 1369 c 0,63,64
 344 1409 344 1409 384 1443 c 0,65,66
 414 1469 414 1469 449 1489 c 0,67,68
 484 1509 484 1509 517.5 1522.5 c 0,69,70
 551 1536 551 1536 582 1543 c 0,71,72
 613 1550 613 1550 636 1550 c 0,73,74
 672 1550 672 1550 708.5 1538 c 0,75,76
 745 1526 745 1526 774.5 1510.5 c 0,77,78
 804 1495 804 1495 823 1479 c 0,79,80
 842 1463 842 1463 842 1454 c 0,0,1
EndSplineSet
EndChar

StartChar: g
Encoding: 74 103 74
Width: 1019
Flags: W
LayerCount: 2
Fore
SplineSet
853 641 m 0,0,1
 853 564 853 564 818.5 500.5 c 0,2,3
 784 437 784 437 728 391.5 c 0,4,5
 672 346 672 346 599 320.5 c 0,6,7
 526 295 526 295 450 295 c 0,8,-1
 444 295 l 0,9,10
 400 257 400 257 384.5 232 c 0,11,12
 369 207 369 207 369 201 c 0,13,14
 369 190 369 190 378 179.5 c 0,15,16
 387 169 387 169 413.5 159 c 0,17,18
 440 149 440 149 488.5 139.5 c 0,19,20
 537 130 537 130 615 120 c 0,21,22
 727 107 727 107 800 83.5 c 0,23,24
 873 60 873 60 916 29.5 c 0,25,26
 959 -1 959 -1 976 -38 c 0,27,28
 993 -75 993 -75 993 -115 c 0,29,30
 993 -167 993 -167 972 -216 c 0,31,32
 951 -265 951 -265 914 -307.5 c 0,33,34
 877 -350 877 -350 827.5 -385 c 0,35,36
 778 -420 778 -420 721 -445 c 0,37,38
 664 -470 664 -470 602 -484 c 0,39,40
 540 -498 540 -498 480 -498 c 0,41,42
 431 -498 431 -498 378.5 -491.5 c 0,43,44
 326 -485 326 -485 275.5 -471 c 0,45,46
 225 -457 225 -457 179.5 -435.5 c 0,47,48
 134 -414 134 -414 99.5 -383.5 c 0,49,50
 65 -353 65 -353 45 -314.5 c 0,51,52
 25 -276 25 -276 25 -227 c 0,53,54
 25 -201 25 -201 35 -173.5 c 0,55,56
 45 -146 45 -146 73.5 -114.5 c 0,57,58
 102 -83 102 -83 153 -46 c 0,59,60
 204 -9 204 -9 287 36 c 0,61,62
 225 59 225 59 198.5 86.5 c 0,63,64
 172 114 172 114 172 143 c 0,65,66
 172 152 172 152 178.5 167 c 0,67,68
 185 182 185 182 202.5 203 c 0,69,70
 220 224 220 224 250.5 250.5 c 0,71,72
 281 277 281 277 328 310 c 0,73,74
 276 325 276 325 233 351.5 c 0,75,76
 190 378 190 378 159.5 415.5 c 0,77,78
 129 453 129 453 112 500 c 0,79,80
 95 547 95 547 95 602 c 0,81,82
 95 675 95 675 129 740.5 c 0,83,84
 163 806 163 806 219 854.5 c 0,85,86
 275 903 275 903 347.5 931.5 c 0,87,88
 420 960 420 960 498 960 c 0,89,90
 561 960 561 960 615.5 942.5 c 0,91,92
 670 925 670 925 715 894 c 0,93,94
 814 905 814 905 880.5 925 c 0,95,96
 947 945 947 945 989 960 c 0,97,-1
 1012 928 l 0,98,99
 1001 902 1001 902 988.5 875 c 0,100,101
 976 848 976 848 955 823 c 0,102,103
 919 817 919 817 882.5 812.5 c 0,104,105
 846 808 846 808 801 806 c 0,106,107
 826 770 826 770 839.5 728 c 0,108,109
 853 686 853 686 853 641 c 0,0,1
531 -17 m 0,110,111
 489 -12 489 -12 453.5 -6 c 0,112,113
 418 0 418 0 386 7 c 0,114,115
 324 -29 324 -29 288 -58.5 c 0,116,117
 252 -88 252 -88 233.5 -111.5 c 0,118,119
 215 -135 215 -135 210 -153.5 c 0,120,121
 205 -172 205 -172 205 -188 c 0,122,123
 205 -227 205 -227 231.5 -262 c 0,124,125
 258 -297 258 -297 304 -323 c 0,126,127
 350 -349 350 -349 411 -364.5 c 0,128,129
 472 -380 472 -380 540 -380 c 0,130,131
 604 -380 604 -380 655.5 -363 c 0,132,133
 707 -346 707 -346 742 -317 c 0,134,135
 777 -288 777 -288 796 -248 c 0,136,137
 815 -208 815 -208 815 -162 c 0,138,139
 815 -137 815 -137 803 -115 c 0,140,141
 791 -93 791 -93 759.5 -74.5 c 0,142,143
 728 -56 728 -56 673 -41.5 c 0,144,145
 618 -27 618 -27 531 -17 c 0,110,111
683 600 m 0,146,147
 683 652 683 652 667 698.5 c 0,148,149
 651 745 651 745 619 780 c 0,150,151
 587 815 587 815 540 835 c 0,152,153
 493 855 493 855 431 855 c 0,154,155
 406 855 406 855 377 842.5 c 0,156,157
 348 830 348 830 323 805.5 c 0,158,159
 298 781 298 781 281.5 744.5 c 0,160,161
 265 708 265 708 265 659 c 0,162,163
 265 607 265 607 280 560.5 c 0,164,165
 295 514 295 514 326 479.5 c 0,166,167
 357 445 357 445 404.5 425 c 0,168,169
 452 405 452 405 517 405 c 0,170,171
 546 405 546 405 575.5 417 c 0,172,173
 605 429 605 429 629 453.5 c 0,174,175
 653 478 653 478 668 514.5 c 0,176,177
 683 551 683 551 683 600 c 0,146,147
EndSplineSet
EndChar

StartChar: h
Encoding: 75 104 75
Width: 1150
Flags: W
LayerCount: 2
Fore
SplineSet
668 0 m 0,0,-1
 668 53 l 0,1,2
 740 72 740 72 772.5 86 c 0,3,4
 805 100 805 100 805 114 c 0,5,-1
 805 613 l 0,6,7
 805 674 805 674 798 712.5 c 0,8,9
 791 751 791 751 776 773.5 c 0,10,11
 761 796 761 796 737.5 804.5 c 0,12,13
 714 813 714 813 682 813 c 0,14,15
 616 813 616 813 535.5 754 c 0,16,17
 455 695 455 695 370 579 c 0,18,-1
 370 114 l 0,19,20
 370 99 370 99 406.5 83 c 0,21,22
 443 67 443 67 508 53 c 0,23,-1
 508 0 l 0,24,-1
 53 0 l 0,25,-1
 53 53 l 0,26,27
 119 70 119 70 154.5 83.5 c 0,28,29
 190 97 190 97 190 114 c 0,30,-1
 190 1288 l 0,31,32
 190 1330 190 1330 186.5 1353.5 c 0,33,34
 183 1377 183 1377 169.5 1390 c 0,35,36
 156 1403 156 1403 128.5 1408.5 c 0,37,38
 101 1414 101 1414 53 1420 c 0,39,-1
 53 1470 l 0,40,41
 100 1478 100 1478 137.5 1486 c 0,42,43
 175 1494 175 1494 207.5 1503.5 c 0,44,45
 240 1513 240 1513 269.5 1524 c 0,46,47
 299 1535 299 1535 331 1550 c 0,48,-1
 370 1514 l 0,49,-1
 370 717 l 0,50,51
 418 775 418 775 471 820.5 c 0,52,53
 524 866 524 866 576 897 c 0,54,55
 628 928 628 928 676.5 944 c 0,56,57
 725 960 725 960 764 960 c 0,58,59
 807 960 807 960 847 946.5 c 0,60,61
 887 933 887 933 917.5 905 c 0,62,63
 948 877 948 877 966.5 833.5 c 0,64,65
 985 790 985 790 985 729 c 0,66,-1
 985 114 l 0,67,68
 985 107 985 107 992 100.5 c 0,69,70
 999 94 999 94 1015 87 c 0,71,72
 1031 80 1031 80 1057.5 71.5 c 0,73,74
 1084 63 1084 63 1123 53 c 0,75,-1
 1123 0 l 0,76,-1
 668 0 l 0,0,-1
EndSplineSet
EndChar

StartChar: i
Encoding: 76 105 76
Width: 575
Flags: W
LayerCount: 2
Fore
SplineSet
418 1261 m 0,0,1
 418 1231 418 1231 407.5 1205 c 0,2,3
 397 1179 397 1179 379 1160 c 0,4,5
 361 1141 361 1141 336.5 1130 c 0,6,7
 312 1119 312 1119 284 1119 c 0,8,9
 236 1119 236 1119 209.5 1144.5 c 0,10,11
 183 1170 183 1170 183 1220 c 0,12,13
 183 1250 183 1250 193.5 1276 c 0,14,15
 204 1302 204 1302 222 1321 c 0,16,17
 240 1340 240 1340 264 1350.5 c 0,18,19
 288 1361 288 1361 315 1361 c 0,20,21
 362 1361 362 1361 390 1336.5 c 0,22,23
 418 1312 418 1312 418 1261 c 0,0,1
68 0 m 0,24,-1
 68 53 l 0,25,26
 136 67 136 67 170.5 83.5 c 0,27,28
 205 100 205 100 205 114 c 0,29,-1
 205 663 l 0,30,31
 205 714 205 714 203.5 745.5 c 0,32,33
 202 777 202 777 189.5 794.5 c 0,34,35
 177 812 177 812 149 820 c 0,36,37
 121 828 121 828 68 833 c 0,38,-1
 68 883 l 0,39,40
 139 895 139 895 211.5 915 c 0,41,42
 284 935 284 935 341 960 c 0,43,-1
 385 960 l 0,44,-1
 385 114 l 0,45,46
 385 102 385 102 417.5 84.5 c 0,47,48
 450 67 450 67 523 53 c 0,49,-1
 523 0 l 0,50,-1
 68 0 l 0,24,-1
EndSplineSet
EndChar

StartChar: j
Encoding: 77 106 77
Width: 550
Flags: W
LayerCount: 2
Fore
SplineSet
414 1261 m 0,0,1
 414 1231 414 1231 404 1205 c 0,2,3
 394 1179 394 1179 376 1160 c 0,4,5
 358 1141 358 1141 333.5 1130 c 0,6,7
 309 1119 309 1119 281 1119 c 0,8,9
 233 1119 233 1119 206 1144.5 c 0,10,11
 179 1170 179 1170 179 1220 c 0,12,13
 179 1250 179 1250 189.5 1276 c 0,14,15
 200 1302 200 1302 218 1321 c 0,16,17
 236 1340 236 1340 260 1350.5 c 0,18,19
 284 1361 284 1361 311 1361 c 0,20,21
 358 1361 358 1361 386 1336.5 c 0,22,23
 414 1312 414 1312 414 1261 c 0,0,1
380 102 m 0,24,25
 380 -14 380 -14 363.5 -94 c 0,26,27
 347 -174 347 -174 319 -230 c 0,28,29
 291 -286 291 -286 254.5 -324.5 c 0,30,31
 218 -363 218 -363 178 -395 c 0,32,33
 151 -416 151 -416 120 -435 c 0,34,35
 89 -454 89 -454 57.5 -468 c 0,36,37
 26 -482 26 -482 -3 -490 c 0,38,39
 -32 -498 -32 -498 -54 -498 c 0,40,41
 -88 -498 -88 -498 -121.5 -489.5 c 0,42,43
 -155 -481 -155 -481 -182 -469 c 0,44,45
 -209 -457 -209 -457 -226 -443.5 c 0,46,47
 -243 -430 -243 -430 -243 -421 c 0,48,49
 -243 -411 -243 -411 -226.5 -392 c 0,50,51
 -210 -373 -210 -373 -187 -353.5 c 0,52,53
 -164 -334 -164 -334 -140 -317 c 0,54,55
 -116 -300 -116 -300 -101 -293 c 0,56,57
 -68 -325 -68 -325 -28 -337.5 c 0,58,59
 12 -350 12 -350 50 -350 c 0,60,61
 78 -350 78 -350 105 -333 c 0,62,63
 132 -316 132 -316 153 -272 c 0,64,65
 174 -228 174 -228 187 -152 c 0,66,67
 200 -76 200 -76 200 43 c 0,68,-1
 200 663 l 0,69,70
 200 714 200 714 198 745 c 0,71,72
 196 776 196 776 183.5 793.5 c 0,73,74
 171 811 171 811 143 819 c 0,75,76
 115 827 115 827 63 833 c 0,77,-1
 63 883 l 0,78,79
 108 890 108 890 143 898.5 c 0,80,81
 178 907 178 907 209 916 c 0,82,83
 240 925 240 925 269.5 936 c 0,84,85
 299 947 299 947 333 960 c 0,86,-1
 380 960 l 0,87,-1
 380 102 l 0,24,25
EndSplineSet
EndChar

StartChar: k
Encoding: 78 107 78
Width: 1059
Flags: W
LayerCount: 2
Fore
SplineSet
53 0 m 0,0,-1
 53 53 l 0,1,2
 119 70 119 70 154.5 83 c 0,3,4
 190 96 190 96 190 114 c 0,5,-1
 190 1286 l 0,6,7
 190 1332 190 1332 185 1357 c 0,8,9
 180 1382 180 1382 165 1394.5 c 0,10,11
 150 1407 150 1407 123 1411 c 0,12,13
 96 1415 96 1415 53 1420 c 0,14,-1
 53 1470 l 0,15,16
 131 1484 131 1484 202.5 1502.5 c 0,17,18
 274 1521 274 1521 331 1550 c 0,19,-1
 370 1514 l 0,20,-1
 370 531 l 0,21,-1
 663 789 l 0,22,23
 696 818 696 818 704 835.5 c 0,24,25
 712 853 712 853 703 862 c 0,26,27
 694 871 694 871 672.5 874 c 0,28,29
 651 877 651 877 625 877 c 0,30,-1
 625 930 l 0,31,-1
 1027 930 l 0,32,-1
 1027 877 l 0,33,34
 983 872 983 872 943.5 859 c 0,35,36
 904 846 904 846 862 813 c 0,37,-1
 533 554 l 0,38,-1
 904 124 l 0,39,40
 918 108 918 108 932.5 97.5 c 0,41,42
 947 87 947 87 964.5 81.5 c 0,43,44
 982 76 982 76 1004.5 75 c 0,45,46
 1027 74 1027 74 1056 76 c 0,47,-1
 1062 23 l 0,48,49
 1033 16 1033 16 1001.5 10 c 0,50,51
 970 4 970 4 942 -0.5 c 0,52,53
 914 -5 914 -5 892 -7.5 c 0,54,55
 870 -10 870 -10 860 -10 c 0,56,57
 818 -10 818 -10 791.5 2 c 0,58,59
 765 14 765 14 743 43 c 0,60,-1
 370 520 l 0,61,-1
 370 114 l 0,62,63
 370 106 370 106 373.5 100 c 0,64,65
 377 94 377 94 388 87.5 c 0,66,67
 399 81 399 81 421 73 c 0,68,69
 443 65 443 65 480 53 c 0,70,-1
 480 0 l 0,71,-1
 53 0 l 0,0,-1
EndSplineSet
EndChar

StartChar: l
Encoding: 79 108 79
Width: 575
Flags: W
LayerCount: 2
Fore
SplineSet
58 0 m 0,0,-1
 58 53 l 0,1,2
 101 60 101 60 129.5 67.5 c 0,3,4
 158 75 158 75 174.5 82.5 c 0,5,6
 191 90 191 90 198 98 c 0,7,8
 205 106 205 106 205 114 c 0,9,-1
 205 1286 l 0,10,11
 205 1331 205 1331 199.5 1356 c 0,12,13
 194 1381 194 1381 178.5 1393.5 c 0,14,15
 163 1406 163 1406 136.5 1410.5 c 0,16,17
 110 1415 110 1415 68 1420 c 0,18,-1
 68 1470 l 0,19,20
 108 1477 108 1477 144 1484.5 c 0,21,22
 180 1492 180 1492 214 1501 c 0,23,24
 248 1510 248 1510 280.5 1522 c 0,25,26
 313 1534 313 1534 347 1550 c 0,27,-1
 385 1514 l 0,28,-1
 385 114 l 0,29,30
 385 99 385 99 418 83 c 0,31,32
 451 67 451 67 533 53 c 0,33,-1
 533 0 l 0,34,-1
 58 0 l 0,0,-1
EndSplineSet
EndChar

StartChar: m
Encoding: 80 109 80
Width: 1673
Flags: W
LayerCount: 2
Fore
SplineSet
1194 0 m 0,0,-1
 1194 53 l 0,1,2
 1266 72 1266 72 1295.5 86 c 0,3,4
 1325 100 1325 100 1325 114 c 0,5,-1
 1325 623 l 0,6,7
 1325 684 1325 684 1318.5 723 c 0,8,9
 1312 762 1312 762 1298.5 784.5 c 0,10,11
 1285 807 1285 807 1264.5 815 c 0,12,13
 1244 823 1244 823 1215 823 c 0,14,15
 1156 823 1156 823 1083 765.5 c 0,16,17
 1010 708 1010 708 938 603 c 0,18,-1
 938 114 l 0,19,20
 938 107 938 107 944.5 100.5 c 0,21,22
 951 94 951 94 966.5 87 c 0,23,24
 982 80 982 80 1008.5 71.5 c 0,25,26
 1035 63 1035 63 1074 53 c 0,27,-1
 1074 0 l 0,28,-1
 626 0 l 0,29,-1
 626 53 l 0,30,31
 698 72 698 72 728 86 c 0,32,33
 758 100 758 100 758 114 c 0,34,-1
 758 623 l 0,35,36
 758 684 758 684 752 723 c 0,37,38
 746 762 746 762 733.5 784.5 c 0,39,40
 721 807 721 807 700.5 815 c 0,41,42
 680 823 680 823 650 823 c 0,43,44
 590 823 590 823 520.5 766 c 0,45,46
 451 709 451 709 370 603 c 0,47,-1
 370 114 l 0,48,49
 370 99 370 99 405 83 c 0,50,51
 440 67 440 67 505 53 c 0,52,-1
 505 0 l 0,53,-1
 53 0 l 0,54,-1
 53 53 l 0,55,56
 119 70 119 70 154.5 83.5 c 0,57,58
 190 97 190 97 190 114 c 0,59,-1
 190 704 l 0,60,61
 190 744 190 744 186.5 767 c 0,62,63
 183 790 183 790 169.5 802.5 c 0,64,65
 156 815 156 815 128.5 821 c 0,66,67
 101 827 101 827 53 833 c 0,68,-1
 53 883 l 0,69,70
 95 889 95 889 130.5 897 c 0,71,72
 166 905 166 905 197.5 914.5 c 0,73,74
 229 924 229 924 258.5 935.5 c 0,75,76
 288 947 288 947 318 960 c 0,77,-1
 355 923 l 0,78,-1
 366 729 l 0,79,80
 463 851 463 851 552 905.5 c 0,81,82
 641 960 641 960 713 960 c 0,83,84
 761 960 761 960 800.5 948.5 c 0,85,86
 840 937 840 937 868.5 912 c 0,87,88
 897 887 897 887 913.5 847.5 c 0,89,90
 930 808 930 808 932 753 c 0,91,-1
 933 734 l 0,92,93
 1027 851 1027 851 1115.5 905.5 c 0,94,95
 1204 960 1204 960 1278 960 c 0,96,97
 1326 960 1326 960 1367 946.5 c 0,98,99
 1408 933 1408 933 1439 905 c 0,100,101
 1470 877 1470 877 1487.5 833.5 c 0,102,103
 1505 790 1505 790 1505 729 c 0,104,-1
 1505 114 l 0,105,106
 1505 100 1505 100 1536 86.5 c 0,107,108
 1567 73 1567 73 1646 53 c 0,109,-1
 1646 0 l 0,110,-1
 1194 0 l 0,0,-1
EndSplineSet
EndChar

StartChar: n
Encoding: 81 110 81
Width: 1150
Flags: W
LayerCount: 2
Fore
SplineSet
668 0 m 0,0,-1
 668 53 l 0,1,2
 740 72 740 72 772.5 86 c 0,3,4
 805 100 805 100 805 114 c 0,5,-1
 805 618 l 0,6,7
 805 677 805 677 799 715 c 0,8,9
 793 753 793 753 778.5 774.5 c 0,10,11
 764 796 764 796 741 804.5 c 0,12,13
 718 813 718 813 685 813 c 0,14,15
 656 813 656 813 621.5 801 c 0,16,17
 587 789 587 789 547.5 761.5 c 0,18,19
 508 734 508 734 463 689.5 c 0,20,21
 418 645 418 645 370 579 c 0,22,-1
 370 114 l 0,23,24
 370 99 370 99 406.5 83 c 0,25,26
 443 67 443 67 508 53 c 0,27,-1
 508 0 l 0,28,-1
 53 0 l 0,29,-1
 53 53 l 0,30,31
 119 70 119 70 154.5 83.5 c 0,32,33
 190 97 190 97 190 114 c 0,34,-1
 190 704 l 0,35,36
 190 743 190 743 187.5 766 c 0,37,38
 185 789 185 789 172 802 c 0,39,40
 159 815 159 815 131.5 821 c 0,41,42
 104 827 104 827 53 833 c 0,43,-1
 53 883 l 0,44,45
 130 894 130 894 193 913 c 0,46,47
 256 932 256 932 318 960 c 0,48,-1
 355 923 l 0,49,-1
 366 709 l 0,50,51
 415 770 415 770 468.5 817 c 0,52,53
 522 864 522 864 574.5 895.5 c 0,54,55
 627 927 627 927 676 943.5 c 0,56,57
 725 960 725 960 764 960 c 0,58,59
 807 960 807 960 847 946.5 c 0,60,61
 887 933 887 933 917.5 905 c 0,62,63
 948 877 948 877 966.5 833.5 c 0,64,65
 985 790 985 790 985 729 c 0,66,-1
 985 114 l 0,67,68
 985 107 985 107 992 100.5 c 0,69,70
 999 94 999 94 1015 87 c 0,71,72
 1031 80 1031 80 1057.5 71.5 c 0,73,74
 1084 63 1084 63 1123 53 c 0,75,-1
 1123 0 l 0,76,-1
 668 0 l 0,0,-1
EndSplineSet
EndChar

StartChar: o
Encoding: 82 111 82
Width: 1045
Flags: W
LayerCount: 2
Fore
SplineSet
970 485 m 0,0,1
 970 385 970 385 932.5 292 c 0,2,3
 895 199 895 199 831 127.5 c 0,4,5
 767 56 767 56 682.5 13 c 0,6,7
 598 -30 598 -30 504 -30 c 0,8,9
 406 -30 406 -30 327 6 c 0,10,11
 248 42 248 42 192 105 c 0,12,13
 136 168 136 168 105.5 255 c 0,14,15
 75 342 75 342 75 444 c 0,16,17
 75 510 75 510 91.5 574 c 0,18,19
 108 638 108 638 138 695.5 c 0,20,21
 168 753 168 753 210.5 801.5 c 0,22,23
 253 850 253 850 305 885 c 0,24,25
 357 920 357 920 417 940 c 0,26,27
 477 960 477 960 543 960 c 0,28,29
 640 960 640 960 718.5 924 c 0,30,31
 797 888 797 888 853 824.5 c 0,32,33
 909 761 909 761 939.5 674 c 0,34,35
 970 587 970 587 970 485 c 0,0,1
783 450 m 0,36,37
 783 529 783 529 760 600.5 c 0,38,39
 737 672 737 672 699.5 726.5 c 0,40,41
 662 781 662 781 613.5 813 c 0,42,43
 565 845 565 845 514 845 c 0,44,45
 442 845 442 845 394 816.5 c 0,46,47
 346 788 346 788 317 738 c 0,48,49
 288 688 288 688 275.5 620 c 0,50,51
 263 552 263 552 263 473 c 0,52,53
 263 394 263 394 287.5 323.5 c 0,54,55
 312 253 312 253 351 200 c 0,56,57
 390 147 390 147 438 116 c 0,58,59
 486 85 486 85 532 85 c 0,60,61
 599 85 599 85 646.5 110.5 c 0,62,63
 694 136 694 136 724.5 183 c 0,64,65
 755 230 755 230 769 298 c 0,66,67
 783 366 783 366 783 450 c 0,36,37
EndSplineSet
EndChar

StartChar: p
Encoding: 83 112 83
Width: 1105
Flags: W
LayerCount: 2
Fore
SplineSet
1030 495 m 0,0,1
 1030 434 1030 434 1014.5 372 c 0,2,3
 999 310 999 310 971.5 251.5 c 0,4,5
 944 193 944 193 907 141.5 c 0,6,7
 870 90 870 90 827.5 52 c 0,8,9
 785 14 785 14 738.5 -8 c 0,10,11
 692 -30 692 -30 646 -30 c 0,12,13
 587 -30 587 -30 517 0.5 c 0,14,15
 447 31 447 31 370 93 c 0,16,-1
 370 -365 l 0,17,18
 370 -381 370 -381 407.5 -397 c 0,19,20
 445 -413 445 -413 539 -427 c 0,21,-1
 539 -480 l 0,22,-1
 53 -480 l 0,23,-1
 53 -427 l 0,24,25
 119 -411 119 -411 154.5 -396.5 c 0,26,27
 190 -382 190 -382 190 -365 c 0,28,-1
 190 704 l 0,29,30
 190 741 190 741 186.5 765 c 0,31,32
 183 789 183 789 169 803.5 c 0,33,34
 155 818 155 818 128 824.5 c 0,35,36
 101 831 101 831 53 833 c 0,37,-1
 53 883 l 0,38,39
 95 890 95 890 129.5 898 c 0,40,41
 164 906 164 906 195 915 c 0,42,43
 226 924 226 924 256 935 c 0,44,45
 286 946 286 946 318 960 c 0,46,-1
 355 923 l 0,47,-1
 364 750 l 0,48,49
 416 806 416 806 465.5 846 c 0,50,51
 515 886 515 886 559.5 911.5 c 0,52,53
 604 937 604 937 641.5 948.5 c 0,54,55
 679 960 679 960 708 960 c 0,56,57
 776 960 776 960 835 929.5 c 0,58,59
 894 899 894 899 937.5 839.5 c 0,60,61
 981 780 981 780 1005.5 693.5 c 0,62,63
 1030 607 1030 607 1030 495 c 0,0,1
865 426 m 0,64,65
 865 516 865 516 844.5 589 c 0,66,67
 824 662 824 662 790.5 713.5 c 0,68,69
 757 765 757 765 713 792.5 c 0,70,71
 669 820 669 820 623 820 c 0,72,73
 605 820 605 820 579.5 811.5 c 0,74,75
 554 803 554 803 522 781.5 c 0,76,77
 490 760 490 760 452 724 c 0,78,79
 414 688 414 688 370 633 c 0,80,-1
 370 218 l 0,81,82
 418 185 418 185 456.5 164.5 c 0,83,84
 495 144 495 144 527.5 132.5 c 0,85,86
 560 121 560 121 587.5 117 c 0,87,88
 615 113 615 113 641 113 c 0,89,90
 690 113 690 113 731 133 c 0,91,92
 772 153 772 153 802 193 c 0,93,94
 832 233 832 233 848.5 291 c 0,95,96
 865 349 865 349 865 426 c 0,64,65
EndSplineSet
EndChar

StartChar: q
Encoding: 84 113 84
Width: 1078
Flags: W
LayerCount: 2
Fore
SplineSet
573 -480 m 0,0,-1
 573 -427 l 0,1,2
 667 -413 667 -413 705 -397.5 c 0,3,4
 743 -382 743 -382 743 -365 c 0,5,-1
 743 157 l 0,6,7
 703 112 703 112 665 77 c 0,8,9
 627 42 627 42 588 18 c 0,10,11
 549 -6 549 -6 506.5 -18 c 0,12,13
 464 -30 464 -30 414 -30 c 0,14,15
 357 -30 357 -30 297 2.5 c 0,16,17
 237 35 237 35 187.5 96 c 0,18,19
 138 157 138 157 106.5 245 c 0,20,21
 75 333 75 333 75 444 c 0,22,23
 75 532 75 532 101 604.5 c 0,24,25
 127 677 127 677 165.5 733 c 0,26,27
 204 789 204 789 248 828 c 0,28,29
 292 867 292 867 327 888 c 0,30,31
 384 920 384 920 444.5 940 c 0,32,33
 505 960 505 960 551 960 c 0,34,35
 579 960 579 960 606 956.5 c 0,36,37
 633 953 633 953 661.5 942.5 c 0,38,39
 690 932 690 932 720.5 912.5 c 0,40,41
 751 893 751 893 786 862 c 0,42,43
 804 872 804 872 823.5 885.5 c 0,44,45
 843 899 843 899 861.5 912.5 c 0,46,47
 880 926 880 926 895.5 938.5 c 0,48,49
 911 951 911 951 920 960 c 0,50,-1
 954 928 l 0,51,52
 945 898 945 898 938 864 c 0,53,54
 932 835 932 835 927.5 795 c 0,55,56
 923 755 923 755 923 710 c 0,57,-1
 923 -365 l 0,58,59
 923 -373 923 -373 930 -381 c 0,60,61
 937 -389 937 -389 953 -397 c 0,62,63
 969 -405 969 -405 995 -412.5 c 0,64,65
 1021 -420 1021 -420 1059 -427 c 0,66,-1
 1059 -480 l 0,67,-1
 573 -480 l 0,0,-1
500 120 m 0,68,69
 532 120 532 120 562.5 131.5 c 0,70,71
 593 143 593 143 623 163 c 0,72,73
 653 183 653 183 683 209 c 0,74,75
 713 235 713 235 743 264 c 0,76,-1
 743 720 l 0,77,78
 726 748 726 748 702 771 c 0,79,80
 678 794 678 794 649.5 810 c 0,81,82
 621 826 621 826 588.5 834.5 c 0,83,84
 556 843 556 843 523 843 c 0,85,86
 470 843 470 843 421.5 821 c 0,87,88
 373 799 373 799 336 755 c 0,89,90
 299 711 299 711 277 643.5 c 0,91,92
 255 576 255 576 255 485 c 0,93,94
 255 400 255 400 278 332.5 c 0,95,96
 301 265 301 265 336.5 217.5 c 0,97,98
 372 170 372 170 415.5 145 c 0,99,100
 459 120 459 120 500 120 c 0,68,69
EndSplineSet
EndChar

StartChar: r
Encoding: 85 114 85
Width: 844
Flags: W
LayerCount: 2
Fore
SplineSet
805 921 m 0,0,1
 814 915 814 915 812 881.5 c 0,2,3
 810 848 810 848 801.5 804 c 0,4,5
 793 760 793 760 780 715.5 c 0,6,7
 767 671 767 671 755 644 c 0,8,-1
 702 644 l 0,9,10
 691 725 691 725 662 765 c 0,11,12
 633 805 633 805 591 805 c 0,13,14
 570 805 570 805 542.5 790 c 0,15,16
 515 775 515 775 485 741.5 c 0,17,18
 455 708 455 708 425.5 654 c 0,19,20
 396 600 396 600 370 521 c 0,21,-1
 370 114 l 0,22,23
 370 99 370 99 409 83 c 0,24,25
 448 67 448 67 542 53 c 0,26,-1
 542 0 l 0,27,-1
 53 0 l 0,28,-1
 53 53 l 0,29,30
 119 68 119 68 154.5 82.5 c 0,31,32
 190 97 190 97 190 114 c 0,33,-1
 190 679 l 0,34,35
 190 712 190 712 188 734.5 c 0,36,37
 186 757 186 757 183 771 c 0,38,39
 180 785 180 785 175.5 793 c 0,40,41
 171 801 171 801 167 806 c 0,42,43
 160 813 160 813 152 817.5 c 0,44,45
 144 822 144 822 131 825 c 0,46,47
 118 828 118 828 99.5 829.5 c 0,48,49
 81 831 81 831 53 833 c 0,50,-1
 53 883 l 0,51,52
 93 891 93 891 128 899 c 0,53,54
 163 907 163 907 195 916 c 0,55,56
 227 925 227 925 257.5 935.5 c 0,57,58
 288 946 288 946 318 960 c 0,59,-1
 355 923 l 0,60,-1
 368 723 l 0,61,62
 395 773 395 773 427.5 816 c 0,63,64
 460 859 460 859 496.5 891 c 0,65,66
 533 923 533 923 573.5 941.5 c 0,67,68
 614 960 614 960 657 960 c 0,69,70
 692 960 692 960 730 951 c 0,71,72
 768 942 768 942 805 921 c 0,0,1
EndSplineSet
EndChar

StartChar: s
Encoding: 86 115 86
Width: 813
Flags: W
LayerCount: 2
Fore
SplineSet
727 283 m 0,0,1
 727 212 727 212 706.5 161.5 c 0,2,3
 686 111 686 111 653.5 76 c 0,4,5
 621 41 621 41 580.5 20 c 0,6,7
 540 -1 540 -1 499.5 -12 c 0,8,9
 459 -23 459 -23 423.5 -26.5 c 0,10,11
 388 -30 388 -30 366 -30 c 0,12,13
 339 -30 339 -30 307 -25.5 c 0,14,15
 275 -21 275 -21 240.5 -12 c 0,16,17
 206 -3 206 -3 170 11 c 0,18,19
 134 25 134 25 101 43 c 0,20,21
 94 46 94 46 91.5 76.5 c 0,22,23
 89 107 89 107 89.5 147.5 c 0,24,25
 90 188 90 188 95 231 c 0,26,27
 100 274 100 274 108 301 c 0,28,-1
 163 290 l 0,29,30
 168 244 168 244 189 205.5 c 0,31,32
 210 167 210 167 243 138.5 c 0,33,34
 276 110 276 110 319 94 c 0,35,36
 362 78 362 78 411 78 c 0,37,38
 483 78 483 78 525 115.5 c 0,39,40
 567 153 567 153 567 220 c 0,41,42
 567 260 567 260 546 291 c 0,43,44
 525 322 525 322 490.5 348 c 0,45,46
 456 374 456 374 412 397 c 0,47,48
 368 420 368 420 322 444 c 0,49,50
 280 465 280 465 240 489.5 c 0,51,52
 200 514 200 514 168.5 544.5 c 0,53,54
 137 575 137 575 118 612.5 c 0,55,56
 99 650 99 650 99 698 c 0,57,58
 99 760 99 760 126 809 c 0,59,60
 153 858 153 858 197 891.5 c 0,61,62
 241 925 241 925 298.5 942.5 c 0,63,64
 356 960 356 960 416 960 c 0,65,66
 451 960 451 960 490.5 954.5 c 0,67,68
 530 949 530 949 567.5 939 c 0,69,70
 605 929 605 929 637.5 915 c 0,71,72
 670 901 670 901 691 883 c 0,73,74
 697 878 697 878 693 854.5 c 0,75,76
 689 831 689 831 679.5 802.5 c 0,77,78
 670 774 670 774 658.5 747.5 c 0,79,80
 647 721 647 721 639 711 c 0,81,-1
 590 719 l 0,82,83
 550 796 550 796 499.5 830.5 c 0,84,85
 449 865 449 865 395 865 c 0,86,87
 363 865 363 865 337.5 855 c 0,88,89
 312 845 312 845 294.5 829.5 c 0,90,91
 277 814 277 814 268 794 c 0,92,93
 259 774 259 774 259 753 c 0,94,95
 259 721 259 721 277 695.5 c 0,96,97
 295 670 295 670 325.5 647.5 c 0,98,99
 356 625 356 625 396.5 604 c 0,100,101
 437 583 437 583 482 559 c 0,102,103
 525 537 525 537 569 512 c 0,104,105
 613 487 613 487 648 454.5 c 0,106,107
 683 422 683 422 705 380.5 c 0,108,109
 727 339 727 339 727 283 c 0,0,1
EndSplineSet
EndChar

StartChar: t
Encoding: 87 116 87
Width: 723
Flags: W
LayerCount: 2
Fore
SplineSet
696 130 m 0,0,1
 586 49 586 49 495 9.5 c 0,2,3
 404 -30 404 -30 351 -30 c 0,4,5
 314 -30 314 -30 280 -15.5 c 0,6,7
 246 -1 246 -1 220.5 30 c 0,8,9
 195 61 195 61 180 110 c 0,10,11
 165 159 165 159 165 229 c 0,12,-1
 165 825 l 0,13,-1
 39 825 l 0,14,-1
 15 856 l 0,15,-1
 93 930 l 0,16,-1
 165 930 l 0,17,-1
 165 1164 l 0,18,-1
 312 1283 l 0,19,-1
 345 1255 l 0,20,-1
 345 930 l 0,21,-1
 665 930 l 0,22,-1
 696 899 l 0,23,24
 687 884 687 884 673.5 867 c 0,25,26
 660 850 660 850 646 835 c 0,27,28
 632 820 632 820 618.5 808 c 0,29,30
 605 796 605 796 595 790 c 0,31,32
 571 802 571 802 522.5 813.5 c 0,33,34
 474 825 474 825 402 825 c 0,35,-1
 345 825 l 0,36,-1
 345 317 l 0,37,38
 345 260 345 260 351 222 c 0,39,40
 357 184 357 184 369 160.5 c 0,41,42
 381 137 381 137 400 127.5 c 0,43,44
 419 118 419 118 445 118 c 0,45,46
 480 118 480 118 531 132.5 c 0,47,48
 582 147 582 147 662 188 c 0,49,-1
 696 130 l 0,0,1
EndSplineSet
EndChar

StartChar: u
Encoding: 88 117 88
Width: 1108
Flags: W
LayerCount: 2
Fore
SplineSet
1094 92 m 0,0,1
 1057 68 1057 68 1019.5 46 c 0,2,3
 982 24 982 24 949 7 c 0,4,5
 916 -10 916 -10 890.5 -20 c 0,6,7
 865 -30 865 -30 853 -30 c 0,8,9
 835 -30 835 -30 820 -20 c 0,10,11
 805 -10 805 -10 793 12 c 0,12,13
 781 34 781 34 772.5 69.5 c 0,14,15
 764 105 764 105 760 156 c 0,16,17
 698 96 698 96 647 59.5 c 0,18,19
 596 23 596 23 553.5 3 c 0,20,21
 511 -17 511 -17 475.5 -23.5 c 0,22,23
 440 -30 440 -30 408 -30 c 0,24,25
 361 -30 361 -30 317.5 -17 c 0,26,27
 274 -4 274 -4 240 30.5 c 0,28,29
 206 65 206 65 185.5 125 c 0,30,31
 165 185 165 185 165 279 c 0,32,-1
 165 704 l 0,33,34
 165 752 165 752 162.5 778.5 c 0,35,36
 160 805 160 805 148 818.5 c 0,37,38
 136 832 136 832 110.5 837 c 0,39,40
 85 842 85 842 39 847 c 0,41,-1
 39 897 l 0,42,43
 79 901 79 901 114 906.5 c 0,44,45
 149 912 149 912 181.5 919.5 c 0,46,47
 214 927 214 927 246.5 937 c 0,48,49
 279 947 279 947 315 960 c 0,50,-1
 345 919 l 0,51,-1
 345 337 l 0,52,53
 345 269 345 269 354.5 225 c 0,54,55
 364 181 364 181 382 155 c 0,56,57
 400 129 400 129 426.5 118.5 c 0,58,59
 453 108 453 108 486 108 c 0,60,61
 514 108 514 108 544.5 116 c 0,62,63
 575 124 575 124 608.5 142 c 0,64,65
 642 160 642 160 679.5 189.5 c 0,66,67
 717 219 717 219 760 262 c 0,68,-1
 760 704 l 0,69,70
 760 749 760 749 756 776 c 0,71,72
 752 803 752 803 737.5 818 c 0,73,74
 723 833 723 833 696 839 c 0,75,76
 669 845 669 845 623 847 c 0,77,-1
 623 897 l 0,78,79
 704 906 704 906 775 923.5 c 0,80,81
 846 941 846 941 908 960 c 0,82,-1
 940 919 l 0,83,-1
 940 264 l 0,84,85
 940 202 940 202 944.5 168 c 0,86,87
 949 134 949 134 963 124 c 0,88,89
 975 116 975 116 1001.5 120.5 c 0,90,91
 1028 125 1028 125 1079 147 c 0,92,-1
 1094 92 l 0,0,1
EndSplineSet
EndChar

StartChar: v
Encoding: 89 118 89
Width: 1020
Flags: W
LayerCount: 2
Fore
SplineSet
1002 877 m 0,0,1
 972 870 972 870 953.5 864 c 0,2,3
 935 858 935 858 923.5 850.5 c 0,4,5
 912 843 912 843 906 833.5 c 0,6,7
 900 824 900 824 894 809 c 0,8,-1
 611 67 l 0,9,10
 602 45 602 45 584.5 28.5 c 0,11,12
 567 12 567 12 546 0 c 0,13,14
 525 -12 525 -12 503 -19 c 0,15,16
 481 -26 481 -26 464 -30 c 0,17,-1
 126 809 l 0,18,19
 116 837 116 837 92 851.5 c 0,20,21
 68 866 68 866 18 877 c 0,22,-1
 18 930 l 0,23,-1
 426 930 l 0,24,-1
 426 877 l 0,25,26
 387 872 387 872 363 867 c 0,27,28
 339 862 339 862 327 854.5 c 0,29,30
 315 847 315 847 313.5 836 c 0,31,32
 312 825 312 825 318 809 c 0,33,-1
 554 214 l 0,34,-1
 775 809 l 0,35,36
 781 824 781 824 780 834.5 c 0,37,38
 779 845 779 845 768.5 852.5 c 0,39,40
 758 860 758 860 736.5 865.5 c 0,41,42
 715 871 715 871 679 877 c 0,43,-1
 679 930 l 0,44,-1
 1002 930 l 0,45,-1
 1002 877 l 0,0,1
EndSplineSet
EndChar

StartChar: w
Encoding: 90 119 90
Width: 1454
Flags: W
LayerCount: 2
Fore
SplineSet
1435 877 m 0,0,1
 1405 870 1405 870 1387 863.5 c 0,2,3
 1369 857 1369 857 1358.5 850.5 c 0,4,5
 1348 844 1348 844 1343 835.5 c 0,6,7
 1338 827 1338 827 1335 815 c 0,8,-1
 1114 59 l 0,9,10
 1108 37 1108 37 1090 21.5 c 0,11,12
 1072 6 1072 6 1051 -4.5 c 0,13,14
 1030 -15 1030 -15 1009 -21 c 0,15,16
 988 -27 988 -27 975 -30 c 0,17,-1
 731 616 l 0,18,-1
 527 59 l 0,19,20
 519 36 519 36 502 20.5 c 0,21,22
 485 5 485 5 464.5 -5.5 c 0,23,24
 444 -16 444 -16 424 -21.5 c 0,25,26
 404 -27 404 -27 391 -30 c 0,27,-1
 127 815 l 0,28,29
 116 855 116 855 18 877 c 0,30,-1
 18 930 l 0,31,-1
 426 930 l 0,32,-1
 426 877 l 0,33,34
 379 872 379 872 353 865.5 c 0,35,36
 327 859 327 859 315.5 850.5 c 0,37,38
 304 842 304 842 303.5 833 c 0,39,40
 303 824 303 824 306 815 c 0,41,-1
 481 234 l 0,42,-1
 725 930 l 0,43,-1
 797 930 l 0,44,-1
 1054 234 l 0,45,-1
 1217 815 l 0,46,47
 1224 838 1224 838 1201.5 852 c 0,48,49
 1179 866 1179 866 1110 877 c 0,50,-1
 1110 930 l 0,51,-1
 1435 930 l 0,52,-1
 1435 877 l 0,0,1
EndSplineSet
EndChar

StartChar: x
Encoding: 91 120 91
Width: 1043
Flags: W
LayerCount: 2
Fore
SplineSet
597 0 m 0,0,-1
 597 53 l 0,1,2
 622 55 622 55 643.5 59 c 0,3,4
 665 63 665 63 677 72 c 0,5,6
 689 81 689 81 688.5 97 c 0,7,8
 688 113 688 113 668 140 c 0,9,-1
 488 386 l 0,10,-1
 309 140 l 0,11,12
 289 113 289 113 292 97 c 0,13,14
 295 81 295 81 311 72 c 0,15,16
 327 63 327 63 351 59 c 0,17,18
 375 55 375 55 399 53 c 0,19,-1
 399 0 l 0,20,-1
 18 0 l 0,21,-1
 18 53 l 0,22,23
 57 59 57 59 84 68.5 c 0,24,25
 111 78 111 78 130.5 90 c 0,26,27
 150 102 150 102 163.5 116.5 c 0,28,29
 177 131 177 131 188 146 c 0,30,-1
 427 470 l 0,31,-1
 196 788 l 0,32,33
 183 806 183 806 170 821.5 c 0,34,35
 157 837 157 837 139 848 c 0,36,37
 121 859 121 859 94.5 866.5 c 0,38,39
 68 874 68 874 29 877 c 0,40,-1
 29 930 l 0,41,-1
 474 930 l 0,42,-1
 474 877 l 0,43,44
 443 874 443 874 421.5 869 c 0,45,46
 400 864 400 864 390 854.5 c 0,47,48
 380 845 380 845 382.5 829.5 c 0,49,50
 385 814 385 814 403 790 c 0,51,-1
 547 591 l 0,52,-1
 691 790 l 0,53,54
 709 814 709 814 712 829.5 c 0,55,56
 715 845 715 845 706 854.5 c 0,57,58
 697 864 697 864 676 869 c 0,59,60
 655 874 655 874 624 877 c 0,61,-1
 624 930 l 0,62,-1
 1005 930 l 0,63,-1
 1005 877 l 0,64,65
 964 874 964 874 934.5 866.5 c 0,66,67
 905 859 905 859 882.5 848 c 0,68,69
 860 837 860 837 843.5 821.5 c 0,70,71
 827 806 827 806 814 788 c 0,72,-1
 608 507 l 0,73,-1
 871 146 l 0,74,75
 883 131 883 131 896.5 116.5 c 0,76,77
 910 102 910 102 928.5 89.5 c 0,78,79
 947 77 947 77 971.5 67 c 0,80,81
 996 57 996 57 1029 53 c 0,82,-1
 1029 0 l 0,83,-1
 597 0 l 0,0,-1
EndSplineSet
EndChar

StartChar: y
Encoding: 92 121 92
Width: 1020
Flags: W
LayerCount: 2
Fore
SplineSet
1002 877 m 0,0,1
 972 870 972 870 953 864 c 0,2,3
 934 858 934 858 922 850.5 c 0,4,5
 910 843 910 843 903.5 833.5 c 0,6,7
 897 824 897 824 892 809 c 0,8,-1
 558 -80 l 0,9,10
 516 -190 516 -190 464.5 -269 c 0,11,12
 413 -348 413 -348 357.5 -399 c 0,13,14
 302 -450 302 -450 244.5 -474 c 0,15,16
 187 -498 187 -498 132 -498 c 0,17,18
 94 -498 94 -498 60.5 -492.5 c 0,19,20
 27 -487 27 -487 2 -478.5 c 0,21,22
 -23 -470 -23 -470 -37.5 -459.5 c 0,23,24
 -52 -449 -52 -449 -52 -440 c 0,25,26
 -52 -433 -52 -433 -38 -412.5 c 0,27,28
 -24 -392 -24 -392 -4.5 -368 c 0,29,30
 15 -344 15 -344 37 -322 c 0,31,32
 59 -300 59 -300 75 -290 c 0,33,34
 123 -319 123 -319 172 -323 c 0,35,36
 221 -327 221 -327 258 -313 c 0,37,38
 276 -307 276 -307 298.5 -287.5 c 0,39,40
 321 -268 321 -268 344.5 -239 c 0,41,42
 368 -210 368 -210 390 -172.5 c 0,43,44
 412 -135 412 -135 430 -92 c 0,45,-1
 459 -23 l 0,46,-1
 129 809 l 0,47,48
 119 837 119 837 93.5 851.5 c 0,49,50
 68 866 68 866 18 877 c 0,51,-1
 18 930 l 0,52,-1
 426 930 l 0,53,-1
 426 877 l 0,54,55
 387 872 387 872 363.5 867 c 0,56,57
 340 862 340 862 328 854.5 c 0,58,59
 316 847 316 847 315 836 c 0,60,61
 314 825 314 825 321 809 c 0,62,-1
 553 217 l 0,63,-1
 773 809 l 0,64,65
 778 824 778 824 776.5 834.5 c 0,66,67
 775 845 775 845 763.5 852.5 c 0,68,69
 752 860 752 860 729 865.5 c 0,70,71
 706 871 706 871 670 877 c 0,72,-1
 670 930 l 0,73,-1
 1002 930 l 0,74,-1
 1002 877 l 0,0,1
EndSplineSet
EndChar

StartChar: z
Encoding: 93 122 93
Width: 923
Flags: W
LayerCount: 2
Fore
SplineSet
847 276 m 0,0,1
 847 244 847 244 846 204 c 0,2,3
 845 164 845 164 843.5 124.5 c 0,4,5
 842 85 842 85 840 51.5 c 0,6,7
 838 18 838 18 835 0 c 0,8,-1
 97 0 l 0,9,-1
 71 45 l 0,10,-1
 617 830 l 0,11,-1
 300 830 l 0,12,13
 282 830 282 830 264 822 c 0,14,15
 246 814 246 814 229.5 794.5 c 0,16,17
 213 775 213 775 198.5 742 c 0,18,19
 184 709 184 709 173 660 c 0,20,-1
 117 675 l 0,21,-1
 137 946 l 0,22,23
 159 940 159 940 177 936.5 c 0,24,25
 195 933 195 933 214.5 931.5 c 0,26,27
 234 930 234 930 257 930 c 0,28,-1
 828 930 l 0,29,-1
 850 887 l 0,30,-1
 301 100 l 0,31,-1
 697 100 l 0,32,33
 726 100 726 100 747 145.5 c 0,34,35
 768 191 768 191 792 288 c 0,36,-1
 847 276 l 0,0,1
EndSplineSet
EndChar

StartChar: braceleft
Encoding: 94 123 94
Width: 698
Flags: W
LayerCount: 2
Fore
SplineSet
664 1543 m 0,0,1
 625 1519 625 1519 591.5 1489 c 0,2,3
 558 1459 558 1459 534 1423 c 0,4,5
 510 1387 510 1387 496 1345.5 c 0,6,7
 482 1304 482 1304 482 1257 c 0,8,9
 482 1219 482 1219 485 1190.5 c 0,10,11
 488 1162 488 1162 492.5 1137 c 0,12,13
 497 1112 497 1112 502.5 1090 c 0,14,15
 508 1068 508 1068 512.5 1043 c 0,16,17
 517 1018 517 1018 520 989 c 0,18,19
 523 960 523 960 523 923 c 0,20,21
 523 881 523 881 510 840.5 c 0,22,23
 497 800 497 800 472.5 764.5 c 0,24,25
 448 729 448 729 414 700 c 0,26,27
 380 671 380 671 338 653 c 0,28,29
 438 635 438 635 480.5 565 c 0,30,31
 523 495 523 495 523 385 c 0,32,33
 523 327 523 327 516.5 283.5 c 0,34,35
 510 240 510 240 502.5 201.5 c 0,36,37
 495 163 495 163 488.5 124.5 c 0,38,39
 482 86 482 86 482 38 c 0,40,41
 482 -13 482 -13 489 -52 c 0,42,43
 496 -91 496 -91 515 -124 c 0,44,45
 534 -157 534 -157 567.5 -186 c 0,46,47
 601 -215 601 -215 654 -244 c 0,48,-1
 626 -315 l 0,49,50
 539 -281 539 -281 475 -244.5 c 0,51,52
 411 -208 411 -208 369 -163 c 0,53,54
 327 -118 327 -118 306.5 -61.5 c 0,55,56
 286 -5 286 -5 286 67 c 0,57,58
 286 124 286 124 292.5 164 c 0,59,60
 299 204 299 204 306.5 241 c 0,61,62
 314 278 314 278 320.5 320 c 0,63,64
 327 362 327 362 327 422 c 0,65,66
 327 503 327 503 288.5 542 c 0,67,68
 250 581 250 581 179 581 c 0,69,-1
 158 581 l 0,70,71
 152 581 152 581 147 580.5 c 0,72,73
 142 580 142 580 135.5 578.5 c 0,74,75
 129 577 129 577 114 575 c 0,76,-1
 97 638 l 0,77,78
 212 669 212 669 269.5 728.5 c 0,79,80
 327 788 327 788 327 863 c 0,81,82
 327 902 327 902 324 931.5 c 0,83,84
 321 961 321 961 316.5 985 c 0,85,86
 312 1009 312 1009 306.5 1030.5 c 0,87,88
 301 1052 301 1052 296.5 1076.5 c 0,89,90
 292 1101 292 1101 289 1130.5 c 0,91,92
 286 1160 286 1160 286 1200 c 0,93,94
 286 1267 286 1267 311 1325.5 c 0,95,96
 336 1384 336 1384 382 1433.5 c 0,97,98
 428 1483 428 1483 491.5 1524.5 c 0,99,100
 555 1566 555 1566 633 1600 c 0,101,-1
 664 1543 l 0,0,1
EndSplineSet
EndChar

StartChar: bar
Encoding: 95 124 95
Width: 469
Flags: W
LayerCount: 2
Fore
SplineSet
325 -351 m 0,0,1
 316 -359 316 -359 302 -367 c 0,2,3
 288 -375 288 -375 272.5 -382 c 0,4,5
 257 -389 257 -389 241 -395 c 0,6,7
 225 -401 225 -401 213 -405 c 0,8,-1
 175 -380 l 0,9,-1
 175 1619 l 0,10,11
 203 1636 203 1636 230.5 1649 c 0,12,13
 258 1662 258 1662 287 1670 c 0,14,-1
 325 1646 l 0,15,-1
 325 -351 l 0,0,1
EndSplineSet
EndChar

StartChar: braceright
Encoding: 96 125 96
Width: 698
Flags: W
LayerCount: 2
Fore
SplineSet
603 646 m 0,0,1
 486 615 486 615 429 556.5 c 0,2,3
 372 498 372 498 372 422 c 0,4,5
 372 383 372 383 375 354 c 0,6,7
 378 325 378 325 382.5 300.5 c 0,8,9
 387 276 387 276 392 254.5 c 0,10,11
 397 233 397 233 401.5 209 c 0,12,13
 406 185 406 185 409 155.5 c 0,14,15
 412 126 412 126 412 86 c 0,16,17
 412 18 412 18 387 -40 c 0,18,19
 362 -98 362 -98 316.5 -148 c 0,20,21
 271 -198 271 -198 207 -239.5 c 0,22,23
 143 -281 143 -281 66 -315 c 0,24,-1
 34 -257 l 0,25,26
 73 -233 73 -233 106.5 -203 c 0,27,28
 140 -173 140 -173 164 -137 c 0,29,30
 188 -101 188 -101 202 -59.5 c 0,31,32
 216 -18 216 -18 216 29 c 0,33,34
 216 85 216 85 209.5 123 c 0,35,36
 203 161 203 161 195.5 195.5 c 0,37,38
 188 230 188 230 182 268.5 c 0,39,40
 176 307 176 307 176 364 c 0,41,42
 176 405 176 405 189 445 c 0,43,44
 202 485 202 485 226 520.5 c 0,45,46
 250 556 250 556 284.5 584.5 c 0,47,48
 319 613 319 613 362 631 c 0,49,50
 261 650 261 650 218.5 720 c 0,51,52
 176 790 176 790 176 901 c 0,53,54
 176 959 176 959 182 1002.5 c 0,55,56
 188 1046 188 1046 195.5 1084.5 c 0,57,58
 203 1123 203 1123 209.5 1161 c 0,59,60
 216 1199 216 1199 216 1247 c 0,61,62
 216 1298 216 1298 209 1338 c 0,63,64
 202 1378 202 1378 182.5 1410.5 c 0,65,66
 163 1443 163 1443 129.5 1471.5 c 0,67,68
 96 1500 96 1500 44 1529 c 0,69,-1
 72 1600 l 0,70,71
 159 1567 159 1567 223 1530 c 0,72,73
 287 1493 287 1493 329 1448 c 0,74,75
 371 1403 371 1403 391.5 1347 c 0,76,77
 412 1291 412 1291 412 1219 c 0,78,79
 412 1162 412 1162 405.5 1122 c 0,80,81
 399 1082 399 1082 391.5 1044.5 c 0,82,83
 384 1007 384 1007 378 965.5 c 0,84,85
 372 924 372 924 372 864 c 0,86,87
 372 783 372 783 410.5 744 c 0,88,89
 449 705 449 705 521 705 c 0,90,-1
 551 705 l 0,91,92
 556 705 556 705 563 706 c 0,93,-1
 586 711 l 0,94,-1
 603 646 l 0,0,1
EndSplineSet
EndChar

StartChar: asciitilde
Encoding: 97 126 97
Width: 999
Flags: W
LayerCount: 2
Fore
SplineSet
950 774 m 0,0,1
 929 725 929 725 897 672.5 c 0,2,3
 865 620 865 620 825.5 576.5 c 0,4,5
 786 533 786 533 740.5 505 c 0,6,7
 695 477 695 477 647 477 c 0,8,9
 605 477 605 477 558 502 c 0,10,11
 511 527 511 527 462.5 557 c 0,12,13
 414 587 414 587 366.5 612 c 0,14,15
 319 637 319 637 276 637 c 0,16,17
 227 637 227 637 185.5 598 c 0,18,19
 144 559 144 559 102 475 c 0,20,-1
 49 502 l 0,21,22
 70 551 70 551 102.5 603.5 c 0,23,24
 135 656 135 656 174.5 699.5 c 0,25,26
 214 743 214 743 259 771 c 0,27,28
 304 799 304 799 352 799 c 0,29,30
 398 799 398 799 446.5 774 c 0,31,32
 495 749 495 749 542.5 719 c 0,33,34
 590 689 590 689 635.5 664 c 0,35,36
 681 639 681 639 721 639 c 0,37,38
 769 639 769 639 812 678 c 0,39,40
 855 717 855 717 897 799 c 0,41,-1
 950 774 l 0,0,1
EndSplineSet
EndChar

StartChar: exclam.taml
Encoding: 99 -1 99
Width: 917
Flags: W
LayerCount: 2
Fore
SplineSet
510 1290 m 0,0,1
 633 1290 633 1290 633 1081 c 1,2,3
 594 794 594 794 557 498 c 0,4,5
 543 387 543 387 524 205 c 1,6,-1
 506 205 l 1,7,8
 483 385 483 385 473 496 c 0,9,10
 440 777 440 777 397 1081 c 0,11,12
 395 1097 395 1097 395 1128 c 0,13,14
 395 1196 395 1196 426 1241 c 128,-1,15
 457 1286 457 1286 510 1290 c 0,0,1
514 20 m 0,16,17
 565 20 565 20 598 -12.5 c 128,-1,18
 631 -45 631 -45 631 -92 c 0,19,20
 631 -143 631 -143 598 -179 c 128,-1,21
 565 -215 565 -215 518 -215 c 256,22,23
 471 -215 471 -215 437 -181 c 128,-1,24
 403 -147 403 -147 403 -94 c 0,25,26
 403 -47 403 -47 436 -14.5 c 128,-1,27
 469 18 469 18 514 20 c 0,16,17
EndSplineSet
EndChar

StartChar: quoteleft.taml
Encoding: 100 -1 100
Width: 716
Flags: W
LayerCount: 2
Fore
SplineSet
506 1858 m 1,0,1
 369 1813 369 1813 287 1702 c 0,2,3
 219 1612 219 1612 219 1544 c 0,4,5
 219 1526 219 1526 230.5 1517.5 c 128,-1,6
 242 1509 242 1509 260 1509 c 256,7,8
 278 1509 278 1509 319 1536 c 128,-1,9
 360 1563 360 1563 385 1563 c 0,10,11
 416 1563 416 1563 438 1546 c 0,12,13
 524 1487 524 1487 524 1384 c 0,14,15
 524 1331 524 1331 496 1292 c 0,16,17
 473 1253 473 1253 433 1237 c 128,-1,18
 393 1221 393 1221 346 1221 c 0,19,20
 315 1221 315 1221 264 1226 c 128,-1,21
 213 1231 213 1231 165 1314 c 128,-1,22
 117 1397 117 1397 117 1493 c 0,23,24
 117 1532 117 1532 121 1550 c 0,25,26
 160 1755 160 1755 334 1868 c 0,27,28
 391 1905 391 1905 502 1944 c 1,29,-1
 506 1858 l 1,0,1
EndSplineSet
EndChar

StartChar: u20A8
Encoding: 101 8360 101
Width: 2293
Flags: W
LayerCount: 2
Fore
SplineSet
1995 246 m 0,0,1
 1995 135 1995 135 1911 59.5 c 128,-1,2
 1827 -16 1827 -16 1716 -16 c 0,3,4
 1665 -16 1665 -16 1582 0 c 128,-1,5
 1499 16 1499 16 1481 16 c 0,6,7
 1450 16 1450 16 1440 -2 c 1,8,-1
 1440 287 l 1,9,10
 1483 135 1483 135 1556 74 c 0,11,12
 1617 21 1617 21 1720 20 c 0,13,14
 1781 20 1781 20 1832.5 68.5 c 128,-1,15
 1884 117 1884 117 1884 168 c 0,16,17
 1884 242 1884 242 1812 299 c 0,18,19
 1767 336 1767 336 1651 393 c 0,20,21
 1528 459 1528 459 1495 489 c 0,22,23
 1436 542 1436 542 1436 639 c 0,24,25
 1436 748 1436 748 1502.5 812.5 c 128,-1,26
 1569 877 1569 877 1677 877 c 0,27,28
 1728 877 1728 877 1795 864.5 c 128,-1,29
 1862 852 1862 852 1866 852 c 0,30,31
 1897 852 1897 852 1907 877 c 1,32,-1
 1935 877 l 1,33,-1
 1935 608 l 1,34,-1
 1911 608 l 1,35,36
 1882 745 1882 745 1824.5 797.5 c 128,-1,37
 1767 850 1767 850 1667 850 c 0,38,39
 1608 850 1608 850 1560.5 814 c 128,-1,40
 1513 778 1513 778 1513 721 c 0,41,42
 1513 655 1513 655 1556 612 c 0,43,44
 1589 579 1589 579 1765 494 c 0,45,46
 1876 435 1876 435 1919 397 c 0,47,48
 1991 332 1991 332 1995 246 c 0,0,1
1278 12 m 1,49,-1
 948 12 l 1,50,-1
 514 618 l 1,51,-1
 369 614 l 1,52,-1
 365 231 l 2,53,54
 365 102 365 102 397 70 c 0,55,56
 420 47 420 47 506 47 c 2,57,-1
 547 47 l 1,58,-1
 547 16 l 1,59,-1
 23 16 l 1,60,-1
 23 47 l 1,61,-1
 49 47 l 2,62,63
 135 47 135 47 160 70 c 0,64,65
 203 107 203 107 203 231 c 2,66,-1
 203 1073 l 2,67,68
 203 1190 203 1190 169 1216.5 c 128,-1,69
 135 1243 135 1243 49 1243 c 2,70,-1
 16 1241 l 1,71,-1
 16 1278 l 1,72,-1
 469 1278 l 2,73,74
 741 1278 741 1278 869 1211.5 c 128,-1,75
 997 1145 997 1145 997 969 c 0,76,77
 997 854 997 854 926 774 c 0,78,79
 844 680 844 680 676 641 c 1,80,81
 809 461 809 461 874 373 c 0,82,83
 1083 99 1083 99 1109 83.5 c 128,-1,84
 1135 68 1135 68 1186 58.5 c 128,-1,85
 1237 49 1237 49 1274 45 c 1,86,-1
 1278 12 l 1,49,-1
811 944 m 0,87,88
 811 1061 811 1061 745 1135 c 0,89,90
 663 1229 663 1229 498 1229 c 0,91,92
 461 1229 461 1229 424 1229 c 0,93,94
 385 1221 385 1221 369 1219 c 1,95,-1
 369 674 l 1,96,97
 394 672 394 672 438 672 c 0,98,99
 604 672 604 672 708.5 750.5 c 128,-1,100
 813 829 813 829 811 944 c 0,87,88
EndSplineSet
EndChar

StartChar: percent.taml
Encoding: 102 -1 102
Width: 1665
Flags: W
LayerCount: 2
Fore
SplineSet
1430 449 m 0,0,1
 1430 244 1430 244 1333 133 c 0,2,3
 1253 43 1253 43 1143 43 c 0,4,5
 1030 43 1030 43 970.5 131 c 128,-1,6
 911 219 911 219 911 387 c 0,7,8
 911 610 911 610 1014 725 c 0,9,10
 1090 811 1090 811 1188 811 c 0,11,12
 1282 811 1282 811 1341 750 c 0,13,14
 1430 656 1430 656 1430 449 c 0,0,1
1221 1446 m 1,15,-1
 395 37 l 1,16,-1
 281 37 l 1,17,-1
 1102 1446 l 1,18,-1
 1221 1446 l 1,15,-1
606 1100 m 0,19,20
 606 877 606 877 504 762 c 0,21,22
 428 676 428 676 328 676 c 0,23,24
 234 676 234 676 174 737 c 0,25,26
 86 831 86 831 86 1034 c 0,27,28
 86 1239 86 1239 182 1350 c 0,29,30
 262 1440 262 1440 373 1440 c 0,31,32
 486 1440 486 1440 545 1352 c 128,-1,33
 604 1264 604 1264 606 1100 c 0,19,20
1311 338 m 0,34,35
 1311 510 1311 510 1255.5 587 c 128,-1,36
 1200 664 1200 664 1114 664 c 0,37,38
 1018 664 1018 664 1018 520 c 0,39,40
 1018 348 1018 348 1072 264 c 128,-1,41
 1126 180 1126 180 1221 180 c 0,42,43
 1311 180 1311 180 1311 338 c 0,34,35
489 956 m 0,44,45
 489 1128 489 1128 435 1212 c 128,-1,46
 381 1296 381 1296 287 1296 c 0,47,48
 197 1296 197 1296 197 1139 c 0,49,50
 197 969 197 969 256 887 c 0,51,52
 307 815 307 815 393 815 c 0,53,54
 489 815 489 815 489 956 c 0,44,45
EndSplineSet
EndChar

StartChar: ampersand.taml
Encoding: 103 -1 103
Width: 1447
Flags: W
LayerCount: 2
Fore
SplineSet
948 819 m 1,0,-1
 1325 819 l 1,1,-1
 1325 786 l 1,2,3
 1257 786 1257 786 1210 754 c 0,4,5
 1187 736 1187 736 1162 697.5 c 128,-1,6
 1137 659 1137 659 1098 586 c 0,7,8
 1026 449 1026 449 918 315 c 1,9,10
 949 278 949 278 991.5 241.5 c 128,-1,11
 1034 205 1034 205 1063 186 c 0,12,13
 1129 149 1129 149 1188 150 c 0,14,15
 1321 150 1321 150 1352 283 c 1,16,-1
 1389 258 l 1,17,18
 1321 10 1321 10 1116 10 c 0,19,20
 1046 10 1046 10 961 49 c 0,21,22
 922 72 922 72 884 102.5 c 128,-1,23
 846 133 846 133 795 184 c 1,24,25
 699 100 699 100 591 53 c 128,-1,26
 483 6 483 6 395 6 c 0,27,28
 264 6 264 6 171 87 c 128,-1,29
 78 168 78 168 78 285 c 0,30,31
 78 385 78 385 157 496.5 c 128,-1,32
 236 608 236 608 453 723 c 1,33,34
 379 891 379 891 379 993 c 0,35,36
 379 1126 379 1126 469 1207 c 128,-1,37
 559 1288 559 1288 696 1288 c 0,38,39
 798 1288 798 1288 868 1226.5 c 128,-1,40
 938 1165 938 1165 938 1071 c 256,41,42
 938 977 938 977 872.5 903 c 128,-1,43
 807 829 807 829 639 743 c 1,44,45
 698 639 698 639 757.5 545 c 128,-1,46
 817 451 817 451 879 371 c 1,47,48
 1035 561 1035 561 1034 690 c 0,49,50
 1034 729 1034 729 1015.5 757.5 c 128,-1,51
 997 786 997 786 952 791 c 1,52,-1
 948 819 l 1,0,-1
606 801 m 1,53,54
 829 910 829 910 829 1071 c 0,55,56
 829 1130 829 1130 789.5 1175.5 c 128,-1,57
 750 1221 750 1221 690 1221 c 0,58,59
 618 1221 618 1221 575 1169.5 c 128,-1,60
 532 1118 532 1118 532 1059 c 0,61,62
 532 1008 532 1008 544.5 956.5 c 128,-1,63
 557 905 557 905 606 801 c 1,53,54
743 229 m 1,64,65
 620 403 620 403 578 471 c 0,66,67
 547 522 547 522 479 653 c 1,68,69
 368 585 368 585 317 518 c 0,70,71
 266 442 266 442 266 360 c 0,72,73
 266 264 266 264 326 188 c 0,74,75
 359 151 359 151 396.5 130 c 128,-1,76
 434 109 434 109 481 109 c 0,77,78
 534 109 534 109 598.5 138.5 c 128,-1,79
 663 168 663 168 743 229 c 1,64,65
EndSplineSet
EndChar

StartChar: quoteright.taml
Encoding: 104 -1 104
Width: 716
Flags: W
LayerCount: 2
Fore
SplineSet
430 1577 m 0,0,1
 391 1372 391 1372 217 1257 c 0,2,3
 160 1220 160 1220 49 1182 c 1,4,-1
 49 1264 l 1,5,6
 186 1309 186 1309 268 1419 c 0,7,8
 336 1509 336 1509 336 1577 c 0,9,10
 336 1595 336 1595 324.5 1603.5 c 128,-1,11
 313 1612 313 1612 295 1612 c 256,12,13
 277 1612 277 1612 236 1585.5 c 128,-1,14
 195 1559 195 1559 170 1559 c 0,15,16
 139 1559 139 1559 117 1575 c 0,17,18
 31 1634 31 1634 31 1737 c 0,19,20
 31 1790 31 1790 59 1829 c 0,21,22
 82 1868 82 1868 122 1884.5 c 128,-1,23
 162 1901 162 1901 209 1901 c 0,24,25
 240 1901 240 1901 291 1895.5 c 128,-1,26
 342 1890 342 1890 390 1807 c 128,-1,27
 438 1724 438 1724 438 1628 c 0,28,29
 438 1589 438 1589 430 1577 c 0,0,1
EndSplineSet
EndChar

StartChar: parenleft.taml
Encoding: 105 -1 105
Width: 802
Flags: W
LayerCount: 2
Fore
SplineSet
862 -705 m 1,0,-1
 846 -723 l 1,1,2
 500 -528 500 -528 317 -182 c 0,3,4
 145 144 145 144 145 541 c 0,5,6
 145 947 145 947 313 1266 c 0,7,8
 493 1610 493 1610 846 1806 c 1,9,-1
 862 1790 l 1,10,11
 622 1600 622 1600 494.5 1266 c 128,-1,12
 367 932 367 932 367 545 c 0,13,14
 367 168 367 168 493.5 -167 c 128,-1,15
 620 -502 620 -502 862 -705 c 1,0,-1
EndSplineSet
EndChar

StartChar: parenright.taml
Encoding: 106 -1 106
Width: 802
Flags: W
LayerCount: 2
Fore
SplineSet
545 541 m 0,0,1
 545 138 545 138 377 -182 c 0,2,3
 197 -524 197 -524 -156 -721 c 1,4,-1
 -172 -702 l 1,5,6
 68 -501 68 -501 199 -154 c 0,7,8
 322 172 322 172 322 547 c 0,9,10
 322 936 322 936 199 1255 c 0,11,12
 68 1599 68 1599 -172 1790 c 1,13,-1
 -156 1806 l 1,14,15
 190 1611 190 1611 373 1266 c 0,16,17
 545 940 545 940 545 541 c 0,0,1
EndSplineSet
EndChar

StartChar: asterisk.taml
Encoding: 107 -1 107
Width: 1720
Flags: W
LayerCount: 2
Fore
SplineSet
840 1149 m 1,0,1
 783 1116 783 1116 725 1061 c 0,2,3
 657 993 657 993 592 926 c 0,4,5
 563 903 563 903 530 903 c 0,6,7
 483 903 483 903 459 946 c 0,8,9
 449 960 449 960 449 989 c 0,10,11
 449 1057 449 1057 490.5 1069 c 128,-1,12
 532 1081 532 1081 686 1124 c 0,13,14
 772 1147 772 1147 825 1178 c 1,15,16
 778 1201 778 1201 725 1217 c 0,17,18
 616 1246 616 1246 508 1276 c 1,19,20
 453 1301 453 1301 453 1362 c 0,21,22
 453 1387 453 1387 461 1403 c 0,23,24
 492 1446 492 1446 543 1446 c 0,25,26
 576 1446 576 1446 594 1427 c 0,27,28
 694 1323 694 1323 727 1290 c 0,29,30
 780 1237 780 1237 840 1198 c 1,31,32
 840 1270 840 1270 810 1371.5 c 128,-1,33
 780 1473 780 1473 770 1534 c 0,34,35
 770 1579 770 1579 795.5 1607.5 c 128,-1,36
 821 1636 821 1636 858 1636 c 256,37,38
 895 1636 895 1636 917.5 1607.5 c 128,-1,39
 940 1579 940 1579 940 1532 c 1,40,41
 901 1389 901 1389 891 1343 c 0,42,43
 873 1269 873 1269 872 1204 c 1,44,45
 929 1237 929 1237 989 1296 c 0,46,47
 1112 1419 1112 1419 1127.5 1431.5 c 128,-1,48
 1143 1444 1143 1444 1174 1444 c 0,49,50
 1225 1444 1225 1444 1255 1405 c 0,51,52
 1263 1382 1263 1382 1264 1364 c 0,53,54
 1264 1292 1264 1292 1206 1278 c 0,55,56
 1198 1276 1198 1276 1022 1231 c 0,57,58
 948 1213 948 1213 887 1182 c 1,59,60
 944 1151 944 1151 1029 1127.5 c 128,-1,61
 1114 1104 1114 1104 1208 1079 c 0,62,63
 1265 1065 1265 1065 1266 997 c 0,64,65
 1266 974 1266 974 1257 958 c 0,66,67
 1228 913 1228 913 1176 913 c 0,68,69
 1147 913 1147 913 1128 932 c 0,70,71
 1085 969 1085 969 991 1059 c 0,72,73
 930 1120 930 1120 877 1151 c 1,74,75
 877 1077 877 1077 905 975 c 0,76,77
 923 899 923 899 946 825 c 1,78,79
 946 780 946 780 922.5 750.5 c 128,-1,80
 899 721 899 721 866 721 c 256,81,82
 833 721 833 721 806.5 750.5 c 128,-1,83
 780 780 780 780 780 825 c 1,84,85
 794 901 794 901 823 999.5 c 128,-1,86
 852 1098 852 1098 840 1149 c 1,0,1
EndSplineSet
EndChar

StartChar: plus.taml
Encoding: 108 -1 108
Width: 1204
Flags: W
LayerCount: 2
Fore
SplineSet
504 741 m 1,0,-1
 504 956 l 1,1,-1
 698 956 l 1,2,-1
 698 741 l 1,3,-1
 913 741 l 1,4,-1
 913 547 l 1,5,-1
 698 547 l 1,6,-1
 698 332 l 1,7,-1
 504 332 l 1,8,-1
 504 547 l 1,9,-1
 289 547 l 1,10,-1
 289 741 l 1,11,-1
 504 741 l 1,0,-1
EndSplineSet
EndChar

StartChar: comma.taml
Encoding: 109 -1 109
Width: 630
Flags: W
LayerCount: 2
Fore
SplineSet
440 96 m 0,0,1
 440 -66 440 -66 326 -184 c 0,2,3
 179 -342 179 -342 68 -342 c 1,4,-1
 68 -266 l 1,5,6
 115 -266 115 -266 217 -178 c 0,7,8
 340 -74 340 -74 340 37 c 0,9,10
 340 70 340 70 307 70 c 0,11,12
 291 70 291 70 250 43 c 128,-1,13
 209 16 209 16 184 16 c 0,14,15
 141 16 141 16 94 71.5 c 128,-1,16
 47 127 47 127 47 186 c 0,17,18
 47 252 47 252 95 303 c 128,-1,19
 143 354 143 354 211 354 c 0,20,21
 311 354 311 354 376.5 271 c 128,-1,22
 442 188 442 188 440 96 c 0,0,1
EndSplineSet
EndChar

StartChar: hyphen.taml
Encoding: 110 -1 110
Width: 1146
Flags: W
LayerCount: 2
Fore
SplineSet
889 547 m 1,0,-1
 86 547 l 1,1,-1
 86 748 l 1,2,-1
 889 748 l 1,3,-1
 889 547 l 1,0,-1
EndSplineSet
EndChar

StartChar: period.taml
Encoding: 111 -1 111
Width: 630
Flags: W
LayerCount: 2
Fore
SplineSet
438 176 m 256,0,1
 438 102 438 102 384 51 c 128,-1,2
 330 0 330 0 256 0 c 0,3,4
 188 0 188 0 134 51 c 128,-1,5
 80 102 80 102 80 176 c 256,6,7
 80 250 80 250 131 301 c 128,-1,8
 182 352 182 352 256 352 c 256,9,10
 330 352 330 352 384 301 c 128,-1,11
 438 250 438 250 438 176 c 256,0,1
EndSplineSet
EndChar

StartChar: uni2215
Encoding: 113 8725 113
Width: 745
Flags: W
LayerCount: 2
Fore
SplineSet
745 1759 m 1,0,-1
 61 -270 l 1,1,-1
 -53 -270 l 1,2,-1
 635 1759 l 1,3,-1
 745 1759 l 1,0,-1
EndSplineSet
EndChar

StartChar: zero.taml
Encoding: 114 -1 114
Width: 950
Flags: W
LayerCount: 2
Fore
SplineSet
907 631 m 0,0,1
 907 393 907 393 825 219 c 0,2,3
 710 -23 710 -23 477 -23 c 0,4,5
 246 -23 246 -23 133 217 c 0,6,7
 51 391 51 391 51 631 c 0,8,9
 51 864 51 864 133 1040 c 0,10,11
 246 1286 246 1286 477 1286 c 256,12,13
 708 1286 708 1286 823 1042 c 0,14,15
 909 860 909 860 907 631 c 0,0,1
727 629 m 256,16,17
 727 924 727 924 665.5 1079.5 c 128,-1,18
 604 1235 604 1235 479 1235 c 0,19,20
 360 1235 360 1235 298 1077.5 c 128,-1,21
 236 920 236 920 236 629 c 0,22,23
 236 404 236 404 266 270 c 0,24,25
 321 24 321 24 479 25 c 0,26,27
 598 25 598 25 662.5 179.5 c 128,-1,28
 727 334 727 334 727 629 c 256,16,17
EndSplineSet
EndChar

StartChar: one.taml
Encoding: 115 -1 115
Width: 950
Flags: W
LayerCount: 2
Fore
SplineSet
223 0 m 1,0,-1
 223 29 l 1,1,2
 325 29 325 29 356 47 c 0,3,4
 403 76 403 76 403 176 c 2,5,-1
 403 1038 l 2,6,7
 403 1085 403 1085 399 1096 c 0,8,9
 385 1125 385 1125 340 1124 c 0,10,11
 317 1124 317 1124 309 1122 c 0,12,13
 264 1106 264 1106 213 1087 c 1,14,-1
 213 1112 l 1,15,-1
 555 1286 l 1,16,-1
 569 1282 l 1,17,-1
 569 139 l 2,18,19
 569 71 569 71 605 50 c 128,-1,20
 641 29 641 29 750 29 c 1,21,-1
 750 0 l 1,22,-1
 223 0 l 1,0,-1
EndSplineSet
EndChar

StartChar: two.taml
Encoding: 116 -1 116
Width: 950
Flags: W
LayerCount: 2
Fore
SplineSet
905 260 m 1,0,-1
 801 0 l 1,1,-1
 59 0 l 1,2,-1
 59 23 l 1,3,-1
 397 383 l 2,4,5
 645 649 645 649 645 872 c 0,6,7
 645 970 645 970 594 1042 c 0,8,9
 524 1142 524 1142 377 1143 c 0,10,11
 260 1143 260 1143 193 1061 c 0,12,13
 150 1014 150 1014 106 899 c 1,14,-1
 68 907 l 1,15,16
 107 1108 107 1108 225 1204 c 0,17,18
 327 1286 327 1286 467 1286 c 0,19,20
 600 1286 600 1286 704.5 1191 c 128,-1,21
 809 1096 809 1096 809 944 c 0,22,23
 809 811 809 811 721 672 c 0,24,25
 676 598 676 598 567 483 c 2,26,-1
 248 150 l 1,27,-1
 702 150 l 2,28,29
 761 150 761 150 795 169 c 128,-1,30
 829 188 829 188 881 270 c 1,31,-1
 905 260 l 1,0,-1
EndSplineSet
EndChar

StartChar: three.taml
Encoding: 117 -1 117
Width: 950
Flags: W
LayerCount: 2
Fore
SplineSet
821 412 m 0,0,1
 821 215 821 215 672.5 95 c 128,-1,2
 524 -25 524 -25 295 -25 c 0,3,4
 219 -25 219 -25 174 -10 c 0,5,6
 86 15 86 15 86 82 c 0,7,8
 86 115 86 115 109.5 130 c 128,-1,9
 133 145 133 145 158 145 c 0,10,11
 195 145 195 145 252 113 c 0,12,13
 375 39 375 39 426 39 c 0,14,15
 551 39 551 39 616.5 126 c 128,-1,16
 682 213 682 213 682 332 c 0,17,18
 682 471 682 471 565 553 c 0,19,20
 463 625 463 625 289 625 c 1,21,-1
 289 649 l 1,22,23
 436 692 436 692 510 760 c 0,24,25
 600 842 600 842 600 967 c 0,26,27
 600 1047 600 1047 553 1100 c 0,28,29
 498 1161 498 1161 397 1161 c 0,30,31
 282 1161 282 1161 201 1081 c 0,32,33
 150 1034 150 1034 117 961 c 1,34,-1
 88 969 l 1,35,36
 139 1137 139 1137 254 1212 c 0,37,38
 344 1273 344 1273 459 1274 c 0,39,40
 625 1274 625 1274 700 1178 c 0,41,42
 757 1106 757 1106 758 1018 c 0,43,44
 758 938 758 938 718 876.5 c 128,-1,45
 678 815 678 815 578 754 c 1,46,47
 711 697 711 697 765 614 c 128,-1,48
 819 531 819 531 821 412 c 0,0,1
EndSplineSet
EndChar

StartChar: four.taml
Encoding: 118 -1 118
Width: 950
Flags: W
LayerCount: 2
Fore
SplineSet
899 440 m 1,0,-1
 899 317 l 1,1,-1
 705 317 l 1,2,-1
 705 0 l 1,3,-1
 559 0 l 1,4,-1
 559 317 l 1,5,-1
 25 317 l 1,6,-1
 25 440 l 1,7,-1
 623 1288 l 1,8,-1
 705 1288 l 1,9,-1
 705 440 l 1,10,-1
 899 440 l 1,0,-1
557 440 m 1,11,-1
 557 1087 l 1,12,-1
 571 1087 l 2,13,14
 561 1087 561 1087 332 764 c 0,15,16
 258 660 258 660 104 442 c 1,17,-1
 557 440 l 1,11,-1
EndSplineSet
EndChar

StartChar: five.taml
Encoding: 119 -1 119
Width: 950
Flags: W
LayerCount: 2
Fore
SplineSet
344 1112 m 1,0,-1
 264 950 l 1,1,2
 426 925 426 925 500 897 c 0,3,4
 631 850 631 850 705 760 c 0,5,6
 771 684 771 684 789 624.5 c 128,-1,7
 807 565 807 565 807 440 c 0,8,9
 807 245 807 245 665.5 115.5 c 128,-1,10
 524 -14 524 -14 299 -14 c 0,11,12
 190 -14 190 -14 124.5 16.5 c 128,-1,13
 59 47 59 47 59 98 c 0,14,15
 59 127 59 127 71.5 149.5 c 128,-1,16
 84 172 84 172 135 172 c 0,17,18
 194 172 194 172 277 112.5 c 128,-1,19
 360 53 360 53 408 53 c 0,20,21
 510 53 510 53 591 141 c 128,-1,22
 672 229 672 229 672 391 c 0,23,24
 672 594 672 594 477 705 c 0,25,26
 325 791 325 791 129 791 c 0,27,28
 121 791 121 791 117 798 c 128,-1,29
 113 805 113 805 117 815 c 2,30,-1
 326 1264 l 1,31,-1
 723 1264 l 1,32,-1
 754 1264 l 2,33,34
 770 1266 770 1266 799 1282 c 0,35,36
 807 1286 807 1286 823 1296 c 1,37,-1
 752 1128 l 2,38,39
 744 1112 744 1112 711 1112 c 2,40,-1
 344 1112 l 1,0,-1
EndSplineSet
EndChar

StartChar: six.taml
Encoding: 120 -1 120
Width: 950
Flags: W
LayerCount: 2
Fore
SplineSet
850 1305 m 1,0,-1
 852 1274 l 1,1,2
 614 1237 614 1237 457 1071 c 0,3,4
 320 926 320 926 289 735 c 1,5,6
 371 786 371 786 419 802.5 c 128,-1,7
 467 819 467 819 537 819 c 0,8,9
 691 819 691 819 788 713.5 c 128,-1,10
 885 608 885 608 885 420 c 0,11,12
 885 266 885 266 811 150 c 0,13,14
 702 -18 702 -18 479 -18 c 0,15,16
 297 -18 297 -18 186 121 c 0,17,18
 63 273 63 273 63 561 c 0,19,20
 63 862 63 862 281 1079 c 0,21,22
 510 1309 510 1309 850 1305 c 1,0,-1
459 733 m 0,23,24
 402 733 402 733 357.5 721 c 128,-1,25
 313 709 313 709 281 676 c 0,26,27
 263 658 263 658 253.5 620 c 128,-1,28
 244 582 244 582 244 500 c 0,29,30
 244 273 244 273 320.5 157 c 128,-1,31
 397 41 397 41 514 41 c 0,32,33
 608 41 608 41 663.5 118 c 128,-1,34
 719 195 719 195 719 354 c 0,35,36
 719 526 719 526 668 621 c 0,37,38
 602 739 602 739 459 733 c 0,23,24
EndSplineSet
EndChar

StartChar: seven.taml
Encoding: 121 -1 121
Width: 950
Flags: W
LayerCount: 2
Fore
SplineSet
856 1262 m 1,0,-1
 856 1233 l 1,1,-1
 453 -14 l 1,2,-1
 328 -14 l 1,3,4
 375 129 375 129 422 274 c 0,5,6
 510 542 510 542 605 829 c 128,-1,7
 700 1116 700 1116 700 1118 c 2,8,-1
 289 1118 l 2,9,10
 207 1118 207 1118 160 1079 c 0,11,12
 127 1050 127 1050 74 965 c 1,13,-1
 41 979 l 1,14,-1
 154 1260 l 1,15,-1
 856 1262 l 1,0,-1
EndSplineSet
EndChar

StartChar: eight.taml
Encoding: 122 -1 122
Width: 950
Flags: W
LayerCount: 2
Fore
SplineSet
403 592 m 1,0,1
 337 539 337 539 307 494 c 0,2,3
 254 412 254 412 254 301 c 0,4,5
 254 184 254 184 316.5 107.5 c 128,-1,6
 379 31 379 31 494 31 c 0,7,8
 584 31 584 31 642 89 c 128,-1,9
 700 147 700 147 700 244 c 0,10,11
 700 361 700 361 596 451 c 0,12,13
 553 488 553 488 403 592 c 1,0,1
106 279 m 0,14,15
 106 412 106 412 201 506 c 0,16,17
 234 539 234 539 352 629 c 1,18,19
 219 746 219 746 176 803 c 0,20,21
 117 883 117 883 117 985 c 0,22,23
 117 1122 117 1122 226.5 1202 c 128,-1,24
 336 1282 336 1282 473 1282 c 0,25,26
 627 1282 627 1282 715 1205 c 128,-1,27
 803 1128 803 1128 803 1012 c 0,28,29
 803 922 803 922 751.5 853 c 128,-1,30
 700 784 700 784 549 705 c 1,31,32
 725 576 725 576 791 473 c 0,33,34
 842 391 842 391 842 287 c 0,35,36
 842 178 842 178 774 96 c 0,37,38
 674 -23 674 -23 465 -23 c 0,39,40
 293 -23 293 -23 197.5 67.5 c 128,-1,41
 102 158 102 158 106 279 c 0,14,15
254 1047 m 0,42,43
 254 953 254 953 348 858 c 0,44,45
 401 805 401 805 492 748 c 1,46,47
 588 809 588 809 628 877.5 c 128,-1,48
 668 946 668 946 668 1028 c 0,49,50
 668 1116 668 1116 621 1169 c 0,51,52
 564 1235 564 1235 459 1235 c 0,53,54
 359 1235 359 1235 306.5 1180 c 128,-1,55
 254 1125 254 1125 254 1047 c 0,42,43
EndSplineSet
EndChar

StartChar: nine.taml
Encoding: 123 -1 123
Width: 950
Flags: W
LayerCount: 2
Fore
SplineSet
111 -43 m 1,0,-1
 106 -4 l 1,1,2
 331 33 331 33 483 187.5 c 128,-1,3
 635 342 635 342 682 551 c 1,4,5
 549 451 549 451 401 451 c 0,6,7
 229 451 229 451 135 580 c 0,8,9
 59 684 59 684 59 823 c 0,10,11
 59 1020 59 1020 167.5 1151 c 128,-1,12
 276 1282 276 1282 459 1282 c 0,13,14
 635 1282 635 1282 753.5 1131.5 c 128,-1,15
 872 981 872 981 872 748 c 0,16,17
 872 424 872 424 676 199 c 0,18,19
 461 -47 461 -47 111 -43 c 1,0,-1
690 672 m 2,20,-1
 690 745 l 2,21,22
 690 985 690 985 627.5 1107 c 128,-1,23
 565 1229 565 1229 438 1229 c 0,24,25
 329 1229 329 1229 282.5 1131.5 c 128,-1,26
 236 1034 236 1034 236 897 c 0,27,28
 236 754 236 754 281 659 c 0,29,30
 342 528 342 528 475 528 c 0,31,32
 520 528 520 528 571.5 546.5 c 128,-1,33
 623 565 623 565 655.5 592 c 128,-1,34
 688 619 688 619 690 672 c 2,20,-1
EndSplineSet
EndChar

StartChar: colon.taml
Encoding: 124 -1 124
Width: 673
Flags: W
LayerCount: 2
Fore
SplineSet
459 950 m 256,0,1
 459 876 459 876 404.5 825 c 128,-1,2
 350 774 350 774 276 774 c 0,3,4
 208 774 208 774 154 825.5 c 128,-1,5
 100 877 100 877 100 950 c 256,6,7
 100 1024 100 1024 151.5 1075 c 128,-1,8
 203 1126 203 1126 276 1126 c 256,9,10
 350 1126 350 1126 404.5 1075 c 128,-1,11
 459 1024 459 1024 459 950 c 256,0,1
459 147 m 256,12,13
 459 73 459 73 404.5 22 c 128,-1,14
 350 -29 350 -29 276 -29 c 0,15,16
 208 -29 208 -29 154 22.5 c 128,-1,17
 100 74 100 74 100 147 c 256,18,19
 100 221 100 221 151.5 272.5 c 128,-1,20
 203 324 203 324 276 324 c 256,21,22
 350 324 350 324 404.5 272.5 c 128,-1,23
 459 221 459 221 459 147 c 256,12,13
EndSplineSet
EndChar

StartChar: semicolon.taml
Encoding: 125 -1 125
Width: 673
Flags: W
LayerCount: 2
Fore
SplineSet
440 950 m 256,0,1
 440 876 440 876 386 825 c 128,-1,2
 332 774 332 774 258 774 c 0,3,4
 190 774 190 774 136 825.5 c 128,-1,5
 82 877 82 877 82 950 c 256,6,7
 82 1024 82 1024 133 1075 c 128,-1,8
 184 1126 184 1126 258 1126 c 256,9,10
 332 1126 332 1126 386 1075 c 128,-1,11
 440 1024 440 1024 440 950 c 256,0,1
440 96 m 0,12,13
 440 -66 440 -66 326 -184 c 0,14,15
 179 -342 179 -342 68 -342 c 1,16,-1
 68 -295 l 1,17,18
 113 -295 113 -295 217 -193 c 0,19,20
 340 -74 340 -74 340 37 c 0,21,22
 340 70 340 70 307 70 c 0,23,24
 291 70 291 70 250 43 c 128,-1,25
 209 16 209 16 184 16 c 0,26,27
 141 16 141 16 94 71.5 c 128,-1,28
 47 127 47 127 47 186 c 0,29,30
 47 252 47 252 95 303 c 128,-1,31
 143 354 143 354 211 354 c 0,32,33
 311 354 311 354 376.5 271 c 128,-1,34
 442 188 442 188 440 96 c 0,12,13
EndSplineSet
EndChar

StartChar: less.taml
Encoding: 126 -1 126
Width: 1509
Flags: W
LayerCount: 2
Fore
SplineSet
1223 137 m 1,0,-1
 1223 -16 l 1,1,-1
 66 510 l 1,2,-1
 66 649 l 1,3,-1
 1223 1174 l 1,4,-1
 1223 1020 l 1,5,-1
 254 580 l 1,6,-1
 1223 137 l 1,0,-1
EndSplineSet
EndChar

StartChar: equal.taml
Encoding: 127 -1 127
Width: 1615
Flags: W
LayerCount: 2
Fore
SplineSet
1386 1028 m 1,0,-1
 1386 881 l 1,1,-1
 229 881 l 1,2,-1
 229 1028 l 1,3,-1
 1386 1028 l 1,0,-1
1386 569 m 1,4,-1
 1386 422 l 1,5,-1
 229 422 l 1,6,-1
 229 569 l 1,7,-1
 1386 569 l 1,4,-1
EndSplineSet
EndChar

StartChar: greater.taml
Encoding: 128 -1 128
Width: 1509
Flags: W
LayerCount: 2
Fore
SplineSet
66 137 m 1,0,-1
 1034 578 l 1,1,-1
 66 1018 l 1,2,-1
 66 1171 l 1,3,-1
 1223 647 l 1,4,-1
 1223 508 l 1,5,-1
 66 -18 l 1,6,-1
 66 137 l 1,0,-1
EndSplineSet
EndChar

StartChar: question.taml
Encoding: 129 -1 129
Width: 1140
Flags: W
LayerCount: 2
Fore
SplineSet
496 119 m 1,0,-1
 457 119 l 1,1,2
 457 209 457 209 485 317 c 0,3,4
 495 362 495 362 524 438 c 2,5,-1
 590 586 l 2,6,7
 619 658 619 658 645.5 760 c 128,-1,8
 672 862 672 862 672 922 c 0,9,10
 672 1039 672 1039 614 1118 c 0,11,12
 546 1212 546 1212 422 1212 c 0,13,14
 348 1212 348 1212 279.5 1171 c 128,-1,15
 211 1130 211 1130 211 1073 c 0,16,17
 211 1048 211 1048 236 1018 c 0,18,19
 295 944 295 944 295 905 c 0,20,21
 295 868 295 868 275.5 841.5 c 128,-1,22
 256 815 256 815 209 815 c 0,23,24
 150 815 150 815 123 855 c 128,-1,25
 96 895 96 895 96 956 c 0,26,27
 96 1114 96 1114 225 1208 c 0,28,29
 329 1284 329 1284 469 1284 c 0,30,31
 565 1284 565 1284 659.5 1246 c 128,-1,32
 754 1208 754 1208 801 1151 c 128,-1,33
 848 1094 848 1094 864.5 1044.5 c 128,-1,34
 881 995 881 995 881 907 c 0,35,36
 881 827 881 827 821 717 c 0,37,38
 776 629 776 629 711 553 c 0,39,40
 611 438 611 438 571 358 c 0,41,42
 525 262 525 262 496 119 c 1,0,-1
485 -270 m 256,43,44
 438 -270 438 -270 408 -248 c 0,45,46
 365 -217 365 -217 365 -156 c 0,47,48
 365 -105 365 -105 400.5 -69 c 128,-1,49
 436 -33 436 -33 487 -33 c 0,50,51
 534 -33 534 -33 571 -69.5 c 128,-1,52
 608 -106 608 -106 608 -154 c 0,53,54
 608 -211 608 -211 570 -240.5 c 128,-1,55
 532 -270 532 -270 485 -270 c 256,43,44
EndSplineSet
EndChar

StartChar: uni0952
Encoding: 133 2386 133
Width: 28
Flags: W
LayerCount: 2
Fore
SplineSet
-287 -311 m 1,0,-1
 -1581 -311 l 1,1,-1
 -1683 -150 l 1,2,-1
 -389 -150 l 1,3,-1
 -287 -311 l 1,0,-1
6 715 m 1,4,-1
 2 719 l 1,5,-1
 6 715 l 1,4,-1
6 715 m 1,6,-1
 2 719 l 1,7,-1
 6 715 l 1,6,-1
EndSplineSet
EndChar

StartChar: u0B83
Encoding: 136 2947 136
Width: 1462
Flags: W
LayerCount: 2
Fore
SplineSet
588 1272 m 256,0,1
 654 1272 654 1272 702 1224 c 128,-1,2
 750 1176 750 1176 750 1110 c 256,3,4
 750 1044 750 1044 701.5 996 c 128,-1,5
 653 948 653 948 588 948 c 256,6,7
 522 948 522 948 474 996 c 128,-1,8
 426 1044 426 1044 426 1110 c 256,9,10
 426 1176 426 1176 474 1224 c 128,-1,11
 522 1272 522 1272 588 1272 c 256,0,1
164 344 m 256,12,13
 230 344 230 344 278 296 c 128,-1,14
 326 248 326 248 326 182 c 256,15,16
 326 116 326 116 277.5 68 c 128,-1,17
 229 20 229 20 164 20 c 256,18,19
 98 20 98 20 50 68.5 c 128,-1,20
 2 117 2 117 2 182 c 256,21,22
 2 248 2 248 50 296 c 128,-1,23
 98 344 98 344 164 344 c 256,12,13
1012 344 m 256,24,25
 1078 344 1078 344 1126 296 c 128,-1,26
 1174 248 1174 248 1174 182 c 256,27,28
 1174 116 1174 116 1125.5 68 c 128,-1,29
 1077 20 1077 20 1012 20 c 256,30,31
 946 20 946 20 898 68.5 c 128,-1,32
 850 117 850 117 850 182 c 256,33,34
 850 248 850 248 898 296 c 128,-1,35
 946 344 946 344 1012 344 c 256,24,25
EndSplineSet
EndChar

StartChar: u0B85
Encoding: 137 2949 137
Width: 2351
Flags: HW
AnchorPoint: "V" 1046.5 1277.72 basechar 0
AnchorPoint: "N" 1046.5 -215 basechar 0
LayerCount: 2
Fore
SplineSet
2077 -215 m 1,0,-1
 1862 -215 l 1,1,-1
 1862 387 l 1,2,-1
 1587 387 l 1,3,4
 1476 205 1476 205 1259 103.5 c 128,-1,5
 1042 2 1042 2 770 2 c 0,6,7
 444 2 444 2 244 127 c 0,8,9
 105 215 105 215 18 369 c 0,10,11
 8 392 8 392 8 408 c 0,12,13
 8 441 8 441 29.5 461 c 128,-1,14
 51 481 51 481 98 481 c 2,15,-1
 1419 481 l 1,16,17
 1505 620 1505 620 1505 780 c 0,18,19
 1505 946 1505 946 1421 1036 c 128,-1,20
 1337 1126 1337 1126 1186 1159 c 1,21,22
 1311 1091 1311 1091 1311 887 c 0,23,24
 1311 758 1311 758 1249 682 c 0,25,26
 1175 592 1175 592 1022 592 c 0,27,28
 889 592 889 592 815 693.5 c 128,-1,29
 741 795 741 795 741 938 c 0,30,31
 741 1085 741 1085 839.5 1183.5 c 128,-1,32
 938 1282 938 1282 1118 1282 c 0,33,34
 1386 1282 1386 1282 1539 1137.5 c 128,-1,35
 1692 993 1692 993 1692 727 c 0,36,37
 1692 655 1692 655 1682.5 605 c 128,-1,38
 1673 555 1673 555 1645 481 c 1,39,-1
 1870 481 l 1,40,-1
 1870 1284 l 1,41,-1
 2085 1284 l 1,42,-1
 2077 -215 l 1,0,-1
1149 911 m 0,43,44
 1149 999 1149 999 1116 1060.5 c 128,-1,45
 1083 1122 1083 1122 1038 1141 c 1,46,47
 956 1151 956 1151 900 1086.5 c 128,-1,48
 844 1022 844 1022 844 928 c 256,49,50
 844 834 844 834 891 786.5 c 128,-1,51
 938 739 938 739 999 739 c 0,52,53
 1071 739 1071 739 1111 790 c 128,-1,54
 1151 841 1151 841 1149 911 c 0,43,44
1362 379 m 1,55,-1
 193 379 l 2,56,57
 134 379 134 379 133 348 c 0,58,59
 133 338 133 338 143 322 c 0,60,61
 211 222 211 222 338 164 c 0,62,63
 492 96 492 96 721 96 c 0,64,65
 1126 96 1126 96 1362 379 c 1,55,-1
EndSplineSet
EndChar

StartChar: u0B86
Encoding: 138 2950 138
Width: 2895
Flags: HW
AnchorPoint: "V" 1314.5 1255.78 basechar 0
AnchorPoint: "N" 1314.5 -715 basechar 0
LayerCount: 2
Fore
SplineSet
2609 131 m 1,0,1
 2609 -275 2609 -275 2343 -500 c 0,2,3
 2091 -715 2091 -715 1679 -715 c 0,4,5
 1306 -715 1306 -715 1104.5 -619.5 c 128,-1,6
 903 -524 903 -524 903 -348 c 0,7,8
 903 -229 903 -229 1008.5 -166.5 c 128,-1,9
 1114 -104 1114 -104 1268 -104 c 0,10,11
 1379 -104 1379 -104 1481 -140 c 128,-1,12
 1583 -176 1583 -176 1651 -238 c 1,13,-1
 1622 -289 l 1,14,15
 1554 -238 1554 -238 1453 -208 c 128,-1,16
 1352 -178 1352 -178 1251 -178 c 0,17,18
 1128 -178 1128 -178 1061.5 -221 c 128,-1,19
 995 -264 995 -264 995 -344 c 0,20,21
 995 -487 995 -487 1186 -557 c 0,22,23
 1346 -616 1346 -616 1589 -616 c 0,24,25
 1945 -616 1945 -616 2167.5 -403 c 128,-1,26
 2390 -190 2390 -190 2390 119 c 0,27,28
 2390 289 2390 289 2316 385 c 0,29,30
 2255 467 2255 467 2167 467 c 0,31,32
 2114 467 2114 467 2081 434 c 1,33,-1
 2081 -219 l 1,34,-1
 1866 -219 l 1,35,-1
 1866 383 l 1,36,-1
 1591 383 l 1,37,38
 1480 201 1480 201 1263.5 99.5 c 128,-1,39
 1047 -2 1047 -2 774 -2 c 0,40,41
 448 -2 448 -2 248 123 c 0,42,43
 109 211 109 211 23 365 c 0,44,45
 13 388 13 388 12 403 c 0,46,47
 12 436 12 436 33.5 456.5 c 128,-1,48
 55 477 55 477 102 477 c 2,49,-1
 1423 477 l 1,50,51
 1509 616 1509 616 1509 776 c 0,52,53
 1509 942 1509 942 1425 1032 c 128,-1,54
 1341 1122 1341 1122 1190 1155 c 1,55,56
 1315 1087 1315 1087 1315 883 c 0,57,58
 1315 754 1315 754 1253 678 c 0,59,60
 1179 588 1179 588 1026 588 c 0,61,62
 893 588 893 588 819 689.5 c 128,-1,63
 745 791 745 791 745 934 c 0,64,65
 745 1081 745 1081 843.5 1179.5 c 128,-1,66
 942 1278 942 1278 1122 1278 c 0,67,68
 1390 1278 1390 1278 1543 1133.5 c 128,-1,69
 1696 989 1696 989 1696 723 c 0,70,71
 1696 651 1696 651 1686.5 601 c 128,-1,72
 1677 551 1677 551 1649 477 c 1,73,-1
 1874 477 l 1,74,-1
 1874 1280 l 1,75,-1
 2089 1280 l 1,76,-1
 2089 526 l 1,77,78
 2157 594 2157 594 2257 594 c 0,79,80
 2402 594 2402 594 2509.5 468 c 128,-1,81
 2617 342 2617 342 2609 131 c 1,0,1
1151 905 m 0,82,83
 1151 993 1151 993 1118 1054.5 c 128,-1,84
 1085 1116 1085 1116 1040 1135 c 1,85,86
 958 1145 958 1145 902 1080.5 c 128,-1,87
 846 1016 846 1016 846 922 c 256,88,89
 846 828 846 828 893 780.5 c 128,-1,90
 940 733 940 733 1001 733 c 0,91,92
 1073 733 1073 733 1113 784 c 128,-1,93
 1153 835 1153 835 1151 905 c 0,82,83
1364 373 m 1,94,-1
 195 373 l 2,95,96
 136 373 136 373 135 342 c 0,97,98
 135 332 135 332 145 315 c 0,99,100
 213 215 213 215 340 158 c 0,101,102
 494 90 494 90 723 90 c 0,103,104
 1128 90 1128 90 1364 373 c 1,94,-1
EndSplineSet
EndChar

StartChar: u0B87
Encoding: 139 2951 139
Width: 2207
Flags: HW
AnchorPoint: "V" 979 1842.77 basechar 0
AnchorPoint: "N" 979 -258 basechar 0
LayerCount: 2
Fore
SplineSet
768 918 m 0,0,1
 768 1006 768 1006 735 1067 c 128,-1,2
 702 1128 702 1128 657 1147 c 1,3,4
 575 1157 575 1157 518 1092.5 c 128,-1,5
 461 1028 461 1028 461 934 c 256,6,7
 461 840 461 840 508 792.5 c 128,-1,8
 555 745 555 745 616 745 c 0,9,10
 688 745 688 745 728 796.5 c 128,-1,11
 768 848 768 848 768 918 c 0,0,1
854 -125 m 1,12,13
 965 -158 965 -158 1087 -158 c 0,14,15
 1234 -158 1234 -158 1314.5 -78 c 128,-1,16
 1395 2 1395 2 1395 113 c 0,17,18
 1395 172 1395 172 1354 227.5 c 128,-1,19
 1313 283 1313 283 1233 328 c 1,20,21
 1110 37 1110 37 854 -125 c 1,12,13
233 223 m 1,22,23
 100 127 100 127 100 18 c 0,24,25
 100 -62 100 -62 174 -110 c 128,-1,26
 248 -158 248 -158 365 -158 c 0,27,28
 476 -158 476 -158 578 -113 c 1,29,30
 445 -31 445 -31 340 86 c 0,31,32
 315 117 315 117 286.5 152.5 c 128,-1,33
 258 188 258 188 233 223 c 1,22,23
324 279 m 1,34,35
 361 226 361 226 376 206 c 128,-1,36
 391 186 391 186 436 139 c 0,37,38
 547 26 547 26 686 -53 c 1,39,40
 938 107 938 107 1057 401 c 1,41,42
 957 426 957 426 848 426 c 0,43,44
 717 426 717 426 579 389.5 c 128,-1,45
 441 353 441 353 324 279 c 1,34,35
1090 498 m 1,46,47
 1123 609 1123 609 1122 727 c 0,48,49
 1122 926 1122 926 1034 1034 c 0,50,51
 958 1128 958 1128 805 1161 c 1,52,53
 930 1093 930 1093 930 889 c 0,54,55
 930 760 930 760 868 684 c 0,56,57
 794 594 794 594 641 594 c 0,58,59
 508 594 508 594 434 695.5 c 128,-1,60
 360 797 360 797 360 940 c 0,61,62
 360 1087 360 1087 458.5 1185.5 c 128,-1,63
 557 1284 557 1284 737 1284 c 0,64,65
 1005 1284 1005 1284 1158 1139.5 c 128,-1,66
 1311 995 1311 995 1311 729 c 0,67,68
 1311 649 1311 649 1303.5 589.5 c 128,-1,69
 1296 530 1296 530 1274 449 c 1,70,71
 1417 398 1417 398 1507 310.5 c 128,-1,72
 1597 223 1597 223 1597 111 c 0,73,74
 1597 -71 1597 -71 1459 -162.5 c 128,-1,75
 1321 -254 1321 -254 1087 -254 c 0,76,77
 907 -254 907 -254 733 -184 c 1,78,79
 565 -254 565 -254 385 -254 c 0,80,81
 211 -254 211 -254 115 -188 c 0,82,83
 6 -114 6 -114 6 33 c 0,84,85
 6 113 6 113 51 182.5 c 128,-1,86
 96 252 96 252 182 317 c 1,87,88
 6 632 6 632 6 944 c 0,89,90
 6 1370 6 1370 289 1616 c 0,91,92
 551 1843 551 1843 954 1843 c 0,93,94
 1413 1843 1413 1843 1682.5 1543 c 128,-1,95
 1952 1243 1952 1243 1952 705 c 0,96,97
 1952 472 1952 472 1898 225 c 0,98,99
 1837 -64 1837 -64 1737 -258 c 1,100,-1
 1663 -227 l 1,101,102
 1722 -118 1722 -118 1780 92 c 0,103,104
 1854 373 1854 373 1853 641 c 0,105,106
 1853 1096 1853 1096 1600.5 1366 c 128,-1,107
 1348 1636 1348 1636 958 1636 c 0,108,109
 591 1636 591 1636 350 1431.5 c 128,-1,110
 109 1227 109 1227 109 924 c 0,111,112
 109 793 109 793 148.5 654.5 c 128,-1,113
 188 516 188 516 274 371 c 1,114,115
 548 516 548 516 866 516 c 0,116,117
 992 516 992 516 1090 498 c 1,46,47
EndSplineSet
EndChar

StartChar: u0B88
Encoding: 140 2952 140
Width: 1490
Flags: HW
AnchorPoint: "V" 596 1288 basechar 0
AnchorPoint: "N" 596 -2 basechar 0
LayerCount: 2
Fore
SplineSet
1192 645 m 256,0,1
 1192 592 1192 592 1156 556 c 128,-1,2
 1120 520 1120 520 1067 520 c 256,3,4
 1014 520 1014 520 978 556 c 128,-1,5
 942 592 942 592 942 645 c 256,6,7
 942 698 942 698 976 735 c 128,-1,8
 1010 772 1010 772 1067 772 c 0,9,10
 1118 772 1118 772 1155 735 c 128,-1,11
 1192 698 1192 698 1192 645 c 256,0,1
1104 1188 m 1,12,-1
 817 1188 l 1,13,-1
 817 -2 l 1,14,-1
 602 -2 l 1,15,-1
 602 1188 l 1,16,-1
 100 1188 l 1,17,-1
 100 -2 l 1,18,-1
 0 -2 l 1,19,-1
 0 1288 l 1,20,-1
 1104 1288 l 1,21,-1
 1104 1188 l 1,12,-1
477 643 m 256,22,23
 477 590 477 590 441.5 554 c 128,-1,24
 406 518 406 518 352 518 c 256,25,26
 299 518 299 518 263 554 c 128,-1,27
 227 590 227 590 227 643 c 256,28,29
 227 696 227 696 261 733 c 128,-1,30
 295 770 295 770 352 770 c 0,31,32
 403 770 403 770 440 733 c 128,-1,33
 477 696 477 696 477 643 c 256,22,23
EndSplineSet
EndChar

StartChar: u0B89
Encoding: 141 2953 141
Width: 2322
Flags: HW
AnchorPoint: "V" 1084.5 84 basechar 0
AnchorPoint: "N" 1084.5 0 basechar 0
LayerCount: 2
Fore
SplineSet
2107 0 m 2,0,-1
 227 0 l 2,1,2
 125 0 125 0 63.5 54.5 c 128,-1,3
 2 109 2 109 2 178 c 0,4,5
 2 252 2 252 61.5 306 c 128,-1,6
 121 360 121 360 225 360 c 2,7,-1
 588 360 l 2,8,9
 717 360 717 360 803 483 c 0,10,11
 879 594 879 594 879 733 c 0,12,13
 879 948 879 948 788 1059 c 0,14,15
 688 1182 688 1182 465 1182 c 0,16,17
 322 1182 322 1182 212 1101 c 128,-1,18
 102 1020 102 1020 102 920 c 1,19,20
 172 1039 172 1039 313 1038 c 0,21,22
 436 1038 436 1038 510 951 c 128,-1,23
 584 864 584 864 584 735 c 0,24,25
 584 596 584 596 504 519 c 128,-1,26
 424 442 424 442 287 442 c 0,27,28
 131 442 131 442 57 573 c 0,29,30
 -2 677 -2 677 -2 864 c 0,31,32
 -2 1030 -2 1030 129 1149 c 0,33,34
 270 1280 270 1280 502 1280 c 0,35,36
 783 1280 783 1280 930 1134.5 c 128,-1,37
 1077 989 1077 989 1077 743 c 0,38,39
 1077 245 1077 245 588 246 c 2,40,-1
 303 246 l 2,41,42
 248 246 248 246 215 222.5 c 128,-1,43
 182 199 182 199 182 166 c 0,44,45
 182 84 182 84 301 84 c 2,46,-1
 2103 84 l 2,47,48
 2171 84 2171 84 2171 41 c 256,49,50
 2170 -2 2170 -2 2107 0 c 2,0,-1
399 791 m 0,51,52
 389 838 389 838 346 871.5 c 128,-1,53
 303 905 303 905 252 905 c 0,54,55
 156 905 156 905 98 803 c 1,56,57
 98 703 98 703 143 636 c 128,-1,58
 188 569 188 569 264 569 c 0,59,60
 332 569 332 569 367.5 621.5 c 128,-1,61
 403 674 403 674 403 741 c 0,62,63
 403 758 403 758 399 791 c 0,51,52
EndSplineSet
EndChar

StartChar: u0B8A
Encoding: 142 2954 142
Width: 3725
Flags: HW
AnchorPoint: "V" 1733.5 1246.97 basechar 0
AnchorPoint: "N" 1733.5 2 basechar 0
LayerCount: 2
Fore
SplineSet
3469 1190 m 1,0,-1
 3183 1190 l 1,1,-1
 3183 172 l 1,2,-1
 2968 172 l 1,3,-1
 2968 1190 l 1,4,-1
 2638 1190 l 1,5,-1
 2638 172 l 1,6,-1
 2423 172 l 1,7,-1
 2423 899 l 2,8,9
 2423 1028 2423 1028 2314.5 1108 c 128,-1,10
 2206 1188 2206 1188 2017 1188 c 0,11,12
 1798 1188 1798 1188 1636 1073 c 0,13,14
 1489 971 1489 971 1489 866 c 1,15,16
 1526 913 1526 913 1598.5 942 c 128,-1,17
 1671 971 1671 971 1765 971 c 0,18,19
 1919 971 1919 971 2021.5 862.5 c 128,-1,20
 2124 754 2124 754 2124 586 c 0,21,22
 2124 396 2124 396 2047 286 c 128,-1,23
 1970 176 1970 176 1812 176 c 0,24,25
 1615 176 1615 176 1498.5 324.5 c 128,-1,26
 1382 473 1382 473 1382 735 c 0,27,28
 1382 993 1382 993 1554 1141.5 c 128,-1,29
 1726 1290 1726 1290 1995 1290 c 0,30,31
 2257 1290 2257 1290 2402 1223 c 0,32,33
 2521 1166 2521 1166 2552 1077 c 1,34,-1
 2552 1292 l 1,35,-1
 3469 1292 l 1,36,-1
 3469 1190 l 1,0,-1
3369 2 m 2,37,-1
 227 2 l 2,38,39
 125 2 125 2 63.5 56.5 c 128,-1,40
 2 111 2 111 2 180 c 0,41,42
 2 254 2 254 61.5 308 c 128,-1,43
 121 362 121 362 225 362 c 2,44,-1
 588 362 l 2,45,46
 717 362 717 362 803 485 c 0,47,48
 879 596 879 596 879 735 c 0,49,50
 879 950 879 950 788 1061 c 0,51,52
 688 1184 688 1184 465 1184 c 0,53,54
 322 1184 322 1184 212 1103 c 128,-1,55
 102 1022 102 1022 102 922 c 1,56,57
 172 1041 172 1041 313 1040 c 0,58,59
 436 1040 436 1040 510 953 c 128,-1,60
 584 866 584 866 584 737 c 0,61,62
 584 598 584 598 504 521 c 128,-1,63
 424 444 424 444 287 444 c 0,64,65
 131 444 131 444 57 575 c 0,66,67
 -2 679 -2 679 -2 866 c 0,68,69
 -2 1032 -2 1032 129 1151 c 0,70,71
 270 1282 270 1282 502 1282 c 0,72,73
 783 1282 783 1282 930 1136.5 c 128,-1,74
 1077 991 1077 991 1077 745 c 0,75,76
 1077 247 1077 247 588 248 c 2,77,-1
 303 248 l 2,78,79
 248 248 248 248 215 224.5 c 128,-1,80
 182 201 182 201 182 168 c 0,81,82
 182 86 182 86 301 86 c 2,83,-1
 3365 86 l 2,84,85
 3433 86 3433 86 3432 43 c 256,86,87
 3432 0 3432 0 3369 2 c 2,37,-1
1890 588 m 0,88,89
 1890 678 1890 678 1825.5 753.5 c 128,-1,90
 1761 829 1761 829 1679 829 c 0,91,92
 1603 829 1603 829 1548 788.5 c 128,-1,93
 1493 748 1493 748 1477 688 c 1,94,95
 1477 571 1477 571 1534 473 c 0,96,97
 1602 354 1602 354 1706 354 c 0,98,99
 1794 354 1794 354 1842 424 c 128,-1,100
 1890 494 1890 494 1890 588 c 0,88,89
399 797 m 0,101,102
 389 844 389 844 346 877.5 c 128,-1,103
 303 911 303 911 252 911 c 0,104,105
 156 911 156 911 98 809 c 1,106,107
 98 709 98 709 143 642 c 128,-1,108
 188 575 188 575 264 575 c 0,109,110
 332 575 332 575 367.5 627.5 c 128,-1,111
 403 680 403 680 403 748 c 0,112,113
 403 764 403 764 399 797 c 0,101,102
EndSplineSet
EndChar

StartChar: u0B8E
Encoding: 143 2958 143
Width: 1835
Flags: HW
AnchorPoint: "V" 777 1292 basechar 0
AnchorPoint: "N" 777 0 basechar 0
LayerCount: 2
Fore
SplineSet
1548 1190 m 1,0,-1
 1262 1190 l 1,1,-1
 1262 0 l 1,2,-1
 1047 0 l 1,3,-1
 1047 1190 l 1,4,-1
 641 1190 l 2,5,6
 383 1190 383 1190 231 1030 c 0,7,8
 106 899 106 899 106 733 c 1,9,10
 139 784 139 784 215 817 c 128,-1,11
 291 850 291 850 381 850 c 0,12,13
 547 850 547 850 651.5 737.5 c 128,-1,14
 756 625 756 625 756 444 c 0,15,16
 756 241 756 241 682 131 c 0,17,18
 600 6 600 6 434 6 c 0,19,20
 229 6 229 6 116.5 161.5 c 128,-1,21
 4 317 4 317 4 598 c 0,22,23
 4 917 4 917 170 1104.5 c 128,-1,24
 336 1292 336 1292 616 1292 c 2,25,-1
 1550 1292 l 1,26,-1
 1548 1190 l 1,0,-1
545 438 m 0,27,28
 545 540 545 540 478.5 624.5 c 128,-1,29
 412 709 412 709 324 709 c 0,30,31
 240 709 240 709 185.5 666 c 128,-1,32
 131 623 131 623 109 549 c 1,33,34
 109 389 109 389 171 281.5 c 128,-1,35
 233 174 233 174 350 174 c 0,36,37
 444 174 444 174 495.5 253 c 128,-1,38
 547 332 547 332 545 438 c 0,27,28
EndSplineSet
EndChar

StartChar: u0B8F
Encoding: 144 2959 144
Width: 1835
Flags: HW
AnchorPoint: "V" 775 1292 basechar 0
AnchorPoint: "N" 775 -401 basechar 0
LayerCount: 2
Fore
SplineSet
1548 1190 m 1,0,-1
 1262 1190 l 1,1,-1
 1262 0 l 1,2,-1
 788 -401 l 1,3,-1
 616 -401 l 1,4,-1
 1044 0 l 1,5,-1
 1044 1190 l 1,6,-1
 639 1190 l 2,7,8
 381 1190 381 1190 229 1030 c 0,9,10
 104 899 104 899 104 733 c 1,11,12
 137 784 137 784 213 817 c 128,-1,13
 289 850 289 850 379 850 c 0,14,15
 545 850 545 850 649.5 737.5 c 128,-1,16
 754 625 754 625 754 444 c 0,17,18
 754 241 754 241 680 131 c 0,19,20
 598 6 598 6 432 6 c 0,21,22
 227 6 227 6 114.5 161.5 c 128,-1,23
 2 317 2 317 2 598 c 0,24,25
 2 917 2 917 168 1104.5 c 128,-1,26
 334 1292 334 1292 614 1292 c 2,27,-1
 1548 1292 l 1,28,-1
 1548 1190 l 1,0,-1
543 438 m 0,29,30
 543 540 543 540 476.5 624.5 c 128,-1,31
 410 709 410 709 322 709 c 0,32,33
 238 709 238 709 183.5 666 c 128,-1,34
 129 623 129 623 106 549 c 1,35,36
 106 389 106 389 168.5 281.5 c 128,-1,37
 231 174 231 174 348 174 c 0,38,39
 442 174 442 174 493.5 253 c 128,-1,40
 545 332 545 332 543 438 c 0,29,30
EndSplineSet
EndChar

StartChar: u0B90
Encoding: 145 2960 145
Width: 1861
Flags: HW
AnchorPoint: "V" 793.5 1228.92 basechar 0
AnchorPoint: "N" 793.5 -496 basechar 0
LayerCount: 2
Fore
SplineSet
1577 836 m 0,0,1
 1577 697 1577 697 1530 580 c 0,2,3
 1471 439 1471 439 1356 377 c 0,4,5
 1209 301 1209 301 881 285.5 c 128,-1,6
 553 270 553 270 444 231 c 0,7,8
 378 206 378 206 332 141 c 0,9,10
 266 53 266 53 266 -66 c 0,11,12
 266 -203 266 -203 325.5 -296 c 128,-1,13
 385 -389 385 -389 500 -389 c 0,14,15
 594 -389 594 -389 673 -308 c 128,-1,16
 752 -227 752 -227 752 -147 c 2,17,-1
 752 33 l 1,18,-1
 950 33 l 1,19,-1
 950 -141 l 2,20,21
 950 -235 950 -235 1012 -309 c 0,22,23
 1086 -397 1086 -397 1202 -397 c 0,24,25
 1311 -397 1311 -397 1364 -322 c 0,26,27
 1409 -256 1409 -256 1409 -141 c 0,28,29
 1409 -65 1409 -65 1389.5 -1 c 128,-1,30
 1370 63 1370 63 1333 109 c 1,31,-1
 1458 166 l 1,32,33
 1544 41 1544 41 1544 -121 c 0,34,35
 1544 -281 1544 -281 1462 -381 c 0,36,37
 1368 -496 1368 -496 1186 -496 c 0,38,39
 1067 -496 1067 -496 991 -455 c 128,-1,40
 915 -414 915 -414 879 -342 c 1,41,42
 846 -403 846 -403 747.5 -448.5 c 128,-1,43
 649 -494 649 -494 535 -494 c 0,44,45
 302 -494 302 -494 185 -379 c 128,-1,46
 68 -264 68 -264 68 -66 c 0,47,48
 68 81 68 81 137 178 c 0,49,50
 196 258 196 258 299 297 c 0,51,52
 457 358 457 358 684 377 c 0,53,54
 1145 420 1145 420 1226 460 c 128,-1,55
 1307 500 1307 500 1350 651 c 0,56,57
 1379 753 1379 753 1378 862 c 0,58,59
 1378 1007 1378 1007 1315.5 1098.5 c 128,-1,60
 1253 1190 1253 1190 1122 1190 c 0,61,62
 1036 1190 1036 1190 989 1108 c 0,63,64
 952 1047 952 1047 952 979 c 2,65,-1
 952 618 l 1,66,-1
 754 618 l 1,67,-1
 754 965 l 2,68,69
 754 1041 754 1041 696 1102 c 0,70,71
 616 1190 616 1190 477 1190 c 0,72,73
 334 1190 334 1190 224.5 1109 c 128,-1,74
 115 1028 115 1028 115 928 c 1,75,76
 185 1047 185 1047 326 1047 c 0,77,78
 449 1047 449 1047 522.5 959.5 c 128,-1,79
 596 872 596 872 596 743 c 0,80,81
 596 604 596 604 516 527.5 c 128,-1,82
 436 451 436 451 299 451 c 0,83,84
 143 451 143 451 70 582 c 0,85,86
 11 686 11 686 10 872 c 0,87,88
 10 1044 10 1044 137 1161 c 0,89,90
 276 1290 276 1290 514 1290 c 0,91,92
 680 1290 680 1290 776 1239 c 0,93,94
 850 1200 850 1200 879 1128 c 1,95,96
 904 1194 904 1194 954 1233 c 0,97,98
 1028 1290 1028 1290 1147 1290 c 0,99,100
 1356 1290 1356 1290 1465.5 1171.5 c 128,-1,101
 1575 1053 1575 1053 1577 836 c 0,0,1
403 795 m 0,102,103
 393 842 393 842 350 875.5 c 128,-1,104
 307 909 307 909 256 909 c 0,105,106
 160 909 160 909 102 807 c 1,107,108
 102 707 102 707 147.5 640 c 128,-1,109
 193 573 193 573 268 573 c 0,110,111
 336 573 336 573 372 625.5 c 128,-1,112
 408 678 408 678 408 745 c 0,113,114
 407 762 407 762 403 795 c 0,102,103
EndSplineSet
EndChar

StartChar: u0B92
Encoding: 146 2962 146
Width: 2004
Flags: HW
AnchorPoint: "V" 816 1287.89 basechar 0
AnchorPoint: "N" 816 -707 basechar 0
LayerCount: 2
Fore
SplineSet
1634 610 m 0,0,1
 1634 399 1634 399 1543 279.5 c 128,-1,2
 1452 160 1452 160 1298 160 c 0,3,4
 1155 160 1155 160 1098 262 c 0,5,6
 1055 338 1055 338 1055 483 c 1,7,8
 1041 432 1041 432 1032.5 385 c 128,-1,9
 1024 338 1024 338 1024 299 c 0,10,11
 1024 166 1024 166 1118 113 c 0,12,13
 1192 70 1192 70 1350 70 c 2,14,-1
 1567 70 l 1,15,-1
 1567 -41 l 1,16,-1
 1407 -41 l 2,17,18
 1288 -41 1288 -41 1229 -227 c 0,19,20
 1198 -331 1198 -331 1167 -436 c 0,21,22
 1122 -567 1122 -567 1017.5 -637 c 128,-1,23
 913 -707 913 -707 723 -707 c 0,24,25
 504 -707 504 -707 371 -601.5 c 128,-1,26
 238 -496 238 -496 238 -338 c 0,27,28
 238 -199 238 -199 304.5 -108.5 c 128,-1,29
 371 -18 371 -18 489 -18 c 1,30,-1
 522 -131 l 1,31,32
 438 -131 438 -131 387 -182 c 128,-1,33
 336 -233 336 -233 336 -336 c 0,34,35
 336 -447 336 -447 444.5 -525.5 c 128,-1,36
 553 -604 553 -604 743 -604 c 0,37,38
 905 -604 905 -604 967 -481 c 0,39,40
 985 -442 985 -442 1028 -225 c 0,41,42
 1051 -106 1051 -106 1087 -59 c 0,43,44
 1114 -22 1114 -22 1174 -4 c 1,45,46
 1057 21 1057 21 1002.5 109 c 128,-1,47
 948 197 948 197 948 315 c 0,48,49
 948 452 948 452 1010.5 582.5 c 128,-1,50
 1073 713 1073 713 1149 741 c 1,51,-1
 1200 711 l 1,52,53
 1124 645 1124 645 1124 502 c 0,54,55
 1124 422 1124 422 1154 366.5 c 128,-1,56
 1184 311 1184 311 1237 311 c 0,57,58
 1331 311 1331 311 1372 385 c 128,-1,59
 1413 459 1413 459 1413 602 c 0,60,61
 1413 848 1413 848 1212.5 1018 c 128,-1,62
 1012 1188 1012 1188 772 1188 c 0,63,64
 510 1188 510 1188 334 1083.5 c 128,-1,65
 158 979 158 979 106 764 c 1,66,67
 137 807 137 807 199.5 833.5 c 128,-1,68
 262 860 262 860 338 860 c 0,69,70
 490 860 490 860 584 769 c 128,-1,71
 678 678 678 678 678 532 c 0,72,73
 678 370 678 370 604 272 c 128,-1,74
 530 174 530 174 383 174 c 0,75,76
 203 174 203 174 100.5 304 c 128,-1,77
 -2 434 -2 434 -2 623 c 0,78,79
 -2 934 -2 934 188 1106 c 0,80,81
 393 1288 393 1288 797 1288 c 0,82,83
 1203 1288 1203 1288 1425 1083 c 0,84,85
 1626 899 1626 899 1634 610 c 0,0,1
463 530 m 0,86,87
 463 618 463 618 416 684 c 128,-1,88
 369 750 369 750 289 750 c 0,89,90
 213 750 213 750 164 716 c 128,-1,91
 115 682 115 682 98 623 c 1,92,93
 98 521 98 521 156.5 425.5 c 128,-1,94
 215 330 215 330 317 330 c 0,95,96
 393 330 393 330 429 387 c 128,-1,97
 465 444 465 444 463 530 c 0,86,87
EndSplineSet
EndChar

StartChar: u0B93
Encoding: 147 2963 147
Width: 2004
Flags: HW
AnchorPoint: "V" 818 1285.91 basechar 0
AnchorPoint: "N" 818 -709 basechar 0
LayerCount: 2
Fore
SplineSet
1634 610 m 0,0,1
 1634 399 1634 399 1543 279.5 c 128,-1,2
 1452 160 1452 160 1298 160 c 0,3,4
 1155 160 1155 160 1098 262 c 0,5,6
 1055 338 1055 338 1055 483 c 1,7,8
 1024 381 1024 381 1024 295 c 0,9,10
 1024 164 1024 164 1118 111 c 0,11,12
 1192 68 1192 68 1350 68 c 2,13,-1
 1567 68 l 1,14,-1
 1567 -43 l 1,15,-1
 1407 -43 l 2,16,17
 1288 -43 1288 -43 1229 -229 c 0,18,19
 1198 -333 1198 -333 1167 -438 c 0,20,21
 1122 -569 1122 -569 1017.5 -639 c 128,-1,22
 913 -709 913 -709 723 -709 c 0,23,24
 500 -709 500 -709 369 -604.5 c 128,-1,25
 238 -500 238 -500 238 -340 c 0,26,27
 238 -201 238 -201 310.5 -114 c 128,-1,28
 383 -27 383 -27 522 -27 c 256,29,30
 661 -27 661 -27 740 -90.5 c 128,-1,31
 819 -154 819 -154 819 -250 c 0,32,33
 819 -309 819 -309 797.5 -359.5 c 128,-1,34
 776 -410 776 -410 725 -449 c 1,35,-1
 623 -397 l 1,36,37
 656 -364 656 -364 670 -330.5 c 128,-1,38
 684 -297 684 -297 684 -260 c 0,39,40
 684 -207 684 -207 640 -171 c 128,-1,41
 596 -135 596 -135 524 -135 c 0,42,43
 440 -135 440 -135 389 -186.5 c 128,-1,44
 338 -238 338 -238 338 -340 c 0,45,46
 338 -451 338 -451 446.5 -529.5 c 128,-1,47
 555 -608 555 -608 745 -608 c 0,48,49
 948 -608 948 -608 1001 -399 c 1,50,51
 1026 -252 1026 -252 1042.5 -181.5 c 128,-1,52
 1059 -111 1059 -111 1088.5 -68 c 128,-1,53
 1118 -25 1118 -25 1178 -6 c 1,54,55
 1061 19 1061 19 1006.5 107 c 128,-1,56
 952 195 952 195 952 313 c 0,57,58
 952 450 952 450 1014.5 580.5 c 128,-1,59
 1077 711 1077 711 1153 739 c 1,60,-1
 1204 709 l 1,61,62
 1128 643 1128 643 1128 500 c 0,63,64
 1128 420 1128 420 1158 364.5 c 128,-1,65
 1188 309 1188 309 1241 309 c 0,66,67
 1335 309 1335 309 1376 383 c 128,-1,68
 1417 457 1417 457 1417 600 c 0,69,70
 1417 846 1417 846 1216.5 1016 c 128,-1,71
 1016 1186 1016 1186 776 1186 c 0,72,73
 514 1186 514 1186 338 1081.5 c 128,-1,74
 162 977 162 977 111 762 c 1,75,76
 142 805 142 805 204 831.5 c 128,-1,77
 266 858 266 858 342 858 c 0,78,79
 494 858 494 858 588 767 c 128,-1,80
 682 676 682 676 682 530 c 0,81,82
 682 368 682 368 608.5 270 c 128,-1,83
 535 172 535 172 387 172 c 0,84,85
 207 172 207 172 104.5 302 c 128,-1,86
 2 432 2 432 2 621 c 0,87,88
 2 932 2 932 193 1104 c 0,89,90
 398 1286 398 1286 801 1286 c 0,91,92
 1207 1286 1207 1286 1430 1081 c 0,93,94
 1630 897 1630 897 1634 610 c 0,0,1
467 528 m 0,95,96
 467 616 467 616 420 682 c 128,-1,97
 373 748 373 748 293 748 c 0,98,99
 217 748 217 748 168 714 c 128,-1,100
 119 680 119 680 102 621 c 1,101,102
 102 519 102 519 160.5 423.5 c 128,-1,103
 219 328 219 328 322 328 c 0,104,105
 398 328 398 328 433.5 385 c 128,-1,106
 469 442 469 442 467 528 c 0,95,96
EndSplineSet
EndChar

StartChar: u0B95
Encoding: 149 2965 149
Width: 1777
Flags: HW
AnchorPoint: "V" 731 1284 basechar 0
AnchorPoint: "N" 731 -2 basechar 0
LayerCount: 2
Fore
SplineSet
1507 346 m 0,0,1
 1507 180 1507 180 1412 90 c 128,-1,2
 1317 0 1317 0 1157 0 c 0,3,4
 1016 0 1016 0 943 44 c 128,-1,5
 870 88 870 88 854 150 c 1,6,7
 809 99 809 99 700.5 48.5 c 128,-1,8
 592 -2 592 -2 469 -2 c 0,9,10
 266 -2 266 -2 154 92 c 0,11,12
 29 196 29 196 29 399 c 0,13,14
 29 557 29 557 133 657 c 0,15,16
 215 737 215 737 285 737 c 1,17,-1
 285 1284 l 1,18,-1
 1217 1284 l 1,19,-1
 1217 1184 l 1,20,-1
 930 1184 l 1,21,-1
 930 739 l 1,22,23
 1290 739 1290 739 1407 637 c 0,24,25
 1511 543 1511 543 1507 346 c 0,0,1
713 739 m 1,26,-1
 713 1184 l 1,27,-1
 385 1184 l 1,28,-1
 385 739 l 1,29,-1
 713 739 l 1,26,-1
1313 336 m 0,30,31
 1313 533 1313 533 1202 594 c 0,32,33
 1126 637 1126 637 932 637 c 1,34,-1
 932 297 l 2,35,36
 932 195 932 195 973 144.5 c 128,-1,37
 1014 94 1014 94 1114 94 c 0,38,39
 1196 94 1196 94 1254.5 153.5 c 128,-1,40
 1313 213 1313 213 1313 336 c 0,30,31
715 287 m 2,41,-1
 715 635 l 1,42,-1
 340 635 l 2,43,44
 270 635 270 635 211 582 c 0,45,46
 129 508 129 508 129 371 c 0,47,48
 129 232 129 232 209 163 c 128,-1,49
 289 94 289 94 440 94 c 0,50,51
 528 94 528 94 622.5 153.5 c 128,-1,52
 717 213 717 213 715 287 c 2,41,-1
EndSplineSet
EndChar

StartChar: u0B95_u0BBF
Encoding: 150 -1 150
Width: 2091
Flags: HW
AnchorPoint: "V" 731 2048.94 basechar 0
AnchorPoint: "N" 731 -2 basechar 0
LayerCount: 2
Fore
SplineSet
1806 0 m 1,0,-1
 1720 0 l 1,1,-1
 1720 1294 l 2,2,3
 1720 1540 1720 1540 1503 1700 c 128,-1,4
 1286 1860 1286 1860 954 1860 c 0,5,6
 526 1860 526 1860 309 1692 c 0,7,8
 106 1534 106 1534 106 1257 c 0,9,10
 106 1120 106 1120 146 997 c 128,-1,11
 186 874 186 874 266 801 c 1,12,-1
 266 1290 l 1,13,-1
 1198 1290 l 1,14,-1
 1198 1190 l 1,15,-1
 911 1190 l 1,16,-1
 911 745 l 1,17,18
 1271 745 1271 745 1389 643 c 0,19,20
 1493 549 1493 549 1493 348 c 0,21,22
 1493 182 1493 182 1398 92 c 128,-1,23
 1303 2 1303 2 1143 2 c 0,24,25
 1000 2 1000 2 927 46 c 128,-1,26
 854 90 854 90 838 152 c 1,27,28
 793 101 793 101 684 50.5 c 128,-1,29
 575 0 575 0 453 0 c 0,30,31
 250 0 250 0 135 94 c 0,32,33
 10 198 10 198 10 401 c 0,34,35
 10 532 10 532 78 621 c 0,36,37
 131 689 131 689 211 721 c 1,38,39
 102 811 102 811 55 944 c 128,-1,40
 8 1077 8 1077 8 1233 c 0,41,42
 8 1593 8 1593 219 1810 c 0,43,44
 467 2064 467 2064 954 2064 c 0,45,46
 1392 2064 1392 2064 1601 1864.5 c 128,-1,47
 1810 1665 1810 1665 1810 1264 c 2,48,-1
 1806 0 l 1,0,-1
696 733 m 1,49,-1
 696 1178 l 1,50,-1
 367 1178 l 1,51,-1
 367 733 l 1,52,-1
 696 733 l 1,49,-1
1294 330 m 0,53,54
 1294 527 1294 527 1184 588 c 0,55,56
 1108 631 1108 631 913 631 c 1,57,-1
 913 291 l 2,58,59
 913 189 913 189 954 138.5 c 128,-1,60
 995 88 995 88 1096 88 c 0,61,62
 1178 88 1178 88 1236 147.5 c 128,-1,63
 1294 207 1294 207 1294 330 c 0,53,54
696 281 m 2,64,-1
 696 629 l 1,65,-1
 322 629 l 2,66,67
 250 629 250 629 190 575 c 0,68,69
 108 501 108 501 109 365 c 0,70,71
 109 226 109 226 188.5 157 c 128,-1,72
 268 88 268 88 420 88 c 0,73,74
 508 88 508 88 602 147.5 c 128,-1,75
 696 207 696 207 696 281 c 2,64,-1
EndSplineSet
EndChar

StartChar: u0B95_u0BC0
Encoding: 151 -1 151
Width: 1777
Flags: HW
AnchorPoint: "V" 731 2125.65 basechar 0
AnchorPoint: "N" 731 -2 basechar 0
LayerCount: 2
Fore
SplineSet
1286 1724 m 0,0,1
 1286 1806 1286 1806 1231 1864.5 c 128,-1,2
 1176 1923 1176 1923 1087 1923 c 1,3,4
 1013 1909 1013 1909 968.5 1851.5 c 128,-1,5
 924 1794 924 1794 924 1720 c 256,6,7
 924 1646 924 1646 976 1591 c 128,-1,8
 1028 1536 1028 1536 1098 1536 c 0,9,10
 1174 1536 1174 1536 1229 1591 c 128,-1,11
 1284 1646 1284 1646 1286 1724 c 0,0,1
688 743 m 1,12,-1
 688 1188 l 1,13,-1
 358 1188 l 1,14,-1
 358 743 l 1,15,-1
 688 743 l 1,12,-1
1286 340 m 0,16,17
 1286 537 1286 537 1176 598 c 0,18,19
 1100 641 1100 641 905 641 c 1,20,-1
 905 301 l 2,21,22
 905 199 905 199 946 148.5 c 128,-1,23
 987 98 987 98 1087 98 c 0,24,25
 1169 98 1169 98 1227.5 157.5 c 128,-1,26
 1286 217 1286 217 1286 340 c 0,16,17
688 291 m 2,27,-1
 688 639 l 1,28,-1
 313 639 l 2,29,30
 241 639 241 639 182 586 c 0,31,32
 100 512 100 512 100 375 c 0,33,34
 100 236 100 236 180 167 c 128,-1,35
 260 98 260 98 412 98 c 0,36,37
 500 98 500 98 594 157.5 c 128,-1,38
 688 217 688 217 688 291 c 2,27,-1
201 723 m 1,39,40
 92 813 92 813 45 946 c 128,-1,41
 -2 1079 -2 1079 -2 1235 c 0,42,43
 -2 1636 -2 1636 255 1888 c 128,-1,44
 512 2140 512 2140 915 2140 c 0,45,46
 1126 2140 1126 2140 1264 2066 c 0,47,48
 1450 1966 1450 1966 1450 1749 c 0,49,50
 1450 1618 1450 1618 1359 1530 c 128,-1,51
 1268 1442 1268 1442 1122 1442 c 0,52,53
 981 1442 981 1442 902 1523 c 128,-1,54
 823 1604 823 1604 823 1718 c 0,55,56
 823 1790 823 1790 856 1861.5 c 128,-1,57
 889 1933 889 1933 946 1964 c 1,58,-1
 842 1972 l 1,59,60
 518 1972 518 1972 301 1739 c 0,61,62
 100 1524 100 1524 100 1251 c 0,63,64
 100 1114 100 1114 140 991 c 128,-1,65
 180 868 180 868 260 795 c 1,66,-1
 260 1284 l 1,67,-1
 1192 1284 l 1,68,-1
 1192 1184 l 1,69,-1
 905 1184 l 1,70,-1
 905 739 l 1,71,72
 1265 739 1265 739 1382 637 c 0,73,74
 1486 543 1486 543 1487 342 c 0,75,76
 1487 176 1487 176 1391.5 86 c 128,-1,77
 1296 -4 1296 -4 1137 -4 c 0,78,79
 994 -4 994 -4 921 40 c 128,-1,80
 848 84 848 84 831 145 c 1,81,82
 786 94 786 94 677.5 44 c 128,-1,83
 569 -6 569 -6 446 -6 c 0,84,85
 243 -6 243 -6 129 88 c 0,86,87
 4 192 4 192 4 395 c 0,88,89
 4 526 4 526 72 614 c 0,90,91
 125 682 125 682 201 723 c 1,39,40
EndSplineSet
EndChar

StartChar: u0B95_u0BC1
Encoding: 152 -1 152
Width: 2250
Flags: HW
AnchorPoint: "V" 731 1290 basechar 0
AnchorPoint: "N" 731 -2 basechar 0
LayerCount: 2
Fore
SplineSet
1364 645 m 1,0,-1
 1364 305 l 2,1,2
 1364 207 1364 207 1245 113 c 0,3,4
 1106 4 1106 4 905 4 c 0,5,6
 702 4 702 4 588 98 c 0,7,8
 463 202 463 202 463 406 c 0,9,10
 463 564 463 564 567 664 c 0,11,12
 649 744 649 744 721 743 c 1,13,-1
 721 1290 l 1,14,-1
 1653 1290 l 1,15,-1
 1653 1190 l 1,16,-1
 1366 1190 l 1,17,-1
 1366 745 l 1,18,19
 1669 745 1669 745 1802 657 c 0,20,21
 1962 553 1962 553 1962 301 c 0,22,23
 1962 -100 1962 -100 1782 -303 c 0,24,25
 1549 -569 1549 -569 975 -569 c 0,26,27
 490 -569 490 -569 242 -295 c 0,28,29
 4 -35 4 -35 4 432 c 0,30,31
 4 704 4 704 83 935.5 c 128,-1,32
 162 1167 162 1167 299 1290 c 1,33,-1
 360 1233 l 1,34,35
 231 1104 231 1104 166.5 889 c 128,-1,36
 102 674 102 674 102 422 c 0,37,38
 102 31 102 31 317 -213 c 0,39,40
 546 -469 546 -469 952 -469 c 0,41,42
 1419 -469 1419 -469 1608 -229 c 0,43,44
 1747 -53 1747 -53 1747 293 c 0,45,46
 1747 467 1747 467 1667 549 c 0,47,48
 1577 643 1577 643 1364 645 c 1,0,-1
1151 743 m 1,49,-1
 1151 1188 l 1,50,-1
 821 1188 l 1,51,-1
 821 743 l 1,52,-1
 1151 743 l 1,49,-1
1151 295 m 2,53,-1
 1151 643 l 1,54,-1
 776 643 l 2,55,56
 704 643 704 643 645 590 c 0,57,58
 563 516 563 516 563 379 c 0,59,60
 563 240 563 240 643 171 c 128,-1,61
 723 102 723 102 874 102 c 0,62,63
 962 102 962 102 1056.5 161.5 c 128,-1,64
 1151 221 1151 221 1151 295 c 2,53,-1
EndSplineSet
EndChar

StartChar: u0B95_u0BC2
Encoding: 153 -1 153
Width: 2695
Flags: HW
AnchorPoint: "V" 731 1292 basechar 0
AnchorPoint: "N" 731 -2 basechar 0
LayerCount: 2
Fore
SplineSet
319 649 m 0,0,1
 296 649 296 649 270 641.5 c 0,2,3
 244 634 244 634 214 614.5 c 0,4,5
 184 595 184 595 160.5 566.5 c 0,6,7
 137 538 137 538 121 490.5 c 0,8,9
 105 443 105 443 105 384 c 0,10,11
 105 106 105 106 417 106 c 0,12,13
 514 106 514 106 603 168.5 c 0,14,15
 692 231 692 231 694 299 c 0,16,-1
 694 649 l 0,17,-1
 319 649 l 0,0,1
694 749 m 0,18,-1
 694 1192 l 0,19,-1
 364 1192 l 0,20,-1
 364 749 l 0,21,-1
 694 749 l 0,18,-1
1227 99 m 0,22,23
 1254 99 1254 99 1279 110 c 0,24,25
 1304 121 1304 121 1329.5 148.5 c 0,26,27
 1355 176 1355 176 1370 232.5 c 0,28,29
 1385 289 1385 289 1385 369 c 0,30,31
 1385 460 1385 460 1333 531.5 c 0,32,33
 1281 603 1281 603 1225 620 c 0,34,35
 1220 616 1220 616 1202 601.5 c 0,36,37
 1184 587 1184 587 1177 581 c 0,38,39
 1170 575 1170 575 1154 558 c 0,40,41
 1138 541 1138 541 1131 528 c 0,42,43
 1124 515 1124 515 1112.5 492 c 0,44,45
 1101 469 1101 469 1096 445 c 0,46,47
 1091 421 1091 421 1087 387.5 c 0,48,49
 1083 354 1083 354 1083 315 c 0,50,51
 1083 250 1083 250 1098 204 c 0,52,53
 1113 158 1113 158 1137.5 137 c 0,54,55
 1162 116 1162 116 1183.5 107.5 c 0,56,57
 1205 99 1205 99 1227 99 c 0,22,23
910 749 m 0,58,-1
 1232 749 l 0,59,60
 1377 832 1377 832 1542 832 c 0,61,62
 1640 832 1640 832 1720 814.5 c 0,63,64
 1800 797 1800 797 1852 769.5 c 0,65,66
 1904 742 1904 742 1943 703.5 c 0,67,68
 1982 665 1982 665 2003 629 c 0,69,70
 2024 593 2024 593 2036.5 552.5 c 0,71,72
 2049 512 2049 512 2052 485.5 c 0,73,74
 2055 459 2055 459 2055 434 c 0,75,76
 2055 327 2055 327 1993 242.5 c 0,77,78
 1931 158 1931 158 1842 99 c 0,79,-1
 2301 99 l 0,80,-1
 2301 -1 l 0,81,-1
 1547 -1 l 0,82,-1
 1547 99 l 0,83,84
 1840 261 1840 261 1840 422 c 0,85,86
 1840 559 1840 559 1765 637 c 0,87,88
 1690 715 1690 715 1572 715 c 0,89,90
 1406 715 1406 715 1356 680 c 0,91,92
 1362 674 1362 674 1396 644 c 0,93,94
 1430 614 1430 614 1447.5 593 c 0,95,96
 1465 572 1465 572 1490.5 533 c 0,97,98
 1516 494 1516 494 1528 443 c 0,99,100
 1540 392 1540 392 1540 330 c 0,101,102
 1540 247 1540 247 1505.5 171.5 c 0,103,104
 1471 96 1471 96 1406 47 c 0,105,106
 1341 -2 1341 -2 1263 -2 c 0,107,108
 1228 -2 1228 -2 1193 5 c 0,109,110
 1158 12 1158 12 1119 33 c 0,111,112
 1080 54 1080 54 1051 86 c 0,113,114
 1022 118 1022 118 1003 173.5 c 0,115,116
 984 229 984 229 984 300 c 0,117,118
 984 366 984 366 996 426 c 0,119,120
 1008 486 1008 486 1025 524.5 c 0,121,122
 1042 563 1042 563 1059 592 c 0,123,124
 1076 621 1076 621 1088 633.5 c 0,125,-1
 1100 646 l 0,126,-1
 909 646 l 0,127,-1
 909 305 l 0,128,129
 909 228 909 228 841.5 157.5 c 0,130,131
 774 87 774 87 668 45 c 0,132,133
 562 3 562 3 450 3 c 0,134,135
 246 3 246 3 125.5 105 c 0,136,137
 5 207 5 207 5 407 c 0,138,139
 5 477 5 477 26 536 c 0,140,141
 47 595 47 595 78 632.5 c 0,142,143
 109 670 109 670 146 696.5 c 0,144,145
 183 723 183 723 214 734 c 0,146,147
 245 745 245 745 266 745 c 0,148,-1
 266 1292 l 0,149,-1
 1197 1292 l 0,150,-1
 1197 1192 l 0,151,-1
 910 1192 l 0,152,-1
 910 749 l 0,58,-1
EndSplineSet
EndChar

StartChar: u0B95_u0BC2.old
Encoding: 154 -1 154
Width: 2695
Flags: HW
AnchorPoint: "V" 731 1290 basechar 0
AnchorPoint: "N" 731 -2 basechar 0
LayerCount: 2
Fore
SplineSet
1376 659 m 1,0,1
 1407 706 1407 706 1498 736 c 128,-1,2
 1589 766 1589 766 1747 766 c 0,3,4
 1913 766 1913 766 2028 690 c 0,5,6
 2161 600 2161 600 2161 438 c 0,7,8
 2161 336 2161 336 2089 240 c 0,9,10
 2032 164 2032 164 1946 106 c 1,11,-1
 2404 106 l 1,12,-1
 2404 6 l 1,13,-1
 1651 6 l 1,14,-1
 1651 106 l 1,15,16
 1747 159 1747 159 1812 221 c 0,17,18
 1912 317 1912 317 1913 422 c 0,19,20
 1913 516 1913 516 1841 581.5 c 128,-1,21
 1769 647 1769 647 1669 647 c 0,22,23
 1560 647 1560 647 1487.5 610 c 128,-1,24
 1415 573 1415 573 1401 520 c 1,25,-1
 1401 2 l 1,26,-1
 1186 2 l 1,27,-1
 1186 647 l 1,28,-1
 903 647 l 1,29,-1
 903 307 l 2,30,31
 903 190 903 190 757.5 97 c 128,-1,32
 612 4 612 4 444 4 c 0,33,34
 241 4 241 4 127 98 c 0,35,36
 2 202 2 202 2 406 c 0,37,38
 2 564 2 564 106 664 c 0,39,40
 188 744 188 744 260 743 c 1,41,-1
 260 1290 l 1,42,-1
 1192 1290 l 1,43,-1
 1192 1190 l 1,44,-1
 905 1190 l 1,45,-1
 905 745 l 1,46,-1
 1257 745 l 2,47,48
 1290 745 1290 745 1324 725.5 c 128,-1,49
 1358 706 1358 706 1376 659 c 1,0,1
688 745 m 1,50,-1
 688 1190 l 1,51,-1
 358 1190 l 1,52,-1
 358 745 l 1,53,-1
 688 745 l 1,50,-1
688 297 m 2,54,-1
 688 645 l 1,55,-1
 313 645 l 2,56,57
 241 645 241 645 182 592 c 0,58,59
 100 518 100 518 100 381 c 0,60,61
 100 242 100 242 180 173 c 128,-1,62
 260 104 260 104 412 104 c 0,63,64
 500 104 500 104 594 163.5 c 128,-1,65
 688 223 688 223 688 297 c 2,54,-1
EndSplineSet
EndChar

StartChar: u0B95_u0BCD
Encoding: 155 -1 155
Width: 1777
Flags: W
AnchorPoint: "N" 731 -2 basechar 0
LayerCount: 2
Fore
SplineSet
893 1667 m 256,0,1
 893 1601 893 1601 845 1553 c 128,-1,2
 797 1505 797 1505 731 1505 c 256,3,4
 665 1505 665 1505 617 1553.5 c 128,-1,5
 569 1602 569 1602 569 1667 c 256,6,7
 569 1733 569 1733 617.5 1781 c 128,-1,8
 666 1829 666 1829 731 1829 c 256,9,10
 797 1829 797 1829 845 1781 c 128,-1,11
 893 1733 893 1733 893 1667 c 256,0,1
1489 346 m 0,12,13
 1489 180 1489 180 1393.5 90 c 128,-1,14
 1298 0 1298 0 1139 0 c 0,15,16
 996 0 996 0 923 44 c 128,-1,17
 850 88 850 88 834 150 c 1,18,19
 789 99 789 99 680 48.5 c 128,-1,20
 571 -2 571 -2 449 -2 c 0,21,22
 246 -2 246 -2 131 92 c 0,23,24
 6 196 6 196 6 399 c 0,25,26
 6 557 6 557 111 657 c 0,27,28
 193 737 193 737 264 737 c 1,29,-1
 264 1284 l 1,30,-1
 1196 1284 l 1,31,-1
 1196 1184 l 1,32,-1
 909 1184 l 1,33,-1
 909 739 l 1,34,35
 1269 739 1269 739 1386 637 c 0,36,37
 1491 543 1491 543 1489 346 c 0,12,13
692 739 m 1,38,-1
 692 1184 l 1,39,-1
 362 1184 l 1,40,-1
 362 739 l 1,41,-1
 692 739 l 1,38,-1
1290 336 m 0,42,43
 1290 533 1290 533 1180 594 c 0,44,45
 1104 637 1104 637 909 637 c 1,46,-1
 909 297 l 2,47,48
 909 195 909 195 950 144.5 c 128,-1,49
 991 94 991 94 1092 94 c 0,50,51
 1174 94 1174 94 1232 153.5 c 128,-1,52
 1290 213 1290 213 1290 336 c 0,42,43
692 287 m 2,53,-1
 692 635 l 1,54,-1
 317 635 l 2,55,56
 245 635 245 635 186 582 c 0,57,58
 104 508 104 508 104 371 c 0,59,60
 104 232 104 232 184 163 c 128,-1,61
 264 94 264 94 416 94 c 0,62,63
 504 94 504 94 598 153.5 c 128,-1,64
 692 213 692 213 692 287 c 2,53,-1
EndSplineSet
EndChar

StartChar: u0B99
Encoding: 156 2969 156
Width: 2004
Flags: HW
AnchorPoint: "V" 854 1286 basechar 0
AnchorPoint: "N" 854 -4 basechar 0
LayerCount: 2
Fore
SplineSet
1720 0 m 1,0,-1
 430 0 l 1,1,-1
 430 86 l 1,2,-1
 762 86 l 1,3,4
 873 131 873 131 929 235.5 c 128,-1,5
 985 340 985 340 985 473 c 0,6,7
 985 588 985 588 925.5 650.5 c 128,-1,8
 866 713 866 713 791 713 c 0,9,10
 738 713 738 713 700 684 c 128,-1,11
 662 655 662 655 647 598 c 1,12,-1
 647 369 l 1,13,-1
 432 369 l 1,14,-1
 432 1186 l 1,15,-1
 102 1186 l 1,16,-1
 102 -4 l 1,17,-1
 2 -4 l 1,18,-1
 2 1286 l 1,19,-1
 932 1286 l 1,20,-1
 932 1186 l 1,21,-1
 647 1186 l 1,22,-1
 647 762 l 1,23,24
 715 848 715 848 840 848 c 0,25,26
 973 848 973 848 1073 752 c 0,27,28
 1188 641 1188 641 1188 465 c 0,29,30
 1188 318 1188 318 1133.5 223.5 c 128,-1,31
 1079 129 1079 129 985 90 c 1,32,-1
 1518 90 l 1,33,-1
 1518 1294 l 1,34,-1
 1718 1294 l 1,35,-1
 1720 0 l 1,0,-1
EndSplineSet
EndChar

StartChar: u0B99_u0BBF
Encoding: 157 -1 157
Width: 2279
Flags: HW
AnchorPoint: "V" 854 1288 basechar 0
AnchorPoint: "N" 854 -4 basechar 0
LayerCount: 2
Fore
SplineSet
1991 0 m 1,0,-1
 1905 0 l 1,1,-1
 1905 1448 l 2,2,3
 1905 1645 1905 1645 1825 1739 c 128,-1,4
 1745 1833 1745 1833 1556 1833 c 0,5,6
 1419 1833 1419 1833 1326 1752 c 128,-1,7
 1233 1671 1233 1671 1233 1518 c 0,8,9
 1233 1381 1233 1381 1299.5 1314 c 128,-1,10
 1366 1247 1366 1247 1475 1247 c 1,11,-1
 1475 1292 l 1,12,-1
 1675 1292 l 1,13,-1
 1675 2 l 1,14,-1
 428 2 l 1,15,-1
 428 88 l 1,16,-1
 760 88 l 1,17,18
 871 133 871 133 927 237.5 c 128,-1,19
 983 342 983 342 983 475 c 0,20,21
 983 590 983 590 923.5 652.5 c 128,-1,22
 864 715 864 715 788 715 c 0,23,24
 735 715 735 715 697 686 c 128,-1,25
 659 657 659 657 645 600 c 1,26,-1
 645 371 l 1,27,-1
 430 371 l 1,28,-1
 430 1188 l 1,29,-1
 100 1188 l 1,30,-1
 100 -2 l 1,31,-1
 0 -2 l 1,32,-1
 0 1288 l 1,33,-1
 930 1288 l 1,34,-1
 930 1188 l 1,35,-1
 645 1188 l 1,36,-1
 645 764 l 1,37,38
 713 850 713 850 838 850 c 0,39,40
 971 850 971 850 1071 754 c 0,41,42
 1186 643 1186 643 1186 467 c 0,43,44
 1186 320 1186 320 1131.5 225.5 c 128,-1,45
 1077 131 1077 131 983 92 c 1,46,-1
 1473 92 l 1,47,-1
 1473 1149 l 1,48,49
 1321 1149 1321 1149 1225 1245 c 0,50,51
 1116 1354 1116 1354 1116 1556 c 0,52,53
 1116 1785 1116 1785 1233 1911.5 c 128,-1,54
 1350 2038 1350 2038 1554 2038 c 0,55,56
 1783 2038 1783 2038 1888 1892 c 0,57,58
 1984 1759 1984 1759 1985 1485 c 2,59,-1
 1991 0 l 1,0,-1
EndSplineSet
EndChar

StartChar: u0B99_u0BC0
Encoding: 158 -1 158
Width: 2279
Flags: HW
AnchorPoint: "V" 854 1284 basechar 0
AnchorPoint: "N" 854 -4 basechar 0
LayerCount: 2
Fore
SplineSet
1520 1135 m 1,0,1
 1405 1135 1405 1135 1319 1237 c 0,2,3
 1219 1356 1219 1356 1219 1552 c 0,4,5
 1219 1828 1219 1828 1380 1960 c 0,6,7
 1523 2075 1523 2075 1769 2075 c 0,8,9
 2000 2075 2000 2075 2132 2001 c 0,10,11
 2304 1905 2304 1905 2304 1686 c 0,12,13
 2304 1555 2304 1555 2213 1466.5 c 128,-1,14
 2122 1378 2122 1378 1976 1378 c 0,15,16
 1835 1378 1835 1378 1756 1459 c 128,-1,17
 1677 1540 1677 1540 1677 1655 c 0,18,19
 1677 1727 1677 1727 1710 1798.5 c 128,-1,20
 1743 1870 1743 1870 1800 1901 c 1,21,-1
 1696 1909 l 1,22,23
 1544 1909 1544 1909 1438.5 1786 c 128,-1,24
 1333 1663 1333 1663 1333 1520 c 0,25,26
 1333 1375 1333 1375 1390.5 1290.5 c 128,-1,27
 1448 1206 1448 1206 1522 1206 c 1,28,-1
 1522 1288 l 1,29,-1
 1737 1288 l 1,30,-1
 1737 -2 l 1,31,-1
 432 -2 l 1,32,-1
 432 84 l 1,33,-1
 764 84 l 1,34,35
 875 129 875 129 931 233.5 c 128,-1,36
 987 338 987 338 987 471 c 0,37,38
 987 586 987 586 927.5 648.5 c 128,-1,39
 868 711 868 711 793 711 c 0,40,41
 740 711 740 711 702 682 c 128,-1,42
 664 653 664 653 649 596 c 1,43,-1
 649 367 l 1,44,-1
 434 367 l 1,45,-1
 434 1184 l 1,46,-1
 104 1184 l 1,47,-1
 104 -6 l 1,48,-1
 4 -6 l 1,49,-1
 4 1284 l 1,50,-1
 934 1284 l 1,51,-1
 934 1184 l 1,52,-1
 649 1184 l 1,53,-1
 649 760 l 1,54,55
 717 846 717 846 842 846 c 0,56,57
 975 846 975 846 1075 750 c 0,58,59
 1190 639 1190 639 1190 463 c 0,60,61
 1190 316 1190 316 1135.5 221.5 c 128,-1,62
 1081 127 1081 127 987 88 c 1,63,-1
 1520 88 l 1,64,-1
 1520 1135 l 1,0,1
2138 1659 m 0,65,66
 2138 1741 2138 1741 2083 1799.5 c 128,-1,67
 2028 1858 2028 1858 1939 1858 c 1,68,69
 1865 1844 1865 1844 1820.5 1786.5 c 128,-1,70
 1776 1729 1776 1729 1776 1655 c 256,71,72
 1776 1581 1776 1581 1828 1525.5 c 128,-1,73
 1880 1470 1880 1470 1952 1470 c 0,74,75
 2028 1470 2028 1470 2083 1525.5 c 128,-1,76
 2138 1581 2138 1581 2138 1659 c 0,65,66
EndSplineSet
EndChar

StartChar: u0B99_u0BC1
Encoding: 159 -1 159
Width: 2004
Flags: HW
AnchorPoint: "V" 854 1286 basechar 0
AnchorPoint: "N" 854 -4 basechar 0
LayerCount: 2
Fore
SplineSet
1720 -387 m 1,0,-1
 1520 -387 l 1,1,-1
 1520 0 l 1,2,-1
 430 0 l 1,3,-1
 430 86 l 1,4,-1
 762 86 l 1,5,6
 873 131 873 131 929 235.5 c 128,-1,7
 985 340 985 340 985 473 c 0,8,9
 985 588 985 588 925.5 650.5 c 128,-1,10
 866 713 866 713 791 713 c 0,11,12
 738 713 738 713 700 684 c 128,-1,13
 662 655 662 655 647 598 c 1,14,-1
 647 369 l 1,15,-1
 432 369 l 1,16,-1
 432 1186 l 1,17,-1
 102 1186 l 1,18,-1
 102 -4 l 1,19,-1
 2 -4 l 1,20,-1
 2 1286 l 1,21,-1
 932 1286 l 1,22,-1
 932 1186 l 1,23,-1
 647 1186 l 1,24,-1
 647 762 l 1,25,26
 715 848 715 848 840 848 c 0,27,28
 973 848 973 848 1073 752 c 0,29,30
 1188 641 1188 641 1188 465 c 0,31,32
 1188 318 1188 318 1133.5 223.5 c 128,-1,33
 1079 129 1079 129 985 90 c 1,34,-1
 1518 90 l 1,35,-1
 1518 1294 l 1,36,-1
 1718 1294 l 1,37,-1
 1720 -387 l 1,0,-1
EndSplineSet
EndChar

